Exo2-Old_Default.ufo
<glyph name="exclam" format="2">
  <advance width="281"/>
  <unicode hex="0021"/>
  <outline>
    <contour>
      <point x="194" y="695" type="line"/>
      <point x="87" y="695" type="line"/>
      <point x="87" y="402" type="line"/>
      <point x="98" y="214" type="line"/>
      <point x="183" y="214" type="line"/>
      <point x="194" y="402" type="line"/>
    </contour>
    <contour>
      <point x="154" y="130" type="curve" smooth="yes"/>
      <point x="128" y="130" type="line" smooth="yes"/>
      <point x="99" y="130"/>
      <point x="89" y="120"/>
      <point x="89" y="91" type="curve" smooth="yes"/>
      <point x="89" y="39" type="line" smooth="yes"/>
      <point x="89" y="10"/>
      <point x="99" y="0"/>
      <point x="128" y="0" type="curve" smooth="yes"/>
      <point x="154" y="0" type="line" smooth="yes"/>
      <point x="183" y="0"/>
      <point x="193" y="10"/>
      <point x="193" y="39" type="curve" smooth="yes"/>
      <point x="193" y="91" type="line" smooth="yes"/>
      <point x="193" y="120"/>
      <point x="183" y="130"/>
    </contour>
  </outline>
</glyph>
<glyph name="numbersign" format="2">
  <advance width="691"/>
  <unicode hex="0023"/>
  <outline>
    <contour>
      <point x="322" y="690" type="line"/>
      <point x="238" y="690" type="line"/>
      <point x="118" y="0" type="line"/>
      <point x="202" y="0" type="line"/>
    </contour>
    <contour>
      <point x="573" y="690" type="line"/>
      <point x="489" y="690" type="line"/>
      <point x="369" y="0" type="line"/>
      <point x="453" y="0" type="line"/>
    </contour>
    <contour>
      <point x="652" y="507" type="line"/>
      <point x="93" y="507" type="line"/>
      <point x="80" y="440" type="line"/>
      <point x="639" y="440" type="line"/>
    </contour>
    <contour>
      <point x="610" y="274" type="line"/>
      <point x="51" y="274" type="line"/>
      <point x="38" y="207" type="line"/>
      <point x="597" y="207" type="line"/>
    </contour>
  </outline>
</glyph>
<glyph name="plus" format="2">
  <advance width="550"/>
  <unicode hex="002B"/>
  <outline>
    <contour>
      <point x="497" y="339" type="line"/>
      <point x="52" y="339" type="line"/>
      <point x="52" y="260" type="line"/>
      <point x="497" y="260" type="line"/>
    </contour>
    <contour>
      <point x="315" y="512" type="line"/>
      <point x="233" y="512" type="line"/>
      <point x="234" y="87" type="line"/>
      <point x="315" y="87" type="line"/>
    </contour>
  </outline>
</glyph>
<glyph name="hyphen" format="2">
  <advance width="436"/>
  <unicode hex="002D"/>
  <outline>
    <contour>
      <point x="369" y="294" type="line"/>
      <point x="67" y="294" type="line"/>
      <point x="67" y="213" type="line"/>
      <point x="369" y="213" type="line"/>
    </contour>
  </outline>
</glyph>
<glyph name="period" format="2">
  <advance width="237"/>
  <unicode hex="002E"/>
  <outline>
    <contour>
      <point x="136" y="130" type="curve" smooth="yes"/>
      <point x="101" y="130" type="line" smooth="yes"/>
      <point x="72" y="130"/>
      <point x="62" y="120"/>
      <point x="62" y="91" type="curve" smooth="yes"/>
      <point x="62" y="39" type="line" smooth="yes"/>
      <point x="62" y="10"/>
      <point x="72" y="0"/>
      <point x="101" y="0" type="curve" smooth="yes"/>
      <point x="136" y="0" type="line" smooth="yes"/>
      <point x="165" y="0"/>
      <point x="175" y="10"/>
      <point x="175" y="39" type="curve" smooth="yes"/>
      <point x="175" y="91" type="line" smooth="yes"/>
      <point x="175" y="120"/>
      <point x="165" y="130"/>
    </contour>
  </outline>
</glyph>
<glyph name="slash" format="2">
  <advance width="526"/>
  <unicode hex="002F"/>
  <outline>
    <contour>
      <point x="503" y="690" type="line"/>
      <point x="416" y="690" type="line"/>
      <point x="23" y="-68" type="line"/>
      <point x="110" y="-68" type="line"/>
    </contour>
  </outline>
</glyph>
<glyph name="zero" format="2">
  <advance width="610"/>
  <unicode hex="0030"/>
  <outline>
    <contour>
      <point x="305" y="703" type="curve" smooth="yes"/>
      <point x="122" y="703"/>
      <point x="59" y="601"/>
      <point x="59" y="345" type="curve" smooth="yes"/>
      <point x="59" y="89"/>
      <point x="122" y="-13"/>
      <point x="305" y="-13" type="curve" smooth="yes"/>
      <point x="488" y="-13"/>
      <point x="551" y="89"/>
      <point x="551" y="345" type="curve" smooth="yes"/>
      <point x="551" y="601"/>
      <point x="488" y="703"/>
    </contour>
    <contour>
      <point x="304" y="607" type="curve" smooth="yes"/>
      <point x="410" y="607"/>
      <point x="443" y="540"/>
      <point x="443" y="345" type="curve" smooth="yes"/>
      <point x="443" y="150"/>
      <point x="410" y="83"/>
      <point x="304" y="83" type="curve" smooth="yes"/>
      <point x="200" y="83"/>
      <point x="167" y="150"/>
      <point x="167" y="345" type="curve" smooth="yes"/>
      <point x="167" y="540"/>
      <point x="200" y="607"/>
    </contour>
  </outline>
</glyph>
<glyph name="three" format="2">
  <advance width="558"/>
  <unicode hex="0033"/>
  <outline>
    <contour>
      <point x="262" y="703" type="curve" smooth="yes"/>
      <point x="196" y="703"/>
      <point x="131" y="697"/>
      <point x="61" y="685" type="curve"/>
      <point x="68" y="598" type="line"/>
      <point x="115" y="602"/>
      <point x="179" y="605"/>
      <point x="245" y="605" type="curve" smooth="yes"/>
      <point x="341" y="605"/>
      <point x="370" y="596"/>
      <point x="371" y="516" type="curve" smooth="yes"/>
      <point x="372" y="453"/>
      <point x="362" y="405"/>
      <point x="262" y="405" type="curve" smooth="yes"/>
      <point x="135" y="405" type="line"/>
      <point x="135" y="318" type="line"/>
      <point x="262" y="318" type="line" smooth="yes"/>
      <point x="365" y="318"/>
      <point x="386" y="277"/>
      <point x="386" y="205" type="curve" smooth="yes"/>
      <point x="386" y="114"/>
      <point x="348" y="86"/>
      <point x="244" y="86" type="curve" smooth="yes"/>
      <point x="182" y="86"/>
      <point x="127" y="89"/>
      <point x="55" y="95" type="curve"/>
      <point x="49" y="5" type="line"/>
      <point x="120" y="-5"/>
      <point x="197" y="-13"/>
      <point x="273" y="-13" type="curve" smooth="yes"/>
      <point x="439" y="-13"/>
      <point x="498" y="51"/>
      <point x="496" y="192" type="curve" smooth="yes"/>
      <point x="494" y="289"/>
      <point x="467" y="350"/>
      <point x="379" y="365" type="curve"/>
      <point x="379" y="369" type="line"/>
      <point x="457" y="384"/>
      <point x="478" y="452"/>
      <point x="478" y="543" type="curve" smooth="yes"/>
      <point x="478" y="665"/>
      <point x="412" y="703"/>
    </contour>
  </outline>
</glyph>
<glyph name="four" format="2">
  <advance width="622"/>
  <unicode hex="0034"/>
  <outline>
    <contour>
      <point x="338" y="690" type="line"/>
      <point x="229" y="690" type="line"/>
      <point x="43" y="277" type="line" smooth="yes"/>
      <point x="18" y="220"/>
      <point x="53" y="159"/>
      <point x="116" y="159" type="curve" smooth="yes"/>
      <point x="493" y="159" type="line"/>
      <point x="582" y="170" type="line"/>
      <point x="582" y="249" type="line"/>
      <point x="181" y="249" type="line" smooth="yes"/>
      <point x="159" y="249"/>
      <point x="146" y="260"/>
      <point x="158" y="287" type="curve" smooth="yes"/>
    </contour>
    <contour>
      <point x="491" y="557" type="line"/>
      <point x="405" y="557" type="line"/>
      <point x="386" y="445" type="line"/>
      <point x="386" y="0" type="line"/>
      <point x="491" y="0" type="line"/>
    </contour>
  </outline>
</glyph>
<glyph name="six" format="2">
  <advance width="575"/>
  <unicode hex="0036"/>
  <outline>
    <contour>
      <point x="334" y="702" type="curve" smooth="yes"/>
      <point x="152" y="702"/>
      <point x="61" y="653"/>
      <point x="61" y="337" type="curve" smooth="yes"/>
      <point x="61" y="65"/>
      <point x="102" y="-12"/>
      <point x="301" y="-12" type="curve" smooth="yes"/>
      <point x="490" y="-12"/>
      <point x="525" y="85"/>
      <point x="525" y="229" type="curve" smooth="yes"/>
      <point x="525" y="393"/>
      <point x="480" y="454"/>
      <point x="334" y="454" type="curve" smooth="yes"/>
      <point x="238" y="454"/>
      <point x="189" y="427"/>
      <point x="124" y="331" type="curve"/>
      <point x="128" y="276" type="line"/>
      <point x="204" y="345"/>
      <point x="242" y="364"/>
      <point x="304" y="364" type="curve" smooth="yes"/>
      <point x="395" y="364"/>
      <point x="419" y="327"/>
      <point x="419" y="228" type="curve" smooth="yes"/>
      <point x="419" y="134"/>
      <point x="407" y="83"/>
      <point x="302" y="83" type="curve" smooth="yes"/>
      <point x="177" y="83"/>
      <point x="170" y="135"/>
      <point x="170" y="334" type="curve" smooth="yes"/>
      <point x="170" y="572"/>
      <point x="211" y="608"/>
      <point x="334" y="608" type="curve" smooth="yes"/>
      <point x="398" y="608"/>
      <point x="426" y="608"/>
      <point x="473" y="605" type="curve"/>
      <point x="481" y="686" type="line"/>
      <point x="422" y="702"/>
      <point x="363" y="702"/>
    </contour>
  </outline>
</glyph>
<glyph name="seven" format="2">
  <advance width="515"/>
  <unicode hex="0037"/>
  <outline>
    <contour>
      <point x="431" y="690" type="curve" smooth="yes"/>
      <point x="35" y="690" type="line"/>
      <point x="40" y="596" type="line"/>
      <point x="369" y="596" type="line"/>
      <point x="359" y="578"/>
      <point x="351" y="559"/>
      <point x="345" y="540" type="curve" smooth="yes"/>
      <point x="160" y="0" type="line"/>
      <point x="271" y="0" type="line"/>
      <point x="482" y="622" type="line" smooth="yes"/>
      <point x="495" y="663"/>
      <point x="475" y="690"/>
    </contour>
  </outline>
</glyph>
<glyph name="equal" format="2">
  <advance width="584"/>
  <unicode hex="003D"/>
  <outline>
    <contour>
      <point x="515" y="439" type="line"/>
      <point x="69" y="439" type="line"/>
      <point x="69" y="360" type="line"/>
      <point x="515" y="360" type="line"/>
    </contour>
    <contour>
      <point x="515" y="228" type="line"/>
      <point x="69" y="228" type="line"/>
      <point x="69" y="149" type="line"/>
      <point x="515" y="149" type="line"/>
    </contour>
  </outline>
</glyph>
<glyph name="question" format="2">
  <advance width="504"/>
  <unicode hex="003F"/>
  <outline>
    <contour>
      <point x="262" y="712" type="curve" smooth="yes"/>
      <point x="140" y="712"/>
      <point x="107" y="702"/>
      <point x="36" y="690" type="curve"/>
      <point x="41" y="613" type="line"/>
      <point x="108" y="618"/>
      <point x="139" y="621"/>
      <point x="238" y="621" type="curve" smooth="yes"/>
      <point x="321" y="621"/>
      <point x="356" y="594"/>
      <point x="353" y="537" type="curve" smooth="yes"/>
      <point x="349" y="438"/>
      <point x="192" y="395"/>
      <point x="197" y="214" type="curve"/>
      <point x="288" y="214" type="line"/>
      <point x="296" y="385"/>
      <point x="467" y="408"/>
      <point x="467" y="557" type="curve" smooth="yes"/>
      <point x="467" y="663"/>
      <point x="399" y="712"/>
    </contour>
    <contour>
      <point x="256" y="130" type="curve" smooth="yes"/>
      <point x="229" y="130" type="line" smooth="yes"/>
      <point x="200" y="130"/>
      <point x="190" y="120"/>
      <point x="190" y="91" type="curve" smooth="yes"/>
      <point x="190" y="39" type="line" smooth="yes"/>
      <point x="190" y="10"/>
      <point x="200" y="0"/>
      <point x="229" y="0" type="curve" smooth="yes"/>
      <point x="256" y="0" type="line" smooth="yes"/>
      <point x="285" y="0"/>
      <point x="295" y="10"/>
      <point x="295" y="39" type="curve" smooth="yes"/>
      <point x="295" y="91" type="line" smooth="yes"/>
      <point x="295" y="120"/>
      <point x="285" y="130"/>
    </contour>
  </outline>
</glyph>
<glyph name="C" format="2">
  <advance width="574"/>
  <unicode hex="0043"/>
  <anchor x="322" y="-12" name="bottom"/>
  <anchor x="320" y="732" name="top"/>
  <outline>
    <contour>
      <point x="332" y="702" type="curve" smooth="yes"/>
      <point x="129" y="702"/>
      <point x="56" y="608"/>
      <point x="56" y="345" type="curve" smooth="yes"/>
      <point x="56" y="82"/>
      <point x="129" y="-12"/>
      <point x="332" y="-12" type="curve" smooth="yes"/>
      <point x="425" y="-12"/>
      <point x="480" y="-5"/>
      <point x="540" y="13" type="curve"/>
      <point x="529" y="97" type="line"/>
      <point x="472" y="89"/>
      <point x="419" y="87"/>
      <point x="332" y="87" type="curve" smooth="yes"/>
      <point x="211" y="87"/>
      <point x="173" y="149"/>
      <point x="173" y="345" type="curve" smooth="yes"/>
      <point x="173" y="541"/>
      <point x="211" y="603"/>
      <point x="332" y="603" type="curve" smooth="yes"/>
      <point x="414" y="603"/>
      <point x="454" y="601"/>
      <point x="515" y="596" type="curve"/>
      <point x="526" y="681" type="line"/>
      <point x="467" y="696"/>
      <point x="422" y="702"/>
    </contour>
  </outline>
</glyph>
<glyph name="D" format="2">
  <advance width="666"/>
  <unicode hex="0044"/>
  <anchor x="324" y="-12" name="bottom"/>
  <anchor x="316" y="732" name="top"/>
  <outline>
    <contour>
      <point x="333" y="699" type="curve" smooth="yes"/>
      <point x="235" y="699"/>
      <point x="155" y="695"/>
      <point x="81" y="690" type="curve"/>
      <point x="130" y="601" type="line"/>
      <point x="191" y="601"/>
      <point x="252" y="603"/>
      <point x="333" y="603" type="curve" smooth="yes"/>
      <point x="453" y="603"/>
      <point x="492" y="540"/>
      <point x="492" y="345" type="curve" smooth="yes"/>
      <point x="492" y="150"/>
      <point x="453" y="88"/>
      <point x="333" y="88" type="curve" smooth="yes"/>
      <point x="250" y="88"/>
      <point x="181" y="90"/>
      <point x="128" y="92" type="curve"/>
      <point x="81" y="0" type="line"/>
      <point x="155" y="-5"/>
      <point x="236" y="-9"/>
      <point x="333" y="-9" type="curve" smooth="yes"/>
      <point x="536" y="-9"/>
      <point x="609" y="76"/>
      <point x="609" y="345" type="curve" smooth="yes"/>
      <point x="609" y="614"/>
      <point x="536" y="699"/>
    </contour>
    <contour>
      <point x="192" y="690" type="line"/>
      <point x="81" y="690" type="line"/>
      <point x="81" y="0" type="line"/>
      <point x="192" y="0" type="line"/>
    </contour>
  </outline>
</glyph>
<glyph name="E" format="2">
  <advance width="564"/>
  <unicode hex="0045"/>
  <guideline x="143" y="538" angle="0"/>
  <anchor x="301" y="0" name="bottom"/>
  <anchor x="516" y="6" name="ogonek"/>
  <anchor x="310" y="741" name="top"/>
  <outline>
    <contour>
      <point x="220" y="692" type="curve" smooth="yes"/>
      <point x="131" y="692"/>
      <point x="76" y="644"/>
      <point x="75" y="565" type="curve" smooth="yes"/>
      <point x="75" y="125" type="line" smooth="yes"/>
      <point x="76" y="46"/>
      <point x="130" y="-2"/>
      <point x="220" y="-2" type="curve" smooth="yes"/>
      <point x="319" y="-2"/>
      <point x="426" y="-2"/>
      <point x="516" y="6" type="curve"/>
      <point x="511" y="92" type="line"/>
      <point x="238" y="92" type="line" smooth="yes"/>
      <point x="200" y="92"/>
      <point x="187" y="107"/>
      <point x="187" y="153" type="curve" smooth="yes"/>
      <point x="187" y="536" type="line" smooth="yes"/>
      <point x="187" y="582"/>
      <point x="200" y="597"/>
      <point x="238" y="597" type="curve" smooth="yes"/>
      <point x="511" y="597" type="line"/>
      <point x="516" y="684" type="line"/>
      <point x="426" y="692"/>
      <point x="319" y="692"/>
    </contour>
    <contour>
      <point x="93" y="407" type="line"/>
      <point x="93" y="318" type="line"/>
      <point x="473" y="318" type="line"/>
      <point x="473" y="407" type="line"/>
    </contour>
  </outline>
</glyph>
<glyph name="F" format="2">
  <advance width="542"/>
  <unicode hex="0046"/>
  <outline>
    <contour>
      <point x="224" y="692" type="curve" smooth="yes"/>
      <point x="135" y="692"/>
      <point x="79" y="645"/>
      <point x="79" y="559" type="curve" smooth="yes"/>
      <point x="79" y="0" type="line"/>
      <point x="191" y="0" type="line"/>
      <point x="191" y="536" type="line" smooth="yes"/>
      <point x="191" y="582"/>
      <point x="206" y="597"/>
      <point x="252" y="597" type="curve" smooth="yes"/>
      <point x="504" y="597" type="line"/>
      <point x="510" y="683" type="line"/>
      <point x="423" y="692"/>
      <point x="320" y="692"/>
    </contour>
    <contour>
      <point x="96" y="395" type="line"/>
      <point x="96" y="305" type="line"/>
      <point x="467" y="305" type="line"/>
      <point x="467" y="395" type="line"/>
    </contour>
  </outline>
</glyph>
<glyph name="H" format="2">
  <advance width="672"/>
  <unicode hex="0048"/>
  <anchor x="336" y="0" name="bottom"/>
  <anchor x="329" y="345" name="center"/>
  <anchor x="336" y="741" name="top"/>
  <outline>
    <contour>
      <point x="192" y="690" type="line"/>
      <point x="81" y="690" type="line"/>
      <point x="81" y="0" type="line"/>
      <point x="192" y="0" type="line"/>
    </contour>
    <contour>
      <point x="490" y="416" type="line"/>
      <point x="184" y="416" type="line"/>
      <point x="184" y="320" type="line"/>
      <point x="490" y="320" type="line"/>
    </contour>
    <contour>
      <point x="591" y="690" type="line"/>
      <point x="480" y="690" type="line"/>
      <point x="480" y="0" type="line"/>
      <point x="591" y="0" type="line"/>
    </contour>
  </outline>
</glyph>
<glyph name="J" format="2">
  <advance width="346"/>
  <unicode hex="004A"/>
  <anchor x="209" y="0" name="bottom"/>
  <anchor x="213" y="732" name="top"/>
  <outline>
    <contour>
      <point x="268" y="690" type="line"/>
      <point x="157" y="690" type="line"/>
      <point x="157" y="151" type="line" smooth="yes"/>
      <point x="157" y="108"/>
      <point x="134" y="85"/>
      <point x="86" y="85" type="curve" smooth="yes"/>
      <point x="39" y="85" type="line"/>
      <point x="27" y="5" type="line"/>
      <point x="51" y="-4"/>
      <point x="101" y="-10"/>
      <point x="130" y="-10" type="curve" smooth="yes"/>
      <point x="218" y="-10"/>
      <point x="268" y="48"/>
      <point x="268" y="156" type="curve" smooth="yes"/>
    </contour>
  </outline>
</glyph>
<glyph name="L" format="2">
  <advance width="516"/>
  <unicode hex="004C"/>
  <anchor x="302" y="0" name="bottom"/>
  <anchor x="136" y="732" name="top"/>
  <outline>
    <contour>
      <point x="190" y="690" type="line"/>
      <point x="79" y="690" type="line"/>
      <point x="79" y="139" type="line" smooth="yes"/>
      <point x="79" y="58"/>
      <point x="115" y="-2"/>
      <point x="233" y="-2" type="curve" smooth="yes"/>
      <point x="322" y="-2"/>
      <point x="412" y="-1"/>
      <point x="497" y="7" type="curve"/>
      <point x="492" y="93" type="line"/>
      <point x="251" y="93" type="line" smooth="yes"/>
      <point x="205" y="93"/>
      <point x="190" y="108"/>
      <point x="190" y="154" type="curve" smooth="yes"/>
    </contour>
  </outline>
</glyph>
<glyph name="N" format="2">
  <advance width="711"/>
  <unicode hex="004E"/>
  <anchor x="365" y="0" name="bottom"/>
  <anchor x="366" y="732" name="top"/>
  <outline>
    <contour>
      <point x="630" y="690" type="line"/>
      <point x="520" y="690" type="line"/>
      <point x="520" y="219" type="line" smooth="yes"/>
      <point x="520" y="182"/>
      <point x="522" y="146"/>
      <point x="525" y="109" type="curve"/>
      <point x="512" y="109" type="line"/>
      <point x="497" y="145"/>
      <point x="477" y="187"/>
      <point x="464" y="216" type="curve" smooth="yes"/>
      <point x="270" y="656" type="line" smooth="yes"/>
      <point x="260" y="679"/>
      <point x="247" y="690"/>
      <point x="223" y="690" type="curve" smooth="yes"/>
      <point x="123" y="690" type="line" smooth="yes"/>
      <point x="96" y="690"/>
      <point x="81" y="676"/>
      <point x="81" y="648" type="curve" smooth="yes"/>
      <point x="81" y="0" type="line"/>
      <point x="192" y="0" type="line"/>
      <point x="192" y="486" type="line" smooth="yes"/>
      <point x="192" y="519"/>
      <point x="191" y="553"/>
      <point x="187" y="586" type="curve"/>
      <point x="199" y="586" type="line"/>
      <point x="206" y="556"/>
      <point x="228" y="513"/>
      <point x="240" y="486" type="curve" smooth="yes"/>
      <point x="440" y="34" type="line" smooth="yes"/>
      <point x="450" y="11"/>
      <point x="463" y="0"/>
      <point x="487" y="0" type="curve" smooth="yes"/>
      <point x="589" y="0" type="line" smooth="yes"/>
      <point x="616" y="0"/>
      <point x="630" y="14"/>
      <point x="630" y="42" type="curve" smooth="yes"/>
    </contour>
  </outline>
</glyph>
<glyph name="O" format="2">
  <advance width="670"/>
  <unicode hex="004F"/>
  <anchor x="333" y="0" name="bottom"/>
  <anchor x="375" y="0" name="ogonek"/>
  <anchor x="337" y="732" name="top"/>
  <outline>
    <contour>
      <point x="335" y="703" type="curve" smooth="yes"/>
      <point x="129" y="703"/>
      <point x="56" y="617"/>
      <point x="56" y="345" type="curve" smooth="yes"/>
      <point x="56" y="73"/>
      <point x="129" y="-13"/>
      <point x="335" y="-13" type="curve" smooth="yes"/>
      <point x="541" y="-13"/>
      <point x="614" y="73"/>
      <point x="614" y="345" type="curve" smooth="yes"/>
      <point x="614" y="617"/>
      <point x="541" y="703"/>
    </contour>
    <contour>
      <point x="335" y="604" type="curve" smooth="yes"/>
      <point x="458" y="604"/>
      <point x="497" y="542"/>
      <point x="497" y="345" type="curve" smooth="yes"/>
      <point x="497" y="148"/>
      <point x="458" y="86"/>
      <point x="335" y="86" type="curve" smooth="yes"/>
      <point x="212" y="86"/>
      <point x="173" y="148"/>
      <point x="173" y="345" type="curve" smooth="yes"/>
      <point x="173" y="542"/>
      <point x="212" y="604"/>
    </contour>
  </outline>
</glyph>
<glyph name="R" format="2">
  <advance width="622"/>
  <unicode hex="0052"/>
  <anchor x="320" y="0" name="bottom"/>
  <anchor x="303" y="732" name="top"/>
  <outline>
    <contour>
      <point x="325" y="699" type="curve" smooth="yes"/>
      <point x="211" y="699"/>
      <point x="158" y="698"/>
      <point x="81" y="690" type="curve"/>
      <point x="95" y="602" type="line"/>
      <point x="124" y="602"/>
      <point x="209" y="604"/>
      <point x="323" y="604" type="curve" smooth="yes"/>
      <point x="415" y="604"/>
      <point x="445" y="580"/>
      <point x="445" y="491" type="curve" smooth="yes"/>
      <point x="445" y="402"/>
      <point x="415" y="376"/>
      <point x="323" y="375" type="curve" smooth="yes"/>
      <point x="94" y="375" type="line"/>
      <point x="91" y="282" type="line"/>
      <point x="132" y="281"/>
      <point x="198" y="280"/>
      <point x="324" y="280" type="curve" smooth="yes"/>
      <point x="367" y="280"/>
      <point x="392" y="262"/>
      <point x="407" y="215" type="curve" smooth="yes"/>
      <point x="464" y="0" type="line"/>
      <point x="582" y="0" type="line"/>
      <point x="519" y="217" type="line" smooth="yes"/>
      <point x="504" y="280"/>
      <point x="464" y="309"/>
      <point x="430" y="318" type="curve"/>
      <point x="430" y="323" type="line"/>
      <point x="523" y="335"/>
      <point x="557" y="392"/>
      <point x="557" y="498" type="curve" smooth="yes"/>
      <point x="557" y="654"/>
      <point x="490" y="699"/>
    </contour>
    <contour>
      <point x="191" y="690" type="line"/>
      <point x="81" y="690" type="line"/>
      <point x="81" y="0" type="line"/>
      <point x="191" y="0" type="line"/>
    </contour>
  </outline>
</glyph>
<glyph name="Y" format="2">
  <advance width="579"/>
  <unicode hex="0059"/>
  <anchor x="287" y="0" name="bottom"/>
  <anchor x="291" y="718" name="top"/>
  <outline>
    <contour>
      <point x="571" y="690" type="line"/>
      <point x="455" y="690" type="line"/>
      <point x="323" y="414" type="line" smooth="yes"/>
      <point x="311" y="389"/>
      <point x="302" y="359"/>
      <point x="294" y="333" type="curve"/>
      <point x="286" y="333" type="line"/>
      <point x="278" y="359"/>
      <point x="269" y="389"/>
      <point x="257" y="414" type="curve" smooth="yes"/>
      <point x="125" y="690" type="line"/>
      <point x="7" y="690" type="line"/>
      <point x="239" y="228" type="line"/>
      <point x="341" y="228" type="line"/>
    </contour>
    <contour>
      <point x="345" y="302" type="line"/>
      <point x="234" y="302" type="line"/>
      <point x="234" y="0" type="line"/>
      <point x="345" y="0" type="line"/>
    </contour>
  </outline>
</glyph>
<glyph name="Z" format="2">
  <advance width="569"/>
  <unicode hex="005A"/>
  <anchor x="294" y="0" name="bottom"/>
  <anchor x="282" y="732" name="top"/>
  <outline>
    <contour>
      <point x="395" y="597" type="line"/>
      <point x="47" y="94" type="line"/>
      <point x="169" y="93" type="line"/>
      <point x="516" y="596" type="line"/>
    </contour>
    <contour>
      <point x="523" y="94" type="line"/>
      <point x="47" y="94" type="line"/>
      <point x="47" y="0" type="line"/>
      <point x="523" y="0" type="line"/>
    </contour>
    <contour>
      <point x="516" y="690" type="line"/>
      <point x="53" y="690" type="line"/>
      <point x="53" y="596" type="line"/>
      <point x="516" y="596" type="line"/>
    </contour>
  </outline>
</glyph>
<glyph name="bracketleft" format="2">
  <advance width="335"/>
  <unicode hex="005B"/>
  <outline>
    <contour>
      <point x="297" y="768" type="line"/>
      <point x="148" y="768" type="line" smooth="yes"/>
      <point x="112" y="768"/>
      <point x="86" y="742"/>
      <point x="86" y="706" type="curve" smooth="yes"/>
      <point x="86" y="-103" type="line" smooth="yes"/>
      <point x="86" y="-148"/>
      <point x="112" y="-165"/>
      <point x="148" y="-165" type="curve" smooth="yes"/>
      <point x="297" y="-165" type="line"/>
      <point x="297" y="-96" type="line"/>
      <point x="203" y="-96" type="line" smooth="yes"/>
      <point x="194" y="-96"/>
      <point x="187" y="-89"/>
      <point x="187" y="-79" type="curve" smooth="yes"/>
      <point x="187" y="682" type="line" smooth="yes"/>
      <point x="187" y="692"/>
      <point x="194" y="699"/>
      <point x="203" y="699" type="curve" smooth="yes"/>
      <point x="297" y="699" type="line"/>
    </contour>
  </outline>
</glyph>
<glyph name="bracketright" format="2">
  <advance width="335"/>
  <unicode hex="005D"/>
  <outline>
    <contour>
      <point x="186" y="768" type="curve" smooth="yes"/>
      <point x="38" y="768" type="line"/>
      <point x="38" y="699" type="line"/>
      <point x="131" y="699" type="line" smooth="yes"/>
      <point x="141" y="699"/>
      <point x="148" y="692"/>
      <point x="148" y="682" type="curve" smooth="yes"/>
      <point x="148" y="-79" type="line" smooth="yes"/>
      <point x="148" y="-89"/>
      <point x="141" y="-96"/>
      <point x="131" y="-96" type="curve" smooth="yes"/>
      <point x="38" y="-96" type="line"/>
      <point x="38" y="-165" type="line"/>
      <point x="186" y="-165" type="line" smooth="yes"/>
      <point x="223" y="-165"/>
      <point x="249" y="-139"/>
      <point x="249" y="-103" type="curve" smooth="yes"/>
      <point x="249" y="706" type="line" smooth="yes"/>
      <point x="249" y="742"/>
      <point x="223" y="768"/>
    </contour>
  </outline>
</glyph>
<glyph name="asciicircum" format="2">
  <advance width="439"/>
  <unicode hex="005E"/>
  <outline>
    <contour>
      <point x="259.132" y="609.895" type="line"/>
      <point x="181.184" y="609.895" type="line"/>
      <point x="30" y="394.105" type="line"/>
      <point x="72.974" y="368.684" type="line"/>
      <point x="216.158" y="539.5" type="line"/>
      <point x="224.158" y="539.5" type="line"/>
      <point x="366.105" y="368.684" type="line"/>
      <point x="408.974" y="394.105" type="line"/>
    </contour>
  </outline>
</glyph>
<glyph name="underscore" format="2">
  <advance width="440"/>
  <unicode hex="005F"/>
  <outline>
    <contour>
      <point x="440" y="0" type="line"/>
      <point x="0" y="0" type="line"/>
      <point x="0" y="-81" type="line"/>
      <point x="440" y="-81" type="line"/>
    </contour>
  </outline>
</glyph>
<glyph name="b" format="2">
  <advance width="575"/>
  <unicode hex="0062"/>
  <outline>
    <contour>
      <point x="349" y="502" type="curve" smooth="yes"/>
      <point x="280" y="502"/>
      <point x="212" y="471"/>
      <point x="157" y="407" type="curve"/>
      <point x="165" y="337" type="line"/>
      <point x="220" y="379"/>
      <point x="259" y="409"/>
      <point x="309" y="409" type="curve" smooth="yes"/>
      <point x="398" y="409"/>
      <point x="414" y="368"/>
      <point x="415" y="247" type="curve" smooth="yes"/>
      <point x="414" y="120"/>
      <point x="383" y="79"/>
      <point x="300" y="78" type="curve" smooth="yes"/>
      <point x="257" y="77"/>
      <point x="202" y="83"/>
      <point x="156" y="98" type="curve"/>
      <point x="70" y="24" type="line"/>
      <point x="133" y="0"/>
      <point x="234" y="-12"/>
      <point x="302" y="-12" type="curve" smooth="yes"/>
      <point x="479" y="-12"/>
      <point x="526" y="86"/>
      <point x="526" y="247" type="curve" smooth="yes"/>
      <point x="526" y="430"/>
      <point x="468" y="502"/>
    </contour>
    <contour>
      <point x="178" y="700" type="line"/>
      <point x="70" y="700" type="line"/>
      <point x="70" y="24" type="line"/>
      <point x="178" y="19" type="line"/>
      <point x="177" y="401" type="line"/>
      <point x="166" y="415" type="line"/>
      <point x="176" y="452"/>
      <point x="178" y="488"/>
      <point x="178" y="531" type="curve" smooth="yes"/>
    </contour>
  </outline>
</glyph>
<glyph name="c" format="2">
  <advance width="493"/>
  <unicode hex="0063"/>
  <anchor x="275" y="-12" name="bottom"/>
  <anchor x="266" y="553" name="top"/>
  <outline>
    <contour>
      <point x="285" y="502" type="curve" smooth="yes"/>
      <point x="113" y="502"/>
      <point x="49" y="434"/>
      <point x="49" y="245" type="curve" smooth="yes"/>
      <point x="49" y="56"/>
      <point x="112" y="-12"/>
      <point x="284" y="-12" type="curve" smooth="yes"/>
      <point x="344" y="-12"/>
      <point x="408" y="-3"/>
      <point x="458" y="16" type="curve"/>
      <point x="448" y="88" type="line"/>
      <point x="396" y="80"/>
      <point x="333" y="78"/>
      <point x="303" y="78" type="curve" smooth="yes"/>
      <point x="198" y="78"/>
      <point x="162" y="115"/>
      <point x="162" y="245" type="curve" smooth="yes"/>
      <point x="162" y="374"/>
      <point x="198" y="411"/>
      <point x="303" y="411" type="curve" smooth="yes"/>
      <point x="338" y="411"/>
      <point x="390" y="410"/>
      <point x="437" y="408" type="curve"/>
      <point x="450" y="476" type="line"/>
      <point x="400" y="496"/>
      <point x="331" y="502"/>
    </contour>
  </outline>
</glyph>
<glyph name="e" format="2">
  <advance width="541"/>
  <unicode hex="0065"/>
  <anchor x="272" y="-12" name="bottom"/>
  <anchor x="484" y="20" name="ogonek"/>
  <anchor x="283" y="552" name="top"/>
  <outline>
    <contour>
      <point x="279" y="502" type="curve" smooth="yes"/>
      <point x="119" y="502"/>
      <point x="49" y="440"/>
      <point x="49" y="246" type="curve" smooth="yes"/>
      <point x="49" y="57"/>
      <point x="115" y="-12"/>
      <point x="288" y="-12" type="curve" smooth="yes"/>
      <point x="346" y="-12"/>
      <point x="434" y="-4"/>
      <point x="484" y="19" type="curve"/>
      <point x="474" y="90" type="line"/>
      <point x="419" y="83"/>
      <point x="350" y="78"/>
      <point x="302" y="78" type="curve" smooth="yes"/>
      <point x="198" y="78"/>
      <point x="161" y="102"/>
      <point x="161" y="252" type="curve" smooth="yes"/>
      <point x="161" y="380"/>
      <point x="188" y="412"/>
      <point x="284" y="412" type="curve" smooth="yes"/>
      <point x="364" y="412"/>
      <point x="388" y="390"/>
      <point x="388" y="335" type="curve" smooth="yes"/>
      <point x="388" y="310"/>
      <point x="383" y="275"/>
      <point x="345" y="275" type="curve" smooth="yes"/>
      <point x="88" y="275" type="line"/>
      <point x="88" y="193" type="line"/>
      <point x="375" y="193" type="line" smooth="yes"/>
      <point x="457" y="193"/>
      <point x="496" y="246"/>
      <point x="496" y="334" type="curve" smooth="yes"/>
      <point x="496" y="444"/>
      <point x="434" y="502"/>
    </contour>
  </outline>
</glyph>
<glyph name="h" format="2">
  <advance width="585"/>
  <unicode hex="0068"/>
  <anchor x="303" y="-12" name="bottom"/>
  <anchor x="294" y="240" name="center"/>
  <anchor x="125" y="706" name="top"/>
  <outline>
    <contour>
      <point x="383" y="502" type="curve" smooth="yes"/>
      <point x="309" y="502"/>
      <point x="236" y="467"/>
      <point x="163" y="411" type="curve"/>
      <point x="168" y="336" type="line"/>
      <point x="247" y="384"/>
      <point x="298" y="411"/>
      <point x="353" y="411" type="curve" smooth="yes"/>
      <point x="395" y="411"/>
      <point x="408" y="395"/>
      <point x="408" y="335" type="curve" smooth="yes"/>
      <point x="408" y="0" type="line"/>
      <point x="516" y="0" type="line"/>
      <point x="516" y="367" type="line" smooth="yes"/>
      <point x="516" y="455"/>
      <point x="469" y="502"/>
    </contour>
    <contour>
      <point x="180" y="700" type="line"/>
      <point x="72" y="700" type="line"/>
      <point x="72" y="0" type="line"/>
      <point x="180" y="0" type="line"/>
      <point x="180" y="380" type="line"/>
      <point x="169" y="395" type="line"/>
      <point x="176" y="424"/>
      <point x="181" y="468"/>
      <point x="181" y="515" type="curve" smooth="yes"/>
    </contour>
  </outline>
</glyph>
<glyph name="j" format="2">
  <advance width="261"/>
  <unicode hex="006A"/>
  <outline>
    <contour>
      <point x="185" y="489" type="line"/>
      <point x="77" y="489" type="line"/>
      <point x="77" y="1" type="line" smooth="yes"/>
      <point x="77" y="-61"/>
      <point x="60" y="-106"/>
      <point x="21" y="-154" type="curve"/>
      <point x="81" y="-201" type="line"/>
      <point x="145" y="-158"/>
      <point x="185" y="-82"/>
      <point x="185" y="1" type="curve" smooth="yes"/>
    </contour>
    <contour>
      <point x="157" y="699" type="curve" smooth="yes"/>
      <point x="106" y="699" type="line"/>
      <point x="85" y="699"/>
      <point x="75" y="687"/>
      <point x="75" y="668" type="curve" smooth="yes"/>
      <point x="75" y="613" type="line"/>
      <point x="75" y="592"/>
      <point x="85" y="582"/>
      <point x="106" y="582" type="curve" smooth="yes"/>
      <point x="157" y="582" type="line"/>
      <point x="178" y="582"/>
      <point x="188" y="592"/>
      <point x="188" y="613" type="curve" smooth="yes"/>
      <point x="188" y="668" type="line"/>
      <point x="188" y="687"/>
      <point x="178" y="699"/>
    </contour>
  </outline>
</glyph>
<glyph name="m" format="2">
  <advance width="874"/>
  <unicode hex="006D"/>
  <anchor x="439" y="-12" name="bottom"/>
  <anchor x="450" y="558" name="top"/>
  <outline>
    <contour>
      <point x="673" y="502" type="curve" smooth="yes"/>
      <point x="605" y="502"/>
      <point x="541" y="472"/>
      <point x="473" y="410" type="curve"/>
      <point x="480" y="336" type="line"/>
      <point x="558" y="391"/>
      <point x="587" y="411"/>
      <point x="634" y="411" type="curve" smooth="yes"/>
      <point x="683" y="411"/>
      <point x="698" y="389"/>
      <point x="699" y="335" type="curve" smooth="yes"/>
      <point x="699" y="0" type="line"/>
      <point x="805" y="0" type="line"/>
      <point x="805" y="367" type="line" smooth="yes"/>
      <point x="805" y="455"/>
      <point x="759" y="502"/>
    </contour>
    <contour>
      <point x="161" y="489" type="line"/>
      <point x="72" y="489" type="line"/>
      <point x="72" y="0" type="line"/>
      <point x="179" y="0" type="line"/>
      <point x="179" y="380" type="line"/>
      <point x="168" y="395" type="line"/>
    </contour>
    <contour>
      <point x="360" y="502" type="curve" smooth="yes"/>
      <point x="290" y="502"/>
      <point x="226" y="470"/>
      <point x="159" y="410" type="curve"/>
      <point x="167" y="336" type="line"/>
      <point x="247" y="393"/>
      <point x="277" y="411"/>
      <point x="322" y="411" type="curve" smooth="yes"/>
      <point x="367" y="411"/>
      <point x="388" y="393"/>
      <point x="387" y="335" type="curve" smooth="yes"/>
      <point x="387" y="0" type="line"/>
      <point x="491" y="0" type="line"/>
      <point x="491" y="367" type="line" smooth="yes"/>
      <point x="490" y="456"/>
      <point x="444" y="502"/>
    </contour>
  </outline>
</glyph>
<glyph name="o" format="2">
  <advance width="571"/>
  <unicode hex="006F"/>
  <anchor x="283" y="-12" name="bottom"/>
  <anchor x="332" y="2" name="ogonek"/>
  <anchor x="288" y="547" name="top"/>
  <outline>
    <contour>
      <point x="286" y="502" type="curve" smooth="yes"/>
      <point x="114" y="502"/>
      <point x="49" y="431"/>
      <point x="49" y="244" type="curve" smooth="yes"/>
      <point x="49" y="57"/>
      <point x="114" y="-13"/>
      <point x="286" y="-13" type="curve" smooth="yes"/>
      <point x="458" y="-13"/>
      <point x="522" y="57"/>
      <point x="522" y="244" type="curve" smooth="yes"/>
      <point x="522" y="431"/>
      <point x="458" y="502"/>
    </contour>
    <contour>
      <point x="286" y="412" type="curve" smooth="yes"/>
      <point x="381" y="412"/>
      <point x="410" y="375"/>
      <point x="410" y="244" type="curve" smooth="yes"/>
      <point x="410" y="114"/>
      <point x="381" y="77"/>
      <point x="286" y="77" type="curve" smooth="yes"/>
      <point x="190" y="77"/>
      <point x="162" y="114"/>
      <point x="162" y="244" type="curve" smooth="yes"/>
      <point x="162" y="375"/>
      <point x="190" y="412"/>
    </contour>
  </outline>
</glyph>
<glyph name="q" format="2">
  <advance width="574"/>
  <unicode hex="0071"/>
  <outline>
    <contour>
      <point x="276" y="502" type="curve" smooth="yes"/>
      <point x="96" y="502"/>
      <point x="49" y="406"/>
      <point x="49" y="243" type="curve" smooth="yes"/>
      <point x="49" y="64"/>
      <point x="106" y="-13"/>
      <point x="218" y="-13" type="curve" smooth="yes"/>
      <point x="293" y="-13"/>
      <point x="365" y="22"/>
      <point x="422" y="74" type="curve"/>
      <point x="409" y="145" type="line"/>
      <point x="352" y="107"/>
      <point x="312" y="81"/>
      <point x="255" y="81" type="curve" smooth="yes"/>
      <point x="176" y="81"/>
      <point x="160" y="132"/>
      <point x="160" y="235" type="curve" smooth="yes"/>
      <point x="160" y="374"/>
      <point x="189" y="409"/>
      <point x="274" y="412" type="curve" smooth="yes"/>
      <point x="316" y="413"/>
      <point x="372" y="407"/>
      <point x="418" y="392" type="curve"/>
      <point x="504" y="466" type="line"/>
      <point x="441" y="490"/>
      <point x="339" y="502"/>
    </contour>
    <contour>
      <point x="397" y="471" type="line"/>
      <point x="397" y="87" type="line"/>
      <point x="408" y="73" type="line"/>
      <point x="398" y="36"/>
      <point x="396" y="0"/>
      <point x="396" y="-43" type="curve" smooth="yes"/>
      <point x="397" y="-197" type="line"/>
      <point x="504" y="-197" type="line"/>
      <point x="504" y="466" type="line"/>
    </contour>
  </outline>
</glyph>
<glyph name="s" format="2">
  <advance width="511"/>
  <unicode hex="0073"/>
  <anchor x="249" y="-11" name="bottom"/>
  <anchor x="260" y="553" name="top"/>
  <outline>
    <contour>
      <point x="241" y="502" type="curve" smooth="yes"/>
      <point x="102" y="503"/>
      <point x="46" y="475"/>
      <point x="46" y="365" type="curve" smooth="yes"/>
      <point x="46" y="286"/>
      <point x="75" y="247"/>
      <point x="158" y="224" type="curve" smooth="yes"/>
      <point x="290" y="188" type="line" smooth="yes"/>
      <point x="336" y="175"/>
      <point x="363" y="172"/>
      <point x="363" y="131" type="curve" smooth="yes"/>
      <point x="363" y="88"/>
      <point x="333" y="79"/>
      <point x="228" y="79" type="curve" smooth="yes"/>
      <point x="166" y="79"/>
      <point x="104" y="80"/>
      <point x="62" y="83" type="curve"/>
      <point x="55" y="4" type="line"/>
      <point x="141" y="-10"/>
      <point x="221" y="-11"/>
      <point x="252" y="-11" type="curve" smooth="yes"/>
      <point x="401" y="-11"/>
      <point x="467" y="12"/>
      <point x="467" y="131" type="curve" smooth="yes"/>
      <point x="467" y="217"/>
      <point x="432" y="248"/>
      <point x="352" y="270" type="curve" smooth="yes"/>
      <point x="218" y="307" type="line" smooth="yes"/>
      <point x="172" y="320"/>
      <point x="150" y="322"/>
      <point x="150" y="365" type="curve" smooth="yes"/>
      <point x="150" y="410"/>
      <point x="174" y="411"/>
      <point x="258" y="411" type="curve" smooth="yes"/>
      <point x="320" y="411"/>
      <point x="382" y="409"/>
      <point x="444" y="407" type="curve"/>
      <point x="452" y="485" type="line"/>
      <point x="392" y="495"/>
      <point x="306" y="501"/>
    </contour>
  </outline>
</glyph>
<glyph name="u" format="2">
  <advance width="574"/>
  <unicode hex="0075"/>
  <anchor x="276" y="-11" name="bottom"/>
  <anchor x="505" y="0" name="ogonek"/>
  <anchor x="287" y="557" name="top"/>
  <outline>
    <contour>
      <point x="177" y="489" type="line"/>
      <point x="69" y="489" type="line"/>
      <point x="69" y="122" type="line" smooth="yes"/>
      <point x="69" y="33"/>
      <point x="115" y="-13"/>
      <point x="203" y="-13" type="curve" smooth="yes"/>
      <point x="277" y="-13"/>
      <point x="346" y="16"/>
      <point x="421" y="74" type="curve"/>
      <point x="406" y="146" type="line"/>
      <point x="335" y="103"/>
      <point x="289" y="79"/>
      <point x="241" y="79" type="curve" smooth="yes"/>
      <point x="192" y="79"/>
      <point x="176" y="97"/>
      <point x="177" y="154" type="curve" smooth="yes"/>
    </contour>
    <contour>
      <point x="502" y="489" type="line"/>
      <point x="395" y="489" type="line"/>
      <point x="395" y="108" type="line"/>
      <point x="405" y="94" type="line"/>
      <point x="416" y="0" type="line"/>
      <point x="502" y="0" type="line"/>
    </contour>
  </outline>
</glyph>
<glyph name="y" format="2">
  <advance width="537"/>
  <unicode hex="0079"/>
  <anchor x="446" y="-11" name="bottom"/>
  <anchor x="271" y="553" name="top"/>
  <outline>
    <contour>
      <point x="522" y="489" type="line"/>
      <point x="406" y="489" type="line"/>
      <point x="294" y="142" type="line" smooth="yes"/>
      <point x="285" y="114"/>
      <point x="273" y="75"/>
      <point x="262" y="48" type="curve" smooth="yes"/>
      <point x="236" y="-15" type="line" smooth="yes"/>
      <point x="212" y="-72"/>
      <point x="172" y="-110"/>
      <point x="93" y="-133" type="curve"/>
      <point x="103" y="-204" type="line"/>
      <point x="237" y="-206"/>
      <point x="305" y="-108"/>
      <point x="337" y="-20" type="curve" smooth="yes"/>
    </contour>
    <contour>
      <point x="129" y="489" type="line"/>
      <point x="14" y="489" type="line"/>
      <point x="183" y="27" type="line" smooth="yes"/>
      <point x="188" y="10"/>
      <point x="202" y="0"/>
      <point x="220" y="0" type="curve" smooth="yes"/>
      <point x="249" y="0" type="line"/>
      <point x="284" y="81" type="line"/>
      <point x="260" y="81" type="line"/>
      <point x="256" y="102"/>
      <point x="250" y="122"/>
      <point x="243" y="142" type="curve" smooth="yes"/>
    </contour>
  </outline>
</glyph>
<glyph name="braceleft" format="2">
  <advance width="327"/>
  <unicode hex="007B"/>
  <outline>
    <contour>
      <point x="286" y="768" type="line"/>
      <point x="152" y="781"/>
      <point x="98" y="728"/>
      <point x="98" y="633" type="curve" smooth="yes"/>
      <point x="98" y="440" type="line" smooth="yes"/>
      <point x="98" y="380"/>
      <point x="88" y="380"/>
      <point x="42" y="365" type="curve"/>
      <point x="42" y="291" type="line"/>
      <point x="85" y="274"/>
      <point x="102" y="270"/>
      <point x="102" y="220" type="curve" smooth="yes"/>
      <point x="102" y="-30" type="line" smooth="yes"/>
      <point x="102" y="-125"/>
      <point x="156" y="-178"/>
      <point x="290" y="-165" type="curve"/>
      <point x="290" y="-98" type="line"/>
      <point x="224" y="-98"/>
      <point x="205" y="-79"/>
      <point x="205" y="-22" type="curve" smooth="yes"/>
      <point x="205" y="205" type="line" smooth="yes"/>
      <point x="204" y="275"/>
      <point x="184" y="305"/>
      <point x="107" y="328" type="curve"/>
      <point x="182" y="342"/>
      <point x="202" y="372"/>
      <point x="201" y="455" type="curve" smooth="yes"/>
      <point x="201" y="624" type="line" smooth="yes"/>
      <point x="201" y="681"/>
      <point x="220" y="701"/>
      <point x="286" y="701" type="curve"/>
    </contour>
  </outline>
</glyph>
<glyph name="bar" format="2">
  <advance width="251"/>
  <unicode hex="007C"/>
  <outline>
    <contour>
      <point x="164" y="781" type="line"/>
      <point x="87" y="781" type="line"/>
      <point x="87" y="-169" type="line"/>
      <point x="164" y="-169" type="line"/>
    </contour>
  </outline>
</glyph>
<glyph name="asciitilde" format="2">
  <advance width="522"/>
  <unicode hex="007E"/>
  <outline>
    <contour>
      <point x="151" y="354" type="curve" smooth="yes"/>
      <point x="100" y="356"/>
      <point x="61" y="315"/>
      <point x="73" y="223" type="curve"/>
      <point x="127" y="223" type="line"/>
      <point x="127" y="263"/>
      <point x="133" y="279"/>
      <point x="167" y="275" type="curve" smooth="yes"/>
      <point x="219" y="269"/>
      <point x="301" y="223"/>
      <point x="372" y="220" type="curve" smooth="yes"/>
      <point x="426" y="217"/>
      <point x="462" y="261"/>
      <point x="450" y="349" type="curve"/>
      <point x="396" y="349" type="line"/>
      <point x="396" y="310"/>
      <point x="389" y="295"/>
      <point x="355" y="299" type="curve" smooth="yes"/>
      <point x="302" y="305"/>
      <point x="215" y="351"/>
    </contour>
  </outline>
</glyph>
<glyph name="exclamdown" format="2">
  <advance width="265"/>
  <unicode hex="00A1"/>
  <outline>
    <contour>
      <point x="175" y="284" type="line"/>
      <point x="90" y="284" type="line"/>
      <point x="79" y="96" type="line"/>
      <point x="79" y="-192" type="line"/>
      <point x="186" y="-192" type="line"/>
      <point x="186" y="96" type="line"/>
    </contour>
    <contour>
      <point x="146" y="498" type="curve" smooth="yes"/>
      <point x="120" y="498" type="line" smooth="yes"/>
      <point x="91" y="498"/>
      <point x="81" y="488"/>
      <point x="81" y="459" type="curve" smooth="yes"/>
      <point x="81" y="406" type="line" smooth="yes"/>
      <point x="81" y="377"/>
      <point x="91" y="368"/>
      <point x="120" y="368" type="curve" smooth="yes"/>
      <point x="146" y="368" type="line" smooth="yes"/>
      <point x="175" y="368"/>
      <point x="185" y="377"/>
      <point x="185" y="406" type="curve" smooth="yes"/>
      <point x="185" y="459" type="line" smooth="yes"/>
      <point x="185" y="488"/>
      <point x="175" y="498"/>
    </contour>
  </outline>
</glyph>
<glyph name="yen" format="2">
  <advance width="624"/>
  <unicode hex="00A5"/>
  <outline>
    <contour>
      <point x="594" y="690" type="line"/>
      <point x="479" y="690" type="line"/>
      <point x="347" y="425" type="line" smooth="yes"/>
      <point x="336" y="400"/>
      <point x="326" y="370"/>
      <point x="317" y="344" type="curve"/>
      <point x="309" y="344" type="line"/>
      <point x="299" y="370"/>
      <point x="290" y="400"/>
      <point x="278" y="425" type="curve" smooth="yes"/>
      <point x="145" y="690" type="line"/>
      <point x="30" y="690" type="line"/>
      <point x="261" y="246" type="line"/>
      <point x="364" y="246" type="line"/>
    </contour>
    <contour>
      <point x="368" y="319" type="line"/>
      <point x="257" y="319" type="line"/>
      <point x="257" y="0" type="line"/>
      <point x="368" y="0" type="line"/>
    </contour>
    <contour>
      <point x="539" y="215" type="line"/>
      <point x="90" y="215" type="line"/>
      <point x="91" y="153" type="line"/>
      <point x="539" y="153" type="line"/>
    </contour>
    <contour>
      <point x="539" y="329" type="line"/>
      <point x="89" y="329" type="line"/>
      <point x="91" y="266" type="line"/>
      <point x="539" y="266" type="line"/>
    </contour>
  </outline>
</glyph>
<glyph name="brokenbar" format="2">
  <advance width="253"/>
  <unicode hex="00A6"/>
  <outline>
    <contour>
      <point x="165" y="781" type="line"/>
      <point x="88" y="781" type="line"/>
      <point x="88" y="381" type="line"/>
      <point x="165" y="381" type="line"/>
    </contour>
    <contour>
      <point x="165" y="231" type="line"/>
      <point x="88" y="231" type="line"/>
      <point x="88" y="-169" type="line"/>
      <point x="165" y="-169" type="line"/>
    </contour>
  </outline>
</glyph>
<glyph name="section" format="2">
  <advance width="545"/>
  <unicode hex="00A7"/>
  <outline>
    <contour>
      <point x="152" y="378" type="curve"/>
      <point x="75" y="378" type="line"/>
      <point x="49" y="265"/>
      <point x="62" y="191"/>
      <point x="163" y="138" type="curve" smooth="yes"/>
      <point x="314" y="54" type="line" smooth="yes"/>
      <point x="348" y="35"/>
      <point x="376" y="15"/>
      <point x="373" y="-28" type="curve" smooth="yes"/>
      <point x="372" y="-76"/>
      <point x="328" y="-78"/>
      <point x="255" y="-78" type="curve" smooth="yes"/>
      <point x="181" y="-77"/>
      <point x="136" y="-76"/>
      <point x="73" y="-72" type="curve"/>
      <point x="65" y="-156" type="line"/>
      <point x="138" y="-164"/>
      <point x="227" y="-167"/>
      <point x="284" y="-168" type="curve" smooth="yes"/>
      <point x="409" y="-168"/>
      <point x="488" y="-151"/>
      <point x="488" y="-32" type="curve" smooth="yes"/>
      <point x="488" y="57"/>
      <point x="444" y="93"/>
      <point x="388" y="126" type="curve" smooth="yes"/>
      <point x="223" y="220" type="line" smooth="yes"/>
      <point x="159" y="256"/>
      <point x="146" y="294"/>
    </contour>
    <contour>
      <point x="263" y="703" type="curve" smooth="yes"/>
      <point x="131" y="703"/>
      <point x="58" y="680"/>
      <point x="58" y="568" type="curve" smooth="yes"/>
      <point x="58" y="480"/>
      <point x="101" y="445"/>
      <point x="158" y="412" type="curve" smooth="yes"/>
      <point x="323" y="317" type="line" smooth="yes"/>
      <point x="386" y="281"/>
      <point x="400" y="241"/>
      <point x="394" y="158" type="curve"/>
      <point x="471" y="158" type="line"/>
      <point x="498" y="270"/>
      <point x="486" y="345"/>
      <point x="385" y="399" type="curve" smooth="yes"/>
      <point x="234" y="483" type="line" smooth="yes"/>
      <point x="198" y="503"/>
      <point x="171" y="522"/>
      <point x="173" y="565" type="curve" smooth="yes"/>
      <point x="175" y="611"/>
      <point x="219" y="613"/>
      <point x="293" y="612" type="curve" smooth="yes"/>
      <point x="383" y="612"/>
      <point x="417" y="611"/>
      <point x="474" y="607" type="curve"/>
      <point x="481" y="691" type="line"/>
      <point x="415" y="698"/>
      <point x="321" y="702"/>
    </contour>
  </outline>
</glyph>
<glyph name="copyright" format="2">
  <advance width="828"/>
  <unicode hex="00A9"/>
  <outline>
    <contour>
      <point x="414" y="703" type="curve" smooth="yes"/>
      <point x="214" y="703"/>
      <point x="54" y="553"/>
      <point x="54" y="345" type="curve" smooth="yes"/>
      <point x="54" y="137"/>
      <point x="214" y="-13"/>
      <point x="414" y="-13" type="curve" smooth="yes"/>
      <point x="615" y="-13"/>
      <point x="774" y="137"/>
      <point x="774" y="345" type="curve" smooth="yes"/>
      <point x="774" y="553"/>
      <point x="615" y="703"/>
    </contour>
    <contour>
      <point x="419" y="563" type="curve" smooth="yes"/>
      <point x="276" y="563"/>
      <point x="224" y="505"/>
      <point x="224" y="347" type="curve" smooth="yes"/>
      <point x="224" y="188"/>
      <point x="276" y="131"/>
      <point x="419" y="131" type="curve" smooth="yes"/>
      <point x="484" y="131"/>
      <point x="523" y="136"/>
      <point x="564" y="147" type="curve"/>
      <point x="557" y="208" type="line"/>
      <point x="516" y="204"/>
      <point x="479" y="203"/>
      <point x="418" y="203" type="curve" smooth="yes"/>
      <point x="333" y="203"/>
      <point x="307" y="237"/>
      <point x="307" y="347" type="curve" smooth="yes"/>
      <point x="307" y="457"/>
      <point x="333" y="491"/>
      <point x="418" y="491" type="curve" smooth="yes"/>
      <point x="475" y="491"/>
      <point x="503" y="490"/>
      <point x="546" y="488" type="curve"/>
      <point x="554" y="549" type="line"/>
      <point x="514" y="559"/>
      <point x="482" y="563"/>
    </contour>
    <contour>
      <point x="414" y="648" type="curve" smooth="yes"/>
      <point x="581" y="648"/>
      <point x="717" y="520"/>
      <point x="717" y="345" type="curve" smooth="yes"/>
      <point x="717" y="170"/>
      <point x="581" y="42"/>
      <point x="414" y="42" type="curve" smooth="yes"/>
      <point x="248" y="42"/>
      <point x="111" y="170"/>
      <point x="111" y="345" type="curve" smooth="yes"/>
      <point x="111" y="520"/>
      <point x="248" y="648"/>
    </contour>
  </outline>
</glyph>
<glyph name="logicalnot" format="2">
  <advance width="589"/>
  <unicode hex="00AC"/>
  <outline>
    <contour>
      <point x="515" y="338" type="line"/>
      <point x="69" y="338" type="line"/>
      <point x="69" y="258" type="line"/>
      <point x="515" y="258" type="line"/>
    </contour>
    <contour>
      <point x="515" y="331" type="line"/>
      <point x="434" y="331" type="line"/>
      <point x="434" y="133" type="line"/>
      <point x="515" y="133" type="line"/>
    </contour>
  </outline>
</glyph>
<glyph name="registered" format="2">
  <advance width="543"/>
  <unicode hex="00AE"/>
  <outline>
    <contour>
      <point x="272" y="702" type="curve" smooth="yes"/>
      <point x="148" y="702"/>
      <point x="49" y="603"/>
      <point x="49" y="480" type="curve" smooth="yes"/>
      <point x="49" y="356"/>
      <point x="148" y="257"/>
      <point x="272" y="257" type="curve" smooth="yes"/>
      <point x="395" y="257"/>
      <point x="494" y="356"/>
      <point x="494" y="480" type="curve" smooth="yes"/>
      <point x="494" y="603"/>
      <point x="395" y="702"/>
    </contour>
    <contour>
      <point x="220" y="606" type="line"/>
      <point x="172" y="606" type="line"/>
      <point x="172" y="357" type="line"/>
      <point x="220" y="357" type="line"/>
    </contour>
    <contour>
      <point x="272" y="668" type="curve" smooth="yes"/>
      <point x="374" y="668"/>
      <point x="458" y="584"/>
      <point x="458" y="480" type="curve" smooth="yes"/>
      <point x="458" y="376"/>
      <point x="374" y="292"/>
      <point x="272" y="292" type="curve" smooth="yes"/>
      <point x="169" y="292"/>
      <point x="85" y="376"/>
      <point x="85" y="480" type="curve" smooth="yes"/>
      <point x="85" y="584"/>
      <point x="169" y="668"/>
    </contour>
    <contour>
      <point x="280" y="609" type="curve" smooth="yes"/>
      <point x="229" y="609"/>
      <point x="206" y="609"/>
      <point x="172" y="606" type="curve"/>
      <point x="179" y="571" type="line"/>
      <point x="192" y="572"/>
      <point x="230" y="572"/>
      <point x="279" y="572" type="curve" smooth="yes"/>
      <point x="321" y="572"/>
      <point x="335" y="565"/>
      <point x="334" y="532" type="curve" smooth="yes"/>
      <point x="335" y="502"/>
      <point x="321" y="493"/>
      <point x="279" y="492" type="curve" smooth="yes"/>
      <point x="178" y="492" type="line"/>
      <point x="177" y="458" type="line"/>
      <point x="195" y="457"/>
      <point x="223" y="457"/>
      <point x="280" y="457" type="curve" smooth="yes"/>
      <point x="299" y="457"/>
      <point x="310" y="451"/>
      <point x="317" y="433" type="curve" smooth="yes"/>
      <point x="342" y="357" type="line"/>
      <point x="393" y="357" type="line"/>
      <point x="365" y="435" type="line" smooth="yes"/>
      <point x="358" y="461"/>
      <point x="342" y="471"/>
      <point x="326" y="473" type="curve"/>
      <point x="326" y="475" type="line"/>
      <point x="368" y="480"/>
      <point x="383" y="501"/>
      <point x="383" y="537" type="curve" smooth="yes"/>
      <point x="383" y="593"/>
      <point x="353" y="609"/>
    </contour>
  </outline>
</glyph>
<glyph name="degree" format="2">
  <advance width="356"/>
  <unicode hex="00B0"/>
  <outline>
    <contour>
      <point x="178" y="703" type="curve" smooth="yes"/>
      <point x="105" y="703"/>
      <point x="46" y="645"/>
      <point x="46" y="575" type="curve" smooth="yes"/>
      <point x="46" y="504"/>
      <point x="106" y="445"/>
      <point x="178" y="445" type="curve" smooth="yes"/>
      <point x="250" y="445"/>
      <point x="310" y="504"/>
      <point x="310" y="575" type="curve" smooth="yes"/>
      <point x="310" y="646"/>
      <point x="249" y="703"/>
    </contour>
    <contour>
      <point x="178" y="639" type="curve" smooth="yes"/>
      <point x="214" y="639"/>
      <point x="243" y="614"/>
      <point x="243" y="575" type="curve" smooth="yes"/>
      <point x="243" y="536"/>
      <point x="213" y="509"/>
      <point x="178" y="509" type="curve" smooth="yes"/>
      <point x="142" y="509"/>
      <point x="113" y="536"/>
      <point x="113" y="575" type="curve" smooth="yes"/>
      <point x="113" y="614"/>
      <point x="142" y="639"/>
    </contour>
  </outline>
</glyph>
<glyph name="acute" format="2">
  <advance width="328"/>
  <unicode hex="00B4"/>
  <anchor x="125" y="540.132" name="_top"/>
  <outline>
    <contour>
      <point x="226" y="739" type="line"/>
      <point x="45" y="592" type="line"/>
      <point x="80" y="543" type="line"/>
      <point x="286" y="656" type="line"/>
    </contour>
  </outline>
</glyph>
<glyph name="micro" format="2">
  <advance width="579"/>
  <unicode hex="00B5"/>
  <outline>
    <contour>
      <point x="179" y="489" type="line"/>
      <point x="72" y="489" type="line"/>
      <point x="72" y="138" type="line"/>
      <point x="72" y="37"/>
      <point x="144" y="-12"/>
      <point x="229" y="-12" type="curve" smooth="yes"/>
      <point x="315" y="-12"/>
      <point x="368" y="40"/>
      <point x="396" y="87" type="curve"/>
      <point x="393" y="284" type="line"/>
      <point x="392" y="177"/>
      <point x="331" y="86"/>
      <point x="248" y="86" type="curve" smooth="yes"/>
      <point x="202" y="86"/>
      <point x="179" y="99"/>
      <point x="179" y="166" type="curve" smooth="yes"/>
    </contour>
    <contour>
      <point x="178" y="85" type="line"/>
      <point x="72" y="199" type="line"/>
      <point x="72" y="-197" type="line"/>
      <point x="165" y="-197" type="line"/>
      <point x="177" y="-65" type="line"/>
    </contour>
    <contour>
      <point x="501" y="489" type="line"/>
      <point x="393" y="489" type="line"/>
      <point x="393" y="103" type="line"/>
      <point x="396" y="87" type="line"/>
      <point x="396" y="75" type="line" smooth="yes"/>
      <point x="396" y="12"/>
      <point x="429" y="-11"/>
      <point x="476" y="-11" type="curve" smooth="yes"/>
      <point x="502" y="-11"/>
      <point x="532" y="-5"/>
      <point x="563" y="5" type="curve"/>
      <point x="556" y="70" type="line"/>
      <point x="526" y="70" type="line" smooth="yes"/>
      <point x="505" y="70"/>
      <point x="501" y="83"/>
      <point x="501" y="115" type="curve" smooth="yes"/>
    </contour>
  </outline>
</glyph>
<glyph name="ordmasculine" format="2">
  <advance width="442"/>
  <unicode hex="00BA"/>
  <outline>
    <contour>
      <point x="221" y="610" type="curve" smooth="yes"/>
      <point x="97" y="610"/>
      <point x="53" y="564"/>
      <point x="53" y="437" type="curve" smooth="yes"/>
      <point x="53" y="311"/>
      <point x="97" y="265"/>
      <point x="221" y="265" type="curve" smooth="yes"/>
      <point x="345" y="265"/>
      <point x="389" y="311"/>
      <point x="389" y="437" type="curve" smooth="yes"/>
      <point x="389" y="564"/>
      <point x="345" y="610"/>
    </contour>
    <contour>
      <point x="221" y="544" type="curve" smooth="yes"/>
      <point x="285" y="544"/>
      <point x="305" y="521"/>
      <point x="305" y="437" type="curve" smooth="yes"/>
      <point x="305" y="354"/>
      <point x="285" y="331"/>
      <point x="221" y="331" type="curve" smooth="yes"/>
      <point x="157" y="331"/>
      <point x="137" y="354"/>
      <point x="136" y="437" type="curve" smooth="yes"/>
      <point x="137" y="521"/>
      <point x="157" y="544"/>
    </contour>
  </outline>
</glyph>
<glyph name="AE" format="2">
  <advance width="916"/>
  <unicode hex="00C6"/>
  <anchor x="565" y="722" name="top"/>
  <outline>
    <contour>
      <point x="564" y="691" type="curve" smooth="yes"/>
      <point x="422" y="691"/>
      <point x="365" y="664"/>
      <point x="317" y="573" type="curve" smooth="yes"/>
      <point x="-6" y="0" type="line"/>
      <point x="110" y="0" type="line"/>
      <point x="415" y="558" type="line" smooth="yes"/>
      <point x="431" y="585"/>
      <point x="450" y="607"/>
      <point x="466" y="617" type="curve"/>
      <point x="475" y="617" type="line"/>
      <point x="460" y="604"/>
      <point x="447" y="574"/>
      <point x="447" y="547" type="curve" smooth="yes"/>
      <point x="447" y="125" type="line" smooth="yes"/>
      <point x="447" y="51"/>
      <point x="495" y="-2"/>
      <point x="567" y="-2" type="curve" smooth="yes"/>
      <point x="668" y="-2"/>
      <point x="772" y="-2"/>
      <point x="868" y="6" type="curve"/>
      <point x="863" y="93" type="line"/>
      <point x="613" y="93" type="line" smooth="yes"/>
      <point x="567" y="93"/>
      <point x="551" y="109"/>
      <point x="551" y="155" type="curve" smooth="yes"/>
      <point x="551" y="531" type="line" smooth="yes"/>
      <point x="551" y="571"/>
      <point x="576" y="596"/>
      <point x="613" y="596" type="curve" smooth="yes"/>
      <point x="863" y="596" type="line"/>
      <point x="868" y="684" type="line"/>
      <point x="774" y="690"/>
      <point x="688" y="691"/>
    </contour>
    <contour>
      <point x="475" y="300" type="line"/>
      <point x="173" y="300" type="line"/>
      <point x="166" y="208" type="line"/>
      <point x="475" y="208" type="line"/>
    </contour>
    <contour>
      <point x="459" y="408" type="line"/>
      <point x="459" y="317" type="line"/>
      <point x="825" y="317" type="line"/>
      <point x="825" y="408" type="line"/>
    </contour>
  </outline>
</glyph>
<glyph name="germandbls" format="2">
  <advance width="684"/>
  <unicode hex="00DF"/>
  <outline>
    <contour>
      <point x="346" y="725" type="curve" smooth="yes"/>
      <point x="195" y="725"/>
      <point x="113" y="698"/>
      <point x="113" y="547" type="curve" smooth="yes"/>
      <point x="113" y="0" type="line"/>
      <point x="221" y="0" type="line"/>
      <point x="221" y="535" type="line" smooth="yes"/>
      <point x="221" y="617"/>
      <point x="249" y="637"/>
      <point x="351" y="637" type="curve" smooth="yes"/>
      <point x="463" y="637"/>
      <point x="477" y="613"/>
      <point x="477" y="581" type="curve" smooth="yes"/>
      <point x="477" y="548"/>
      <point x="462" y="530"/>
      <point x="419" y="500" type="curve" smooth="yes"/>
      <point x="363" y="462"/>
      <point x="308" y="437"/>
      <point x="308" y="365" type="curve" smooth="yes"/>
      <point x="308" y="312"/>
      <point x="338" y="275"/>
      <point x="387" y="250" type="curve" smooth="yes"/>
      <point x="484" y="200" type="line" smooth="yes"/>
      <point x="528" y="177"/>
      <point x="547" y="169"/>
      <point x="547" y="133" type="curve" smooth="yes"/>
      <point x="547" y="82"/>
      <point x="520" y="77"/>
      <point x="446" y="77" type="curve" smooth="yes"/>
      <point x="413" y="77"/>
      <point x="364" y="78"/>
      <point x="317" y="81" type="curve"/>
      <point x="310" y="0" type="line"/>
      <point x="372" y="-8"/>
      <point x="428" y="-11"/>
      <point x="469" y="-11" type="curve" smooth="yes"/>
      <point x="593" y="-11"/>
      <point x="652" y="16"/>
      <point x="652" y="128" type="curve" smooth="yes"/>
      <point x="652" y="199"/>
      <point x="629" y="229"/>
      <point x="568" y="260" type="curve" smooth="yes"/>
      <point x="474" y="308" type="line" smooth="yes"/>
      <point x="433" y="329"/>
      <point x="410" y="339"/>
      <point x="410" y="368" type="curve" smooth="yes"/>
      <point x="410" y="406"/>
      <point x="443" y="414"/>
      <point x="497" y="453" type="curve" smooth="yes"/>
      <point x="568" y="502"/>
      <point x="578" y="541"/>
      <point x="578" y="584" type="curve" smooth="yes"/>
      <point x="578" y="691"/>
      <point x="518" y="725"/>
    </contour>
    <contour>
      <point x="168" y="489" type="line"/>
      <point x="117" y="489" type="line"/>
      <point x="25" y="489" type="line"/>
      <point x="25" y="405" type="line"/>
      <point x="168" y="405" type="line"/>
    </contour>
  </outline>
</glyph>
<glyph name="oslash" format="2">
  <advance width="571"/>
  <unicode hex="00F8"/>
  <anchor x="283" y="-12" name="bottom"/>
  <anchor x="288" y="547" name="top"/>
  <outline>
    <contour>
      <point x="405" y="568" type="line"/>
      <point x="114" y="-58" type="line"/>
      <point x="161" y="-80" type="line"/>
      <point x="452" y="545" type="line"/>
    </contour>
    <component base="o"/>
  </outline>
</glyph>
<glyph name="Hbar" format="2">
  <advance width="680"/>
  <unicode hex="0126"/>
  <outline>
    <contour>
      <point x="661" y="574" type="line"/>
      <point x="18" y="574" type="line"/>
      <point x="18" y="517" type="line"/>
      <point x="661" y="517" type="line"/>
    </contour>
    <component base="H" xOffset="4"/>
  </outline>
</glyph>
<glyph name="hbar" format="2">
  <advance width="589"/>
  <unicode hex="0127"/>
  <outline>
    <contour>
      <point x="322" y="627" type="line"/>
      <point x="4" y="627" type="line"/>
      <point x="4" y="567" type="line"/>
      <point x="322" y="567" type="line"/>
    </contour>
    <component base="h" xOffset="4"/>
  </outline>
</glyph>
<glyph name="idotless" format="2">
  <advance width="260"/>
  <unicode hex="0131"/>
  <anchor x="131" y="-12" name="bottom"/>
  <anchor x="175" y="0" name="ogonek"/>
  <anchor x="131" y="553" name="top"/>
  <outline>
    <contour>
      <point x="184" y="489" type="line"/>
      <point x="76" y="489" type="line"/>
      <point x="76" y="0" type="line"/>
      <point x="184" y="0" type="line"/>
    </contour>
  </outline>
</glyph>
<glyph name="kgreenlandic" format="2">
  <advance width="523"/>
  <unicode hex="0138"/>
  <outline>
    <contour>
      <point x="495" y="489" type="line"/>
      <point x="371" y="489" type="line"/>
      <point x="204" y="250" type="line"/>
      <point x="387" y="0" type="line"/>
      <point x="511" y="0" type="line"/>
      <point x="351" y="211" type="line" smooth="yes"/>
      <point x="339" y="227"/>
      <point x="323" y="248"/>
      <point x="313" y="255" type="curve"/>
      <point x="313" y="257" type="line"/>
      <point x="323" y="264"/>
      <point x="341" y="281"/>
      <point x="351" y="295" type="curve" smooth="yes"/>
    </contour>
    <contour>
      <point x="180" y="489" type="line"/>
      <point x="72" y="489" type="line"/>
      <point x="72" y="0" type="line"/>
      <point x="180" y="0" type="line"/>
      <point x="180" y="132" type="line" smooth="yes"/>
      <point x="180" y="167"/>
      <point x="175" y="208"/>
      <point x="169" y="247" type="curve"/>
      <point x="177" y="287"/>
      <point x="181" y="324"/>
      <point x="181" y="367" type="curve" smooth="yes"/>
    </contour>
    <contour>
      <point x="257" y="283" type="line"/>
      <point x="144" y="283" type="line"/>
      <point x="144" y="207" type="line"/>
      <point x="257" y="207" type="line"/>
    </contour>
  </outline>
</glyph>
<glyph name="Lslash" format="2">
  <advance width="523"/>
  <unicode hex="0141"/>
  <outline>
    <contour>
      <point x="308" y="485" type="line"/>
      <point x="18" y="366" type="line"/>
      <point x="18" y="299" type="line"/>
      <point x="308" y="418" type="line"/>
    </contour>
    <component base="L" xOffset="7"/>
  </outline>
</glyph>
<glyph name="oe" format="2">
  <advance width="902"/>
  <unicode hex="0153"/>
  <anchor x="473" y="547" name="top"/>
  <outline>
    <contour>
      <point x="286" y="-13" type="curve" smooth="yes"/>
      <point x="458" y="-13"/>
      <point x="522" y="57"/>
      <point x="522" y="244" type="curve" smooth="yes"/>
      <point x="522" y="431"/>
      <point x="458" y="502"/>
      <point x="286" y="502" type="curve" smooth="yes"/>
      <point x="114" y="502"/>
      <point x="49" y="431"/>
      <point x="49" y="244" type="curve" smooth="yes"/>
      <point x="49" y="57"/>
      <point x="114" y="-13"/>
    </contour>
    <contour>
      <point x="286" y="77" type="curve" smooth="yes"/>
      <point x="190" y="77"/>
      <point x="162" y="114"/>
      <point x="162" y="244" type="curve" smooth="yes"/>
      <point x="162" y="375"/>
      <point x="190" y="412"/>
      <point x="286" y="412" type="curve" smooth="yes"/>
      <point x="381" y="412"/>
      <point x="410" y="375"/>
      <point x="410" y="244" type="curve" smooth="yes"/>
      <point x="410" y="114"/>
      <point x="381" y="77"/>
    </contour>
    <contour>
      <point x="648" y="-12" type="curve" smooth="yes"/>
      <point x="706" y="-12"/>
      <point x="794" y="-4"/>
      <point x="844" y="19" type="curve"/>
      <point x="834" y="90" type="line"/>
      <point x="779" y="83"/>
      <point x="709" y="78"/>
      <point x="664" y="78" type="curve" smooth="yes"/>
      <point x="557" y="78"/>
      <point x="521" y="102"/>
      <point x="521" y="253" type="curve" smooth="yes"/>
      <point x="521" y="376"/>
      <point x="548" y="412"/>
      <point x="635" y="412" type="curve" smooth="yes"/>
      <point x="714" y="412"/>
      <point x="745" y="391"/>
      <point x="749" y="348" type="curve" smooth="yes"/>
      <point x="752" y="295"/>
      <point x="737" y="277"/>
      <point x="695" y="277" type="curve" smooth="yes"/>
      <point x="448" y="277" type="line"/>
      <point x="448" y="198" type="line"/>
      <point x="702" y="198" type="line" smooth="yes"/>
      <point x="812" y="198"/>
      <point x="857" y="231"/>
      <point x="857" y="347" type="curve" smooth="yes"/>
      <point x="857" y="440"/>
      <point x="794" y="502"/>
      <point x="632" y="502" type="curve" smooth="yes"/>
      <point x="472" y="502"/>
      <point x="409" y="434"/>
      <point x="409" y="249" type="curve" smooth="yes"/>
      <point x="409" y="57"/>
      <point x="473" y="-12"/>
    </contour>
  </outline>
</glyph>
<glyph name="Tbar" format="2">
  <advance width="587"/>
  <unicode hex="0166"/>
  <outline>
    <contour>
      <point x="485" y="399" type="line"/>
      <point x="101" y="399" type="line"/>
      <point x="101" y="339" type="line"/>
      <point x="485" y="339" type="line"/>
    </contour>
    <component base="T"/>
  </outline>
</glyph>
<glyph name="Schwa" format="2">
  <advance width="637"/>
  <unicode hex="018F"/>
  <outline>
    <contour>
      <point x="318" y="-12" type="curve" smooth="yes"/>
      <point x="522" y="-12"/>
      <point x="581" y="92"/>
      <point x="581" y="344" type="curve" smooth="yes"/>
      <point x="581" y="601"/>
      <point x="528" y="703"/>
      <point x="293" y="703" type="curve" smooth="yes"/>
      <point x="213" y="703"/>
      <point x="136" y="692"/>
      <point x="67" y="665" type="curve"/>
      <point x="81" y="588" type="line"/>
      <point x="157" y="599"/>
      <point x="218" y="604"/>
      <point x="286" y="604" type="curve" smooth="yes"/>
      <point x="430" y="604"/>
      <point x="464" y="545"/>
      <point x="464" y="336" type="curve" smooth="yes"/>
      <point x="464" y="170"/>
      <point x="431" y="87"/>
      <point x="310" y="87" type="curve" smooth="yes"/>
      <point x="197" y="87"/>
      <point x="167" y="136"/>
      <point x="167" y="215" type="curve" smooth="yes"/>
      <point x="167" y="250"/>
      <point x="180" y="298"/>
      <point x="233" y="298" type="curve" smooth="yes"/>
      <point x="547" y="298" type="line"/>
      <point x="547" y="399" type="line"/>
      <point x="223" y="399" type="line" smooth="yes"/>
      <point x="110" y="399"/>
      <point x="50" y="338"/>
      <point x="50" y="217" type="curve" smooth="yes"/>
      <point x="50" y="81"/>
      <point x="119" y="-12"/>
    </contour>
  </outline>
</glyph>
<glyph name="ohorn" format="2">
  <advance width="587"/>
  <unicode hex="01A1"/>
  <anchor x="283" y="-12" name="bottom"/>
  <anchor x="286" y="547" name="top"/>
  <outline>
    <contour>
      <point x="286" y="502" type="curve" smooth="yes"/>
      <point x="114" y="502"/>
      <point x="49" y="431"/>
      <point x="49" y="244" type="curve" smooth="yes"/>
      <point x="49" y="57"/>
      <point x="114" y="-13"/>
      <point x="286" y="-13" type="curve" smooth="yes"/>
      <point x="458" y="-13"/>
      <point x="522" y="57"/>
      <point x="522" y="244" type="curve" smooth="yes"/>
      <point x="522" y="431"/>
      <point x="458" y="502"/>
    </contour>
    <contour>
      <point x="286" y="412" type="curve" smooth="yes"/>
      <point x="381" y="412"/>
      <point x="410" y="375"/>
      <point x="410" y="244" type="curve" smooth="yes"/>
      <point x="410" y="114"/>
      <point x="381" y="77"/>
      <point x="286" y="77" type="curve" smooth="yes"/>
      <point x="190" y="77"/>
      <point x="162" y="114"/>
      <point x="162" y="244" type="curve" smooth="yes"/>
      <point x="162" y="375"/>
      <point x="190" y="412"/>
    </contour>
    <component base="horncomb" xOffset="693" yOffset="3"/>
  </outline>
</glyph>
<glyph name="Aringacute" format="2">
  <advance width="629"/>
  <unicode hex="01FA"/>
  <outline>
    <contour>
      <point x="370" y="630" type="curve" smooth="yes"/>
      <point x="259" y="630" type="line" smooth="yes"/>
      <point x="240" y="630"/>
      <point x="226" y="619"/>
      <point x="219" y="600" type="curve" smooth="yes"/>
      <point x="7" y="0" type="line"/>
      <point x="121" y="0" type="line"/>
      <point x="285" y="489" type="line" smooth="yes"/>
      <point x="291" y="507"/>
      <point x="296" y="527"/>
      <point x="301" y="545" type="curve"/>
      <point x="328" y="545" type="line"/>
      <point x="332" y="527"/>
      <point x="338" y="507"/>
      <point x="344" y="489" type="curve" smooth="yes"/>
      <point x="508" y="0" type="line"/>
      <point x="622" y="0" type="line"/>
      <point x="410" y="600" type="line" smooth="yes"/>
      <point x="403" y="619"/>
      <point x="389" y="630"/>
    </contour>
    <contour>
      <point x="489" y="265" type="line"/>
      <point x="139" y="265" type="line"/>
      <point x="139" y="169" type="line"/>
      <point x="489" y="169" type="line"/>
    </contour>
    <contour>
      <point x="366" y="1046" type="line"/>
      <point x="217" y="921" type="line"/>
      <point x="249" y="875" type="line"/>
      <point x="423" y="967" type="line"/>
    </contour>
    <component base="ring" xOffset="163" yOffset="115"/>
  </outline>
</glyph>
<glyph name="schwa" format="2">
  <advance width="541"/>
  <unicode hex="0259"/>
  <outline>
    <contour>
      <point x="262" y="-12" type="curve" smooth="yes"/>
      <point x="422" y="-12"/>
      <point x="492" y="50"/>
      <point x="492" y="244" type="curve" smooth="yes"/>
      <point x="492" y="433"/>
      <point x="426" y="502"/>
      <point x="253" y="502" type="curve" smooth="yes"/>
      <point x="195" y="502"/>
      <point x="107" y="494"/>
      <point x="57" y="471" type="curve"/>
      <point x="67" y="400" type="line"/>
      <point x="122" y="407"/>
      <point x="191" y="412"/>
      <point x="239" y="412" type="curve" smooth="yes"/>
      <point x="343" y="412"/>
      <point x="380" y="388"/>
      <point x="380" y="238" type="curve" smooth="yes"/>
      <point x="380" y="110"/>
      <point x="353" y="78"/>
      <point x="257" y="78" type="curve" smooth="yes"/>
      <point x="177" y="78"/>
      <point x="153" y="100"/>
      <point x="153" y="155" type="curve" smooth="yes"/>
      <point x="153" y="180"/>
      <point x="158" y="215"/>
      <point x="196" y="215" type="curve" smooth="yes"/>
      <point x="453" y="215" type="line"/>
      <point x="453" y="297" type="line"/>
      <point x="166" y="297" type="line" smooth="yes"/>
      <point x="84" y="297"/>
      <point x="45" y="244"/>
      <point x="45" y="156" type="curve" smooth="yes"/>
      <point x="45" y="46"/>
      <point x="107" y="-12"/>
    </contour>
  </outline>
</glyph>
<glyph name="ringhalfleft" format="2">
  <advance width="182"/>
  <unicode hex="02BF"/>
  <anchor x="97" y="547" name="_top"/>
  <outline>
    <contour>
      <point x="152" y="702" type="curve"/>
      <point x="152" y="755" type="line"/>
      <point x="91" y="755"/>
      <point x="41" y="708"/>
      <point x="41" y="646" type="curve" smooth="yes"/>
      <point x="41" y="584"/>
      <point x="90" y="538"/>
      <point x="152" y="538" type="curve"/>
      <point x="152" y="591" type="line"/>
      <point x="122" y="591"/>
      <point x="98" y="611"/>
      <point x="98" y="646" type="curve" smooth="yes"/>
      <point x="98" y="681"/>
      <point x="121" y="702"/>
    </contour>
  </outline>
</glyph>
<glyph name="circumflex" format="2">
  <advance width="430.026"/>
  <unicode hex="02C6"/>
  <anchor x="216.237" y="545.658" name="_top"/>
  <outline>
    <contour>
      <point x="255" y="716" type="line"/>
      <point x="177" y="716" type="line"/>
      <point x="47" y="585" type="line"/>
      <point x="82" y="539" type="line"/>
      <point x="212" y="635" type="line"/>
      <point x="220" y="635" type="line"/>
      <point x="349" y="539" type="line"/>
      <point x="386" y="585" type="line"/>
    </contour>
  </outline>
</glyph>
<glyph name="firsttonechinese" format="2">
  <advance width="400"/>
  <unicode hex="02C9"/>
  <anchor x="200" y="556" name="_top"/>
  <outline>
    <contour>
      <point x="343" y="681" type="line"/>
      <point x="57" y="681" type="line"/>
      <point x="57" y="603" type="line"/>
      <point x="343" y="603" type="line"/>
    </contour>
  </outline>
</glyph>
<glyph name="secondtonechinese" format="2">
  <advance width="328"/>
  <unicode hex="02CA"/>
  <anchor x="125" y="540" name="_top"/>
  <outline>
    <contour>
      <point x="226" y="739" type="line"/>
      <point x="45" y="592" type="line"/>
      <point x="80" y="543" type="line"/>
      <point x="286" y="656" type="line"/>
    </contour>
  </outline>
</glyph>
<glyph name="dotaccent" format="2">
  <advance width="226.132"/>
  <unicode hex="02D9"/>
  <anchor x="113" y="551" name="_top"/>
  <outline>
    <contour>
      <point x="130" y="689" type="curve" smooth="yes"/>
      <point x="96" y="689" type="line" smooth="yes"/>
      <point x="76" y="689"/>
      <point x="65" y="678"/>
      <point x="65" y="658" type="curve" smooth="yes"/>
      <point x="65" y="603" type="line" smooth="yes"/>
      <point x="65" y="583"/>
      <point x="76" y="572"/>
      <point x="96" y="572" type="curve" smooth="yes"/>
      <point x="130" y="572" type="line" smooth="yes"/>
      <point x="150" y="572"/>
      <point x="161" y="583"/>
      <point x="161" y="603" type="curve" smooth="yes"/>
      <point x="161" y="658" type="line" smooth="yes"/>
      <point x="161" y="678"/>
      <point x="150" y="689"/>
    </contour>
  </outline>
</glyph>
<glyph name="ring" format="2">
  <advance width="303.632"/>
  <unicode hex="02DA"/>
  <anchor x="151.816" y="547" name="_top"/>
  <outline>
    <contour>
      <point x="152" y="755" type="curve" smooth="yes"/>
      <point x="91" y="755"/>
      <point x="41" y="708"/>
      <point x="41" y="646" type="curve" smooth="yes"/>
      <point x="41" y="584"/>
      <point x="90" y="538"/>
      <point x="152" y="538" type="curve" smooth="yes"/>
      <point x="213" y="538"/>
      <point x="263" y="584"/>
      <point x="263" y="646" type="curve" smooth="yes"/>
      <point x="263" y="708"/>
      <point x="212" y="755"/>
    </contour>
    <contour>
      <point x="152" y="702" type="curve" smooth="yes"/>
      <point x="182" y="702"/>
      <point x="206" y="681"/>
      <point x="206" y="646" type="curve" smooth="yes"/>
      <point x="206" y="611"/>
      <point x="182" y="591"/>
      <point x="152" y="591" type="curve" smooth="yes"/>
      <point x="122" y="591"/>
      <point x="98" y="611"/>
      <point x="98" y="646" type="curve" smooth="yes"/>
      <point x="98" y="681"/>
      <point x="121" y="702"/>
    </contour>
  </outline>
</glyph>
<glyph name="ogonek" format="2">
  <advance width="251.658"/>
  <unicode hex="02DB"/>
  <anchor x="188.605" y="0" name="_ogonek"/>
  <outline>
    <contour>
      <point x="142.868" y="2" type="line"/>
      <point x="85.29" y="-41"/>
      <point x="56.711" y="-82"/>
      <point x="45.605" y="-115" type="curve" smooth="yes"/>
      <point x="20" y="-185"/>
      <point x="71" y="-247"/>
      <point x="205" y="-193" type="curve"/>
      <point x="192" y="-149" type="line"/>
      <point x="134" y="-167"/>
      <point x="100" y="-154"/>
      <point x="119.5" y="-109" type="curve" smooth="yes"/>
      <point x="136.605" y="-66"/>
      <point x="161.553" y="-33"/>
      <point x="188.605" y="0" type="curve"/>
    </contour>
  </outline>
</glyph>
<glyph name="tilde" format="2">
  <advance width="427"/>
  <unicode hex="02DC"/>
  <anchor x="214" y="551" name="_top"/>
  <outline>
    <contour>
      <point x="130" y="704" type="curve" smooth="yes"/>
      <point x="80" y="708"/>
      <point x="40" y="667"/>
      <point x="51" y="580" type="curve"/>
      <point x="99" y="580" type="line"/>
      <point x="99" y="617"/>
      <point x="107" y="634"/>
      <point x="143" y="630" type="curve" smooth="yes"/>
      <point x="191" y="625"/>
      <point x="229" y="582"/>
      <point x="297" y="577" type="curve" smooth="yes"/>
      <point x="351" y="573"/>
      <point x="387" y="617"/>
      <point x="376" y="699" type="curve"/>
      <point x="328" y="699" type="line"/>
      <point x="328" y="664"/>
      <point x="319" y="648"/>
      <point x="283" y="653" type="curve" smooth="yes"/>
      <point x="227" y="661"/>
      <point x="193" y="699"/>
    </contour>
  </outline>
</glyph>
<glyph name="hungarumlaut" format="2">
  <advance width="471.289"/>
  <unicode hex="02DD"/>
  <anchor x="198" y="540" name="_top"/>
  <outline>
    <contour>
      <point x="153" y="751" type="line"/>
      <point x="43" y="571" type="line"/>
      <point x="89" y="536" type="line"/>
      <point x="230" y="698" type="line"/>
    </contour>
    <contour>
      <point x="326" y="751" type="line"/>
      <point x="217" y="571" type="line"/>
      <point x="262" y="536" type="line"/>
      <point x="403" y="698" type="line"/>
    </contour>
  </outline>
</glyph>
<glyph name="acutecomb" format="2">
  <unicode hex="0301"/>
  <anchor x="-248" y="540" name="_top"/>
  <outline>
    <contour>
      <point x="-139" y="729" type="line"/>
      <point x="-320" y="582" type="line"/>
      <point x="-285" y="533" type="line"/>
      <point x="-79" y="646" type="line"/>
    </contour>
  </outline>
</glyph>
<glyph name="circumflexcomb" format="2">
  <unicode hex="0302"/>
  <anchor x="-221" y="546" name="_top"/>
  <outline>
    <contour>
      <point x="-182" y="716" type="line"/>
      <point x="-260" y="716" type="line"/>
      <point x="-390" y="585" type="line"/>
      <point x="-355" y="539" type="line"/>
      <point x="-225" y="635" type="line"/>
      <point x="-217" y="635" type="line"/>
      <point x="-88" y="539" type="line"/>
      <point x="-51" y="585" type="line"/>
    </contour>
  </outline>
</glyph>
<glyph name="tildecomb" format="2">
  <unicode hex="0303"/>
  <anchor x="-225" y="551" name="_top"/>
  <outline>
    <contour>
      <point x="-309" y="704" type="curve" smooth="yes"/>
      <point x="-359" y="708"/>
      <point x="-399" y="667"/>
      <point x="-388" y="580" type="curve"/>
      <point x="-340" y="580" type="line"/>
      <point x="-340" y="617"/>
      <point x="-332" y="634"/>
      <point x="-296" y="630" type="curve" smooth="yes"/>
      <point x="-248" y="625"/>
      <point x="-210" y="582"/>
      <point x="-142" y="577" type="curve" smooth="yes"/>
      <point x="-88" y="573"/>
      <point x="-52" y="617"/>
      <point x="-63" y="699" type="curve"/>
      <point x="-111" y="699" type="line"/>
      <point x="-111" y="664"/>
      <point x="-120" y="648"/>
      <point x="-156" y="653" type="curve" smooth="yes"/>
      <point x="-212" y="661"/>
      <point x="-246" y="699"/>
    </contour>
  </outline>
</glyph>
<glyph name="macroncomb" format="2">
  <unicode hex="0304"/>
  <anchor x="-207" y="556" name="_top"/>
  <outline>
    <contour>
      <point x="-64" y="681" type="line"/>
      <point x="-350" y="681" type="line"/>
      <point x="-350" y="603" type="line"/>
      <point x="-64" y="603" type="line"/>
    </contour>
  </outline>
</glyph>
<glyph name="hookabovecomb" format="2">
  <unicode hex="0309"/>
  <anchor x="-151" y="561" name="_top"/>
  <outline>
    <contour>
      <point x="-178" y="622" type="curve"/>
      <point x="-166" y="569" type="line"/>
      <point x="-98" y="581"/>
      <point x="-55" y="626"/>
      <point x="-55" y="686" type="curve" smooth="yes"/>
      <point x="-55" y="766"/>
      <point x="-127" y="802"/>
      <point x="-210" y="775" type="curve"/>
      <point x="-198" y="715" type="line"/>
      <point x="-159" y="729"/>
      <point x="-126" y="717"/>
      <point x="-126" y="683" type="curve" smooth="yes"/>
      <point x="-126" y="653"/>
      <point x="-139" y="633"/>
    </contour>
  </outline>
</glyph>
<glyph name="caroncomb" format="2">
  <unicode hex="030C"/>
  <anchor x="-222" y="546" name="_top"/>
  <outline>
    <contour>
      <point x="-88" y="732" type="line"/>
      <point x="-217" y="650" type="line"/>
      <point x="-225" y="650" type="line"/>
      <point x="-355" y="732" type="line"/>
      <point x="-390" y="686" type="line"/>
      <point x="-245" y="555" type="line"/>
      <point x="-197" y="555" type="line"/>
      <point x="-51" y="686" type="line"/>
    </contour>
  </outline>
</glyph>
<glyph name="dblgravecomb" format="2">
  <unicode hex="030F"/>
  <anchor x="-205" y="540" name="_top"/>
  <outline>
    <contour>
      <point x="-175" y="771" type="line"/>
      <point x="-252" y="718" type="line"/>
      <point x="-111" y="556" type="line"/>
      <point x="-65" y="591" type="line"/>
    </contour>
    <contour>
      <point x="-348" y="771" type="line"/>
      <point x="-425" y="718" type="line"/>
      <point x="-284" y="556" type="line"/>
      <point x="-239" y="591" type="line"/>
    </contour>
  </outline>
</glyph>
<glyph name="breveinvertedcomb" format="2">
  <unicode hex="0311"/>
  <anchor x="-233" y="544" name="_top"/>
  <outline>
    <contour>
      <point x="-336" y="564" type="line"/>
      <point x="-336" y="607"/>
      <point x="-300" y="632"/>
      <point x="-235" y="632" type="curve" smooth="yes"/>
      <point x="-167" y="632"/>
      <point x="-132" y="607"/>
      <point x="-132" y="564" type="curve"/>
      <point x="-79" y="572" type="line"/>
      <point x="-72" y="652"/>
      <point x="-133" y="710"/>
      <point x="-235" y="710" type="curve" smooth="yes"/>
      <point x="-336" y="710"/>
      <point x="-396" y="652"/>
      <point x="-389" y="572" type="curve"/>
    </contour>
  </outline>
</glyph>
<glyph name="commaturnedabovecomb" format="2">
  <unicode hex="0312"/>
  <anchor x="-122" y="540" name="_top"/>
  <outline>
    <contour>
      <point x="-133" y="547" type="curve" smooth="yes"/>
      <point x="-111" y="547" type="line" smooth="yes"/>
      <point x="-91" y="547"/>
      <point x="-82" y="554"/>
      <point x="-82" y="575" type="curve" smooth="yes"/>
      <point x="-82" y="616" type="line" smooth="yes"/>
      <point x="-82" y="631"/>
      <point x="-90" y="640"/>
      <point x="-103" y="640" type="curve"/>
      <point x="-103" y="674"/>
      <point x="-100" y="699"/>
      <point x="-95" y="728" type="curve"/>
      <point x="-131" y="738" type="line"/>
      <point x="-149" y="704"/>
      <point x="-160" y="667"/>
      <point x="-160" y="621" type="curve" smooth="yes"/>
      <point x="-160" y="575" type="line" smooth="yes"/>
      <point x="-160" y="554"/>
      <point x="-154" y="547"/>
    </contour>
  </outline>
</glyph>
<glyph name="horncomb" format="2">
  <unicode hex="031B"/>
  <anchor x="-191" y="561" name="_top"/>
  <outline>
    <contour>
      <point x="-246" y="400" type="line"/>
      <point x="-171" y="399"/>
      <point x="-94" y="457"/>
      <point x="-92" y="540" type="curve"/>
      <point x="-167" y="545" type="line"/>
      <point x="-171" y="495"/>
      <point x="-203" y="458"/>
      <point x="-250" y="452" type="curve"/>
    </contour>
  </outline>
</glyph>
<glyph name="dieresisbelowcomb" format="2">
  <unicode hex="0324"/>
  <anchor x="-216" y="0" name="_bottom"/>
  <outline>
    <contour>
      <point x="-109" y="-49" type="curve" smooth="yes"/>
      <point x="-144" y="-49" type="line" smooth="yes"/>
      <point x="-164" y="-49"/>
      <point x="-173" y="-60"/>
      <point x="-173" y="-78" type="curve" smooth="yes"/>
      <point x="-173" y="-132" type="line" smooth="yes"/>
      <point x="-173" y="-152"/>
      <point x="-164" y="-161"/>
      <point x="-144" y="-161" type="curve" smooth="yes"/>
      <point x="-109" y="-161" type="line" smooth="yes"/>
      <point x="-91" y="-161"/>
      <point x="-80" y="-152"/>
      <point x="-80" y="-132" type="curve" smooth="yes"/>
      <point x="-80" y="-78" type="line" smooth="yes"/>
      <point x="-80" y="-60"/>
      <point x="-91" y="-49"/>
    </contour>
    <contour>
      <point x="-286" y="-49" type="curve" smooth="yes"/>
      <point x="-322" y="-49" type="line" smooth="yes"/>
      <point x="-341" y="-49"/>
      <point x="-350" y="-60"/>
      <point x="-350" y="-78" type="curve" smooth="yes"/>
      <point x="-350" y="-132" type="line" smooth="yes"/>
      <point x="-350" y="-152"/>
      <point x="-341" y="-161"/>
      <point x="-322" y="-161" type="curve" smooth="yes"/>
      <point x="-286" y="-161" type="line" smooth="yes"/>
      <point x="-267" y="-161"/>
      <point x="-258" y="-152"/>
      <point x="-258" y="-132" type="curve" smooth="yes"/>
      <point x="-258" y="-78" type="line" smooth="yes"/>
      <point x="-258" y="-60"/>
      <point x="-267" y="-49"/>
    </contour>
  </outline>
</glyph>
<glyph name="cedillacomb" format="2">
  <unicode hex="0327"/>
  <anchor x="-108" y="0" name="_bottom"/>
  <outline>
    <contour>
      <point x="-156" y="-41" type="curve"/>
      <point x="-167" y="-91" type="line"/>
      <point x="-118" y="-91"/>
      <point x="-107" y="-96"/>
      <point x="-108" y="-115" type="curve" smooth="yes"/>
      <point x="-110" y="-153"/>
      <point x="-145" y="-178"/>
      <point x="-193" y="-177" type="curve"/>
      <point x="-210" y="-233" type="line"/>
      <point x="-111" y="-246"/>
      <point x="-35" y="-197"/>
      <point x="-32" y="-106" type="curve" smooth="yes"/>
      <point x="-30" y="-41"/>
      <point x="-69" y="-32"/>
    </contour>
  </outline>
</glyph>
<glyph name="macronbelowcomb" format="2">
  <unicode hex="0331"/>
  <anchor x="-237" y="0" name="_bottom"/>
  <outline>
    <contour>
      <point x="-94" y="-75" type="line"/>
      <point x="-380" y="-75" type="line"/>
      <point x="-380" y="-153" type="line"/>
      <point x="-94" y="-153" type="line"/>
    </contour>
  </outline>
</glyph>
<glyph name="Omega" format="2">
  <advance width="719"/>
  <unicode hex="03A9"/>
  <outline>
    <contour>
      <point x="360" y="703" type="curve" smooth="yes"/>
      <point x="152" y="703"/>
      <point x="73" y="594"/>
      <point x="73" y="378" type="curve" smooth="yes"/>
      <point x="72" y="240"/>
      <point x="112" y="164"/>
      <point x="211" y="89" type="curve"/>
      <point x="187" y="96"/>
      <point x="166" y="98"/>
      <point x="144" y="98" type="curve" smooth="yes"/>
      <point x="51" y="98" type="line"/>
      <point x="51" y="0" type="line"/>
      <point x="310" y="0" type="line"/>
      <point x="310" y="93" type="line"/>
      <point x="224" y="161"/>
      <point x="188" y="219"/>
      <point x="188" y="361" type="curve" smooth="yes"/>
      <point x="188" y="537"/>
      <point x="232" y="605"/>
      <point x="359" y="605" type="curve" smooth="yes"/>
      <point x="483" y="605"/>
      <point x="530" y="537"/>
      <point x="531" y="363" type="curve" smooth="yes"/>
      <point x="530" y="232"/>
      <point x="500" y="161"/>
      <point x="408" y="93" type="curve"/>
      <point x="409" y="0" type="line"/>
      <point x="668" y="0" type="line"/>
      <point x="667" y="98" type="line"/>
      <point x="574" y="98" type="line" smooth="yes"/>
      <point x="552" y="98"/>
      <point x="532" y="95"/>
      <point x="507" y="89" type="curve"/>
      <point x="606" y="162"/>
      <point x="646" y="235"/>
      <point x="646" y="377" type="curve" smooth="yes"/>
      <point x="646" y="594"/>
      <point x="565" y="703"/>
    </contour>
  </outline>
</glyph>
<glyph name="pi" format="2">
  <advance width="644"/>
  <unicode hex="03C0"/>
  <outline>
    <contour>
      <point x="221" y="489" type="line"/>
      <point x="114" y="489" type="line"/>
      <point x="114" y="0" type="line"/>
      <point x="221" y="0" type="line"/>
    </contour>
    <contour>
      <point x="618" y="489" type="line"/>
      <point x="26" y="489" type="line"/>
      <point x="26" y="403" type="line"/>
      <point x="617" y="403" type="line"/>
    </contour>
    <contour>
      <point x="530" y="489" type="line"/>
      <point x="422" y="489" type="line"/>
      <point x="422" y="0" type="line"/>
      <point x="530" y="0" type="line"/>
    </contour>
  </outline>
</glyph>
<glyph name="Dje-cy" format="2">
  <advance width="754"/>
  <unicode hex="0402"/>
  <outline>
    <contour>
      <point x="457" y="-6" type="line"/>
      <point x="615" y="-12"/>
      <point x="715" y="49"/>
      <point x="715" y="235" type="curve" smooth="yes"/>
      <point x="715" y="415"/>
      <point x="632" y="446"/>
      <point x="541" y="446" type="curve" smooth="yes"/>
      <point x="480" y="446"/>
      <point x="399" y="430"/>
      <point x="325" y="381" type="curve"/>
      <point x="335" y="301" type="line"/>
      <point x="404" y="338"/>
      <point x="456" y="350"/>
      <point x="504" y="350" type="curve" smooth="yes"/>
      <point x="574" y="350"/>
      <point x="604" y="338"/>
      <point x="604" y="224" type="curve" smooth="yes"/>
      <point x="604" y="111"/>
      <point x="555" y="84"/>
      <point x="447" y="75" type="curve"/>
    </contour>
    <contour>
      <point x="237" y="0" type="line"/>
      <point x="349" y="0" type="line"/>
      <point x="349" y="690" type="line"/>
      <point x="237" y="690" type="line"/>
    </contour>
    <contour>
      <point x="23" y="591" type="line"/>
      <point x="564" y="591" type="line"/>
      <point x="564" y="690" type="line"/>
      <point x="23" y="690" type="line"/>
    </contour>
  </outline>
</glyph>
<glyph name="Dze-cy" format="2">
  <advance width="564"/>
  <unicode hex="0405"/>
  <outline>
    <contour>
      <point x="281" y="702" type="curve" smooth="yes"/>
      <point x="122" y="702"/>
      <point x="51" y="678"/>
      <point x="51" y="519" type="curve" smooth="yes"/>
      <point x="51" y="416"/>
      <point x="87" y="351"/>
      <point x="188" y="321" type="curve" smooth="yes"/>
      <point x="327" y="279" type="line" smooth="yes"/>
      <point x="379" y="263"/>
      <point x="404" y="250"/>
      <point x="404" y="181" type="curve" smooth="yes"/>
      <point x="404" y="102"/>
      <point x="377" y="87"/>
      <point x="281" y="87" type="curve" smooth="yes"/>
      <point x="232" y="87"/>
      <point x="200" y="88"/>
      <point x="67" y="91" type="curve"/>
      <point x="60" y="9" type="line"/>
      <point x="157" y="-10"/>
      <point x="236" y="-12"/>
      <point x="278" y="-12" type="curve" smooth="yes"/>
      <point x="449" y="-12"/>
      <point x="517" y="21"/>
      <point x="517" y="179" type="curve" smooth="yes"/>
      <point x="517" y="280"/>
      <point x="485" y="346"/>
      <point x="377" y="378" type="curve" smooth="yes"/>
      <point x="243" y="418" type="line" smooth="yes"/>
      <point x="188" y="434"/>
      <point x="163" y="449"/>
      <point x="163" y="516" type="curve" smooth="yes"/>
      <point x="163" y="599"/>
      <point x="197" y="603"/>
      <point x="286" y="603" type="curve" smooth="yes"/>
      <point x="351" y="603"/>
      <point x="428" y="601"/>
      <point x="485" y="599" type="curve"/>
      <point x="492" y="680" type="line"/>
      <point x="420" y="698"/>
      <point x="346" y="702"/>
    </contour>
  </outline>
</glyph>
<glyph name="Lje-cy" format="2">
  <advance width="972"/>
  <unicode hex="0409"/>
  <outline>
    <contour>
      <point x="555" y="690" type="line"/>
      <point x="334" y="690" type="line" smooth="yes"/>
      <point x="234" y="690"/>
      <point x="183" y="644"/>
      <point x="178" y="551" type="curve" smooth="yes"/>
      <point x="164" y="371"/>
      <point x="160" y="259"/>
      <point x="116" y="167" type="curve" smooth="yes"/>
      <point x="86" y="107"/>
      <point x="54" y="86"/>
      <point x="20" y="74" type="curve"/>
      <point x="29" y="-2" type="line"/>
      <point x="127" y="2"/>
      <point x="179" y="38"/>
      <point x="220" y="136" type="curve" smooth="yes"/>
      <point x="255" y="228"/>
      <point x="264" y="311"/>
      <point x="285" y="534" type="curve" smooth="yes"/>
      <point x="289" y="575"/>
      <point x="302" y="600"/>
      <point x="344" y="600" type="curve" smooth="yes"/>
      <point x="555" y="600" type="line"/>
    </contour>
    <contour>
      <point x="569" y="690" type="line"/>
      <point x="460" y="690" type="line"/>
      <point x="460" y="0" type="line"/>
      <point x="569" y="0" type="line"/>
    </contour>
    <contour>
      <point x="696" y="422" type="curve" smooth="yes"/>
      <point x="472" y="422" type="line"/>
      <point x="472" y="330" type="line"/>
      <point x="696" y="330" type="line" smooth="yes"/>
      <point x="800" y="330"/>
      <point x="818" y="297"/>
      <point x="818" y="208" type="curve" smooth="yes"/>
      <point x="818" y="112"/>
      <point x="797" y="89"/>
      <point x="696" y="89" type="curve" smooth="yes"/>
      <point x="587" y="89"/>
      <point x="503" y="90"/>
      <point x="473" y="92" type="curve"/>
      <point x="459" y="0" type="line"/>
      <point x="538" y="-7"/>
      <point x="596" y="-8"/>
      <point x="714" y="-8" type="curve" smooth="yes"/>
      <point x="868" y="-8"/>
      <point x="930" y="38"/>
      <point x="930" y="206" type="curve" smooth="yes"/>
      <point x="930" y="368"/>
      <point x="872" y="422"/>
    </contour>
  </outline>
</glyph>
<glyph name="Dzhe-cy" format="2">
  <advance width="677"/>
  <unicode hex="040F"/>
  <outline>
    <contour>
      <point x="596" y="690" type="line"/>
      <point x="484" y="690" type="line"/>
      <point x="484" y="0" type="line"/>
      <point x="596" y="0" type="line"/>
    </contour>
    <contour>
      <point x="385" y="7" type="line"/>
      <point x="298" y="7" type="line"/>
      <point x="304" y="-151" type="line"/>
      <point x="380" y="-151" type="line"/>
    </contour>
    <contour>
      <point x="563" y="90" type="line"/>
      <point x="184" y="90" type="line"/>
      <point x="184" y="0" type="line"/>
      <point x="564" y="0" type="line"/>
    </contour>
    <contour>
      <point x="192" y="690" type="line"/>
      <point x="81" y="690" type="line"/>
      <point x="81" y="0" type="line"/>
      <point x="192" y="0" type="line"/>
    </contour>
  </outline>
</glyph>
<glyph name="Be-cy" format="2">
  <advance width="601"/>
  <unicode hex="0411"/>
  <outline>
    <contour>
      <point x="516" y="690" type="line"/>
      <point x="445" y="694"/>
      <point x="373" y="697"/>
      <point x="301" y="697" type="curve" smooth="yes"/>
      <point x="228" y="697"/>
      <point x="155" y="694"/>
      <point x="81" y="690" type="curve"/>
      <point x="81" y="0" type="line"/>
      <point x="192" y="0" type="line"/>
      <point x="193" y="597" type="line"/>
      <point x="507" y="597" type="line"/>
    </contour>
    <contour>
      <point x="321" y="401" type="curve" smooth="yes"/>
      <point x="97" y="401" type="line"/>
      <point x="97" y="315" type="line"/>
      <point x="321" y="315" type="line" smooth="yes"/>
      <point x="425" y="315"/>
      <point x="443" y="286"/>
      <point x="443" y="199" type="curve" smooth="yes"/>
      <point x="443" y="107"/>
      <point x="423" y="86"/>
      <point x="321" y="86" type="curve" smooth="yes"/>
      <point x="211" y="86"/>
      <point x="127" y="87"/>
      <point x="98" y="89" type="curve"/>
      <point x="84" y="0" type="line"/>
      <point x="163" y="-7"/>
      <point x="237" y="-9"/>
      <point x="300" y="-9" type="curve" smooth="yes"/>
      <point x="468" y="-9"/>
      <point x="555" y="5"/>
      <point x="555" y="194" type="curve" smooth="yes"/>
      <point x="555" y="350"/>
      <point x="496" y="401"/>
    </contour>
  </outline>
</glyph>
<glyph name="Ie-cy" format="2">
  <advance width="563"/>
  <unicode hex="0415"/>
  <anchor x="303" y="732" name="top"/>
  <outline>
    <contour>
      <point x="219" y="692" type="curve" smooth="yes"/>
      <point x="130" y="692"/>
      <point x="75" y="644"/>
      <point x="75" y="565" type="curve" smooth="yes"/>
      <point x="75" y="125" type="line" smooth="yes"/>
      <point x="75" y="46"/>
      <point x="129" y="-2"/>
      <point x="219" y="-2" type="curve" smooth="yes"/>
      <point x="318" y="-2"/>
      <point x="425" y="-2"/>
      <point x="515" y="6" type="curve"/>
      <point x="510" y="92" type="line"/>
      <point x="237" y="92" type="line" smooth="yes"/>
      <point x="199" y="92"/>
      <point x="186" y="107"/>
      <point x="186" y="153" type="curve" smooth="yes"/>
      <point x="186" y="536" type="line" smooth="yes"/>
      <point x="186" y="582"/>
      <point x="199" y="597"/>
      <point x="237" y="597" type="curve" smooth="yes"/>
      <point x="510" y="597" type="line"/>
      <point x="515" y="684" type="line"/>
      <point x="425" y="692"/>
      <point x="318" y="692"/>
    </contour>
    <contour>
      <point x="92" y="407" type="line"/>
      <point x="92" y="318" type="line"/>
      <point x="472" y="318" type="line"/>
      <point x="472" y="407" type="line"/>
    </contour>
  </outline>
</glyph>
<glyph name="Zhe-cy" format="2">
  <advance width="919"/>
  <unicode hex="0416"/>
  <anchor x="899" y="0" name="bottomright"/>
  <anchor x="460" y="732" name="top"/>
  <outline>
    <contour>
      <point x="874" y="690" type="curve"/>
      <point x="761" y="690" type="line"/>
      <point x="699" y="516"/>
      <point x="665" y="404"/>
      <point x="567" y="404" type="curve"/>
      <point x="567" y="315" type="line"/>
      <point x="673" y="315"/>
      <point x="699" y="215"/>
      <point x="775" y="0" type="curve"/>
      <point x="892" y="0" type="line"/>
      <point x="815" y="232"/>
      <point x="785" y="344"/>
      <point x="653" y="358" type="curve"/>
      <point x="653" y="362" type="line"/>
      <point x="777" y="376"/>
      <point x="808" y="493"/>
    </contour>
    <contour>
      <point x="158" y="690" type="curve"/>
      <point x="45" y="690" type="line"/>
      <point x="111" y="493"/>
      <point x="141" y="376"/>
      <point x="265" y="362" type="curve"/>
      <point x="265" y="358" type="line"/>
      <point x="134" y="344"/>
      <point x="104" y="232"/>
      <point x="27" y="0" type="curve"/>
      <point x="143" y="0" type="line"/>
      <point x="220" y="215"/>
      <point x="246" y="315"/>
      <point x="351" y="315" type="curve"/>
      <point x="350" y="404" type="line"/>
      <point x="253" y="404"/>
      <point x="219" y="516"/>
    </contour>
    <contour>
      <point x="434" y="404" type="line"/>
      <point x="321" y="404" type="line"/>
      <point x="321" y="315" type="line"/>
      <point x="434" y="315" type="line"/>
    </contour>
    <contour>
      <point x="514" y="690" type="line"/>
      <point x="408" y="690" type="line"/>
      <point x="408" y="482" type="line" smooth="yes"/>
      <point x="408" y="440"/>
      <point x="413" y="401"/>
      <point x="424" y="361" type="curve"/>
      <point x="416" y="322"/>
      <point x="408" y="282"/>
      <point x="408" y="246" type="curve" smooth="yes"/>
      <point x="408" y="0" type="line"/>
      <point x="514" y="0" type="line"/>
      <point x="514" y="246" type="line" smooth="yes"/>
      <point x="514" y="282"/>
      <point x="507" y="322"/>
      <point x="498" y="361" type="curve"/>
      <point x="510" y="401"/>
      <point x="514" y="440"/>
      <point x="514" y="482" type="curve" smooth="yes"/>
    </contour>
    <contour>
      <point x="597" y="404" type="line"/>
      <point x="490" y="404" type="line"/>
      <point x="490" y="315" type="line"/>
      <point x="597" y="315" type="line"/>
    </contour>
  </outline>
</glyph>
<glyph name="Ze-cy" format="2">
  <advance width="552"/>
  <unicode hex="0417"/>
  <anchor x="276" y="0" name="bottom"/>
  <anchor x="259" y="732" name="top"/>
  <outline>
    <contour>
      <point x="249" y="698" type="curve" smooth="yes"/>
      <point x="169" y="698"/>
      <point x="113" y="693"/>
      <point x="51" y="681" type="curve"/>
      <point x="60" y="596" type="line"/>
      <point x="110" y="601"/>
      <point x="168" y="608"/>
      <point x="242" y="608" type="curve" smooth="yes"/>
      <point x="335" y="608"/>
      <point x="367" y="588"/>
      <point x="367" y="504" type="curve" smooth="yes"/>
      <point x="367" y="423"/>
      <point x="338" y="401"/>
      <point x="253" y="401" type="curve" smooth="yes"/>
      <point x="132" y="401" type="line"/>
      <point x="132" y="314" type="line"/>
      <point x="253" y="314" type="line" smooth="yes"/>
      <point x="351" y="314"/>
      <point x="384" y="287"/>
      <point x="384" y="192" type="curve" smooth="yes"/>
      <point x="384" y="103"/>
      <point x="353" y="83"/>
      <point x="259" y="83" type="curve" smooth="yes"/>
      <point x="178" y="83"/>
      <point x="103" y="90"/>
      <point x="43" y="98" type="curve"/>
      <point x="34" y="17" type="line"/>
      <point x="105" y="-1"/>
      <point x="179" y="-8"/>
      <point x="279" y="-8" type="curve" smooth="yes"/>
      <point x="435" y="-8"/>
      <point x="498" y="30"/>
      <point x="498" y="172" type="curve" smooth="yes"/>
      <point x="498" y="282"/>
      <point x="464" y="347"/>
      <point x="362" y="356" type="curve"/>
      <point x="362" y="360" type="line"/>
      <point x="444" y="368"/>
      <point x="478" y="419"/>
      <point x="478" y="518" type="curve" smooth="yes"/>
      <point x="478" y="660"/>
      <point x="418" y="698"/>
    </contour>
  </outline>
</glyph>
<glyph name="Ii-cy" format="2">
  <advance width="696"/>
  <unicode hex="0418"/>
  <anchor x="351" y="732" name="top"/>
  <outline>
    <contour>
      <point x="615" y="690" type="line"/>
      <point x="499" y="690" type="line"/>
      <point x="225" y="215" type="line" smooth="yes"/>
      <point x="210" y="189"/>
      <point x="197" y="164"/>
      <point x="187" y="136" type="curve"/>
      <point x="181" y="136" type="line"/>
      <point x="186" y="165"/>
      <point x="188" y="193"/>
      <point x="188" y="222" type="curve" smooth="yes"/>
      <point x="188" y="690" type="line"/>
      <point x="81" y="690" type="line"/>
      <point x="81" y="0" type="line"/>
      <point x="196" y="0" type="line"/>
      <point x="471" y="476" type="line" smooth="yes"/>
      <point x="484" y="499"/>
      <point x="498" y="529"/>
      <point x="508" y="557" type="curve"/>
      <point x="514" y="557" type="line"/>
      <point x="509" y="529"/>
      <point x="507" y="501"/>
      <point x="507" y="473" type="curve" smooth="yes"/>
      <point x="507" y="0" type="line"/>
      <point x="615" y="0" type="line"/>
    </contour>
  </outline>
</glyph>
<glyph name="El-cy" format="2">
  <advance width="658"/>
  <unicode hex="041B"/>
  <guideline x="145" y="538" angle="0"/>
  <outline>
    <contour>
      <point x="563" y="690" type="line"/>
      <point x="319" y="690" type="line" smooth="yes"/>
      <point x="228" y="690"/>
      <point x="178" y="644"/>
      <point x="170" y="555" type="curve" smooth="yes"/>
      <point x="152" y="327"/>
      <point x="140" y="248"/>
      <point x="108" y="166" type="curve" smooth="yes"/>
      <point x="89" y="118"/>
      <point x="56" y="96"/>
      <point x="9" y="84" type="curve"/>
      <point x="18" y="-2" type="line"/>
      <point x="110" y="-7"/>
      <point x="172" y="41"/>
      <point x="213" y="136" type="curve" smooth="yes"/>
      <point x="251" y="225"/>
      <point x="260" y="320"/>
      <point x="279" y="534" type="curve" smooth="yes"/>
      <point x="283" y="579"/>
      <point x="304" y="600"/>
      <point x="348" y="600" type="curve" smooth="yes"/>
      <point x="563" y="600" type="line"/>
    </contour>
    <contour>
      <point x="577" y="690" type="line"/>
      <point x="465" y="690" type="line"/>
      <point x="465" y="0" type="line"/>
      <point x="577" y="0" type="line"/>
    </contour>
  </outline>
</glyph>
<glyph name="Te-cy" format="2">
  <advance width="587"/>
  <unicode hex="0422"/>
  <outline>
    <contour>
      <point x="349" y="690" type="line"/>
      <point x="237" y="690" type="line"/>
      <point x="237" y="0" type="line"/>
      <point x="349" y="0" type="line"/>
    </contour>
    <contour>
      <point x="564" y="690" type="line"/>
      <point x="23" y="690" type="line"/>
      <point x="23" y="591" type="line"/>
      <point x="564" y="591" type="line"/>
    </contour>
  </outline>
</glyph>
<glyph name="U-cy" format="2">
  <advance width="572"/>
  <unicode hex="0423"/>
  <anchor x="286" y="732" name="top"/>
  <outline>
    <contour>
      <point x="565" y="690" type="line"/>
      <point x="451" y="690" type="line"/>
      <point x="308" y="275" type="line"/>
      <point x="296" y="235" type="line"/>
      <point x="271" y="172" type="line" smooth="yes"/>
      <point x="235" y="84"/>
      <point x="230" y="82"/>
      <point x="97" y="90" type="curve"/>
      <point x="84" y="8" type="line"/>
      <point x="119" y="-2"/>
      <point x="182" y="-10"/>
      <point x="219" y="-7" type="curve" smooth="yes"/>
      <point x="308" y="0"/>
      <point x="349" y="74"/>
      <point x="384" y="173" type="curve" smooth="yes"/>
    </contour>
    <contour>
      <point x="130" y="690" type="line"/>
      <point x="16" y="690" type="line"/>
      <point x="170" y="251" type="line" smooth="yes"/>
      <point x="183" y="215"/>
      <point x="204" y="199"/>
      <point x="246" y="199" type="curve" smooth="yes"/>
      <point x="346" y="199" type="line"/>
      <point x="324" y="293" type="line"/>
      <point x="278" y="293" type="line" smooth="yes"/>
      <point x="269" y="293"/>
      <point x="262" y="298"/>
      <point x="259" y="306" type="curve" smooth="yes"/>
    </contour>
  </outline>
</glyph>
<glyph name="Ha-cy" format="2">
  <advance width="618"/>
  <unicode hex="0425"/>
  <outline>
    <contour>
      <point x="585" y="690" type="line"/>
      <point x="465" y="690" type="line"/>
      <point x="299" y="356" type="line"/>
      <point x="477" y="0" type="line"/>
      <point x="598" y="0" type="line"/>
      <point x="412" y="356" type="line"/>
    </contour>
    <contour>
      <point x="152" y="690" type="line"/>
      <point x="33" y="690" type="line"/>
      <point x="205" y="356" type="line"/>
      <point x="20" y="0" type="line"/>
      <point x="140" y="0" type="line"/>
      <point x="318" y="356" type="line"/>
    </contour>
    <contour>
      <point x="370" y="400" type="line"/>
      <point x="243" y="400" type="line"/>
      <point x="243" y="315" type="line"/>
      <point x="370" y="315" type="line"/>
    </contour>
  </outline>
</glyph>
<glyph name="Sha-cy" format="2">
  <advance width="940"/>
  <unicode hex="0428"/>
  <outline>
    <contour>
      <point x="859" y="690" type="line"/>
      <point x="750" y="690" type="line"/>
      <point x="750" y="0" type="line"/>
      <point x="859" y="0" type="line"/>
    </contour>
    <contour>
      <point x="190" y="690" type="line"/>
      <point x="81" y="690" type="line"/>
      <point x="81" y="0" type="line"/>
      <point x="190" y="0" type="line"/>
    </contour>
    <contour>
      <point x="779" y="90" type="line"/>
      <point x="181" y="90" type="line"/>
      <point x="182" y="0" type="line"/>
      <point x="779" y="0" type="line"/>
    </contour>
    <contour>
      <point x="524" y="690" type="line"/>
      <point x="416" y="690" type="line"/>
      <point x="416" y="0" type="line"/>
      <point x="524" y="0" type="line"/>
    </contour>
  </outline>
</glyph>
<glyph name="Ia-cy" format="2">
  <advance width="617"/>
  <unicode hex="042F"/>
  <outline>
    <contour>
      <point x="292" y="699" type="curve" smooth="yes"/>
      <point x="130" y="699"/>
      <point x="66" y="642"/>
      <point x="66" y="498" type="curve" smooth="yes"/>
      <point x="65" y="385"/>
      <point x="101" y="327"/>
      <point x="197" y="314" type="curve"/>
      <point x="198" y="309" type="line"/>
      <point x="160" y="301"/>
      <point x="116" y="274"/>
      <point x="98" y="211" type="curve" smooth="yes"/>
      <point x="39" y="0" type="line"/>
      <point x="157" y="0" type="line"/>
      <point x="212" y="207" type="line" smooth="yes"/>
      <point x="225" y="255"/>
      <point x="252" y="273"/>
      <point x="295" y="273" type="curve" smooth="yes"/>
      <point x="421" y="273"/>
      <point x="486" y="274"/>
      <point x="526" y="275" type="curve"/>
      <point x="523" y="368" type="line"/>
      <point x="294" y="368" type="line" smooth="yes"/>
      <point x="206" y="368"/>
      <point x="177" y="404"/>
      <point x="177" y="491" type="curve" smooth="yes"/>
      <point x="178" y="580"/>
      <point x="206" y="604"/>
      <point x="294" y="604" type="curve" smooth="yes"/>
      <point x="408" y="604"/>
      <point x="493" y="603"/>
      <point x="522" y="600" type="curve"/>
      <point x="536" y="690" type="line"/>
      <point x="459" y="698"/>
      <point x="406" y="699"/>
    </contour>
    <contour>
      <point x="536" y="690" type="line"/>
      <point x="425" y="690" type="line"/>
      <point x="425" y="0" type="line"/>
      <point x="536" y="0" type="line"/>
    </contour>
  </outline>
</glyph>
<glyph name="a-cy" format="2">
  <advance width="557"/>
  <unicode hex="0430"/>
  <anchor x="277" y="558" name="top"/>
  <outline>
    <contour>
      <point x="308" y="502" type="curve" smooth="yes"/>
      <point x="245" y="502"/>
      <point x="139" y="491"/>
      <point x="70" y="479" type="curve"/>
      <point x="80" y="400" type="line"/>
      <point x="156" y="406"/>
      <point x="240" y="411"/>
      <point x="284" y="411" type="curve" smooth="yes"/>
      <point x="358" y="411"/>
      <point x="378" y="397"/>
      <point x="379" y="337" type="curve" smooth="yes"/>
      <point x="379" y="119" type="line"/>
      <point x="386" y="106" type="line"/>
      <point x="402" y="0" type="line"/>
      <point x="487" y="0" type="line"/>
      <point x="487" y="337" type="line" smooth="yes"/>
      <point x="487" y="464"/>
      <point x="426" y="502"/>
    </contour>
    <contour>
      <point x="440" y="304" type="line"/>
      <point x="190" y="304" type="line" smooth="yes"/>
      <point x="100" y="304"/>
      <point x="48" y="259"/>
      <point x="48" y="181" type="curve" smooth="yes"/>
      <point x="48" y="131" type="line" smooth="yes"/>
      <point x="48" y="40"/>
      <point x="111" y="-10"/>
      <point x="201" y="-10" type="curve" smooth="yes"/>
      <point x="311" y="-10"/>
      <point x="387" y="64"/>
      <point x="412" y="101" type="curve"/>
      <point x="412" y="178" type="line"/>
      <point x="350" y="105"/>
      <point x="272" y="81"/>
      <point x="224" y="81" type="curve" smooth="yes"/>
      <point x="177" y="81"/>
      <point x="157" y="99"/>
      <point x="157" y="145" type="curve" smooth="yes"/>
      <point x="157" y="165" type="line" smooth="yes"/>
      <point x="157" y="200"/>
      <point x="168" y="221"/>
      <point x="211" y="223" type="curve" smooth="yes"/>
      <point x="439" y="223" type="line"/>
    </contour>
  </outline>
</glyph>
<glyph name="ve-cy" format="2">
  <advance width="556"/>
  <unicode hex="0432"/>
  <outline>
    <contour>
      <point x="282" y="494" type="curve" smooth="yes"/>
      <point x="188" y="494"/>
      <point x="137" y="493"/>
      <point x="73" y="488" type="curve"/>
      <point x="85" y="409" type="line"/>
      <point x="128" y="412"/>
      <point x="187" y="412"/>
      <point x="277" y="411" type="curve" smooth="yes"/>
      <point x="359" y="411"/>
      <point x="388" y="399"/>
      <point x="388" y="354" type="curve" smooth="yes"/>
      <point x="388" y="304"/>
      <point x="362" y="290"/>
      <point x="288" y="290" type="curve" smooth="yes"/>
      <point x="84" y="290" type="line"/>
      <point x="84" y="214" type="line"/>
      <point x="288" y="214" type="line" smooth="yes"/>
      <point x="370" y="214"/>
      <point x="399" y="196"/>
      <point x="399" y="144" type="curve" smooth="yes"/>
      <point x="399" y="90"/>
      <point x="371" y="77"/>
      <point x="292" y="77" type="curve" smooth="yes"/>
      <point x="191" y="77"/>
      <point x="112" y="78"/>
      <point x="85" y="79" type="curve"/>
      <point x="73" y="-1" type="line"/>
      <point x="145" y="-6"/>
      <point x="202" y="-7"/>
      <point x="309" y="-7" type="curve" smooth="yes"/>
      <point x="450" y="-7"/>
      <point x="507" y="20"/>
      <point x="507" y="121" type="curve" smooth="yes"/>
      <point x="507" y="199"/>
      <point x="475" y="243"/>
      <point x="384" y="250" type="curve"/>
      <point x="384" y="253" type="line"/>
      <point x="459" y="259"/>
      <point x="489" y="295"/>
      <point x="489" y="364" type="curve" smooth="yes"/>
      <point x="489" y="467"/>
      <point x="435" y="494"/>
    </contour>
    <contour>
      <point x="174" y="488" type="line"/>
      <point x="73" y="488" type="line"/>
      <point x="73" y="-1" type="line"/>
      <point x="174" y="-1" type="line"/>
    </contour>
  </outline>
</glyph>
<glyph name="de-cy" format="2">
  <advance width="601"/>
  <unicode hex="0434"/>
  <outline>
    <contour>
      <point x="485" y="489" type="line"/>
      <point x="290" y="489" type="line" smooth="yes"/>
      <point x="203" y="489"/>
      <point x="159" y="449"/>
      <point x="154" y="370" type="curve" smooth="yes"/>
      <point x="144" y="241"/>
      <point x="117" y="117"/>
      <point x="42" y="0" type="curve"/>
      <point x="129" y="0" type="line"/>
      <point x="207" y="100"/>
      <point x="238" y="203"/>
      <point x="251" y="351" type="curve" smooth="yes"/>
      <point x="254" y="387"/>
      <point x="272" y="406"/>
      <point x="308" y="406" type="curve" smooth="yes"/>
      <point x="485" y="406" type="line"/>
    </contour>
    <contour>
      <point x="107" y="5" type="line"/>
      <point x="28" y="5" type="line"/>
      <point x="28" y="-144" type="line"/>
      <point x="98" y="-144" type="line"/>
    </contour>
    <contour>
      <point x="569" y="86" type="line"/>
      <point x="28" y="86" type="line"/>
      <point x="28" y="0" type="line"/>
      <point x="569" y="0" type="line"/>
    </contour>
    <contour>
      <point x="569" y="5" type="line"/>
      <point x="490" y="5" type="line"/>
      <point x="499" y="-144" type="line"/>
      <point x="569" y="-144" type="line"/>
    </contour>
    <contour>
      <point x="497" y="489" type="line"/>
      <point x="395" y="489" type="line"/>
      <point x="395" y="0" type="line"/>
      <point x="497" y="0" type="line"/>
    </contour>
  </outline>
</glyph>
<glyph name="zhe-cy" format="2">
  <advance width="800"/>
  <unicode hex="0436"/>
  <anchor x="780" y="0" name="bottomright"/>
  <anchor x="400" y="553" name="top"/>
  <outline>
    <contour>
      <point x="756" y="489" type="curve"/>
      <point x="648" y="489" type="line"/>
      <point x="600" y="356"/>
      <point x="576" y="294"/>
      <point x="503" y="294" type="curve"/>
      <point x="504" y="214" type="line"/>
      <point x="582" y="215"/>
      <point x="599" y="163"/>
      <point x="661" y="0" type="curve"/>
      <point x="770" y="0" type="line"/>
      <point x="708" y="183"/>
      <point x="687" y="241"/>
      <point x="580" y="254" type="curve"/>
      <point x="580" y="257" type="line"/>
      <point x="682" y="268"/>
      <point x="701" y="332"/>
    </contour>
    <contour>
      <point x="151" y="489" type="curve"/>
      <point x="44" y="489" type="line"/>
      <point x="99" y="332"/>
      <point x="118" y="268"/>
      <point x="220" y="257" type="curve"/>
      <point x="220" y="254" type="line"/>
      <point x="112" y="241"/>
      <point x="92" y="183"/>
      <point x="30" y="0" type="curve"/>
      <point x="139" y="0" type="line"/>
      <point x="202" y="163"/>
      <point x="219" y="215"/>
      <point x="295" y="214" type="curve"/>
      <point x="296" y="294" type="line"/>
      <point x="224" y="294"/>
      <point x="200" y="356"/>
    </contour>
    <contour>
      <point x="375" y="294" type="line"/>
      <point x="272" y="294" type="line"/>
      <point x="272" y="214" type="line"/>
      <point x="375" y="214" type="line"/>
    </contour>
    <contour>
      <point x="449" y="489" type="line"/>
      <point x="354" y="489" type="line"/>
      <point x="354" y="350" type="line" smooth="yes"/>
      <point x="354" y="318"/>
      <point x="358" y="286"/>
      <point x="369" y="256" type="curve"/>
      <point x="361" y="228"/>
      <point x="354" y="196"/>
      <point x="354" y="169" type="curve" smooth="yes"/>
      <point x="354" y="0" type="line"/>
      <point x="449" y="0" type="line"/>
      <point x="449" y="169" type="line" smooth="yes"/>
      <point x="449" y="196"/>
      <point x="442" y="228"/>
      <point x="434" y="256" type="curve"/>
      <point x="445" y="286"/>
      <point x="449" y="318"/>
      <point x="449" y="350" type="curve" smooth="yes"/>
    </contour>
    <contour>
      <point x="528" y="294" type="line"/>
      <point x="429" y="294" type="line"/>
      <point x="429" y="214" type="line"/>
      <point x="528" y="214" type="line"/>
    </contour>
  </outline>
</glyph>
<glyph name="ze-cy" format="2">
  <advance width="505"/>
  <unicode hex="0437"/>
  <anchor x="253" y="0" name="bottom"/>
  <anchor x="245" y="553" name="top"/>
  <outline>
    <contour>
      <point x="210" y="499" type="curve" smooth="yes"/>
      <point x="169" y="499"/>
      <point x="110" y="497"/>
      <point x="53" y="481" type="curve"/>
      <point x="61" y="399" type="line"/>
      <point x="101" y="404"/>
      <point x="159" y="408"/>
      <point x="213" y="408" type="curve" smooth="yes"/>
      <point x="303" y="408"/>
      <point x="330" y="398"/>
      <point x="330" y="353" type="curve" smooth="yes"/>
      <point x="330" y="302"/>
      <point x="308" y="288"/>
      <point x="232" y="288" type="curve" smooth="yes"/>
      <point x="108" y="288" type="line"/>
      <point x="108" y="210" type="line"/>
      <point x="233" y="210" type="line" smooth="yes"/>
      <point x="317" y="210"/>
      <point x="344" y="195"/>
      <point x="344" y="144" type="curve" smooth="yes"/>
      <point x="344" y="90"/>
      <point x="319" y="80"/>
      <point x="232" y="80" type="curve" smooth="yes"/>
      <point x="169" y="80"/>
      <point x="95" y="84"/>
      <point x="43" y="89" type="curve"/>
      <point x="35" y="7" type="line"/>
      <point x="101" y="-6"/>
      <point x="175" y="-10"/>
      <point x="240" y="-10" type="curve" smooth="yes"/>
      <point x="390" y="-10"/>
      <point x="455" y="11"/>
      <point x="455" y="121" type="curve" smooth="yes"/>
      <point x="455" y="203"/>
      <point x="420" y="243"/>
      <point x="334" y="250" type="curve"/>
      <point x="334" y="253" type="line"/>
      <point x="409" y="260"/>
      <point x="436" y="295"/>
      <point x="436" y="367" type="curve" smooth="yes"/>
      <point x="436" y="476"/>
      <point x="374" y="499"/>
    </contour>
  </outline>
</glyph>
<glyph name="ka-cy" format="2">
  <advance width="544"/>
  <unicode hex="043A"/>
  <anchor x="281" y="553" name="top"/>
  <outline>
    <contour>
      <point x="499" y="489" type="curve"/>
      <point x="389" y="489" type="line"/>
      <point x="343" y="355"/>
      <point x="320" y="295"/>
      <point x="231" y="295" type="curve"/>
      <point x="232" y="213" type="line"/>
      <point x="324" y="214"/>
      <point x="342" y="165"/>
      <point x="401" y="0" type="curve"/>
      <point x="514" y="0" type="line"/>
      <point x="450" y="184"/>
      <point x="429" y="241"/>
      <point x="319" y="253" type="curve"/>
      <point x="319" y="256" type="line"/>
      <point x="423" y="269"/>
      <point x="442" y="329"/>
    </contour>
    <contour>
      <point x="181" y="489" type="line"/>
      <point x="74" y="489" type="line"/>
      <point x="74" y="0" type="line"/>
      <point x="181" y="0" type="line"/>
      <point x="181" y="169" type="line" smooth="yes"/>
      <point x="181" y="195"/>
      <point x="175" y="227"/>
      <point x="166" y="256" type="curve"/>
      <point x="176" y="286"/>
      <point x="181" y="319"/>
      <point x="181" y="351" type="curve" smooth="yes"/>
    </contour>
    <contour>
      <point x="265" y="295" type="line"/>
      <point x="152" y="295" type="line"/>
      <point x="152" y="213" type="line"/>
      <point x="265" y="213" type="line"/>
    </contour>
  </outline>
</glyph>
<glyph name="el-cy" format="2">
  <advance width="571"/>
  <unicode hex="043B"/>
  <outline>
    <contour>
      <point x="484" y="489" type="line"/>
      <point x="278" y="489" type="line" smooth="yes"/>
      <point x="190" y="489"/>
      <point x="150" y="448"/>
      <point x="141" y="367" type="curve" smooth="yes"/>
      <point x="134" y="294"/>
      <point x="122" y="193"/>
      <point x="103" y="138" type="curve" smooth="yes"/>
      <point x="89" y="102"/>
      <point x="74" y="87"/>
      <point x="18" y="77" type="curve"/>
      <point x="29" y="-5" type="line"/>
      <point x="119" y="-9"/>
      <point x="174" y="27"/>
      <point x="199" y="108" type="curve" smooth="yes"/>
      <point x="219" y="172"/>
      <point x="231" y="264"/>
      <point x="242" y="348" type="curve" smooth="yes"/>
      <point x="248" y="393"/>
      <point x="261" y="406"/>
      <point x="300" y="406" type="curve" smooth="yes"/>
      <point x="484" y="406" type="line"/>
    </contour>
    <contour>
      <point x="497" y="489" type="line"/>
      <point x="389" y="489" type="line"/>
      <point x="389" y="0" type="line"/>
      <point x="497" y="0" type="line"/>
    </contour>
  </outline>
</glyph>
<glyph name="o-cy" format="2">
  <advance width="575"/>
  <unicode hex="043E"/>
  <anchor x="285" y="553" name="top"/>
  <outline>
    <contour>
      <point x="288" y="502" type="curve" smooth="yes"/>
      <point x="116" y="502"/>
      <point x="51" y="431"/>
      <point x="51" y="244" type="curve" smooth="yes"/>
      <point x="51" y="57"/>
      <point x="116" y="-13"/>
      <point x="288" y="-13" type="curve" smooth="yes"/>
      <point x="460" y="-13"/>
      <point x="524" y="57"/>
      <point x="524" y="244" type="curve" smooth="yes"/>
      <point x="524" y="431"/>
      <point x="460" y="502"/>
    </contour>
    <contour>
      <point x="288" y="412" type="curve" smooth="yes"/>
      <point x="383" y="412"/>
      <point x="412" y="375"/>
      <point x="412" y="244" type="curve" smooth="yes"/>
      <point x="412" y="114"/>
      <point x="383" y="77"/>
      <point x="288" y="77" type="curve" smooth="yes"/>
      <point x="192" y="77"/>
      <point x="164" y="114"/>
      <point x="164" y="244" type="curve" smooth="yes"/>
      <point x="164" y="375"/>
      <point x="192" y="412"/>
    </contour>
  </outline>
</glyph>
<glyph name="er-cy" format="2">
  <advance width="591"/>
  <unicode hex="0440"/>
  <outline>
    <contour>
      <point x="374" y="502" type="curve" smooth="yes"/>
      <point x="300" y="502"/>
      <point x="212" y="464"/>
      <point x="165" y="409" type="curve"/>
      <point x="178" y="340" type="line"/>
      <point x="242" y="385"/>
      <point x="286" y="409"/>
      <point x="336" y="409" type="curve" smooth="yes"/>
      <point x="402" y="409"/>
      <point x="428" y="368"/>
      <point x="428" y="242" type="curve" smooth="yes"/>
      <point x="428" y="108"/>
      <point x="399" y="81"/>
      <point x="322" y="81" type="curve" smooth="yes"/>
      <point x="273" y="81"/>
      <point x="234" y="92"/>
      <point x="179" y="104" type="curve"/>
      <point x="172" y="40" type="line"/>
      <point x="225" y="4"/>
      <point x="288" y="-12"/>
      <point x="351" y="-12" type="curve" smooth="yes"/>
      <point x="475" y="-12"/>
      <point x="539" y="51"/>
      <point x="539" y="241" type="curve" smooth="yes"/>
      <point x="539" y="406"/>
      <point x="491" y="502"/>
    </contour>
    <contour>
      <point x="163" y="489" type="line"/>
      <point x="74" y="489" type="line"/>
      <point x="74" y="-197" type="line"/>
      <point x="181" y="-197" type="line"/>
      <point x="181" y="-64" type="line" smooth="yes"/>
      <point x="182" y="-24"/>
      <point x="181" y="12"/>
      <point x="177" y="51" type="curve"/>
      <point x="181" y="63" type="line"/>
      <point x="181" y="367" type="line"/>
      <point x="174" y="384" type="line"/>
    </contour>
  </outline>
</glyph>
<glyph name="es-cy" format="2">
  <advance width="497"/>
  <unicode hex="0441"/>
  <outline>
    <contour>
      <point x="287" y="502" type="curve" smooth="yes"/>
      <point x="115" y="502"/>
      <point x="51" y="434"/>
      <point x="51" y="245" type="curve" smooth="yes"/>
      <point x="51" y="56"/>
      <point x="114" y="-12"/>
      <point x="286" y="-12" type="curve" smooth="yes"/>
      <point x="346" y="-12"/>
      <point x="410" y="-3"/>
      <point x="460" y="16" type="curve"/>
      <point x="450" y="88" type="line"/>
      <point x="398" y="80"/>
      <point x="335" y="78"/>
      <point x="305" y="78" type="curve" smooth="yes"/>
      <point x="200" y="78"/>
      <point x="164" y="115"/>
      <point x="164" y="245" type="curve" smooth="yes"/>
      <point x="164" y="374"/>
      <point x="200" y="411"/>
      <point x="305" y="411" type="curve" smooth="yes"/>
      <point x="340" y="411"/>
      <point x="392" y="410"/>
      <point x="439" y="408" type="curve"/>
      <point x="452" y="476" type="line"/>
      <point x="402" y="496"/>
      <point x="333" y="502"/>
    </contour>
  </outline>
</glyph>
<glyph name="te-cy" format="2">
  <advance width="498"/>
  <unicode hex="0442"/>
  <outline>
    <contour>
      <point x="303" y="489" type="line"/>
      <point x="196" y="489" type="line"/>
      <point x="196" y="0" type="line"/>
      <point x="303" y="0" type="line"/>
    </contour>
    <contour>
      <point x="473" y="489" type="line"/>
      <point x="25" y="489" type="line"/>
      <point x="25" y="402" type="line"/>
      <point x="473" y="402" type="line"/>
    </contour>
  </outline>
</glyph>
<glyph name="ha-cy" format="2">
  <advance width="541"/>
  <unicode hex="0445"/>
  <outline>
    <contour>
      <point x="509" y="489" type="line"/>
      <point x="394" y="489" type="line"/>
      <point x="255" y="252" type="line"/>
      <point x="405" y="0" type="line"/>
      <point x="521" y="0" type="line"/>
      <point x="365" y="252" type="line"/>
    </contour>
    <contour>
      <point x="147" y="489" type="line"/>
      <point x="32" y="489" type="line"/>
      <point x="176" y="252" type="line"/>
      <point x="20" y="0" type="line"/>
      <point x="136" y="0" type="line"/>
      <point x="286" y="252" type="line"/>
    </contour>
    <contour>
      <point x="333" y="295" type="line"/>
      <point x="209" y="295" type="line"/>
      <point x="209" y="212" type="line"/>
      <point x="333" y="212" type="line"/>
    </contour>
  </outline>
</glyph>
<glyph name="tse-cy" format="2">
  <advance width="604"/>
  <unicode hex="0446"/>
  <outline>
    <contour>
      <point x="180" y="489" type="line"/>
      <point x="74" y="489" type="line"/>
      <point x="74" y="0" type="line"/>
      <point x="180" y="0" type="line"/>
    </contour>
    <contour>
      <point x="572" y="86" type="line"/>
      <point x="171" y="86" type="line"/>
      <point x="172" y="0" type="line"/>
      <point x="572" y="0" type="line"/>
    </contour>
    <contour>
      <point x="501" y="489" type="line"/>
      <point x="394" y="489" type="line"/>
      <point x="394" y="0" type="line"/>
      <point x="500" y="0" type="line"/>
    </contour>
    <contour>
      <point x="572" y="5" type="line"/>
      <point x="491" y="5" type="line"/>
      <point x="501" y="-144" type="line"/>
      <point x="572" y="-144" type="line"/>
    </contour>
  </outline>
</glyph>
<glyph name="sha-cy" format="2">
  <advance width="815"/>
  <unicode hex="0448"/>
  <outline>
    <contour>
      <point x="178" y="489" type="line"/>
      <point x="74" y="489" type="line"/>
      <point x="74" y="0" type="line"/>
      <point x="178" y="0" type="line"/>
    </contour>
    <contour>
      <point x="664" y="86" type="line"/>
      <point x="171" y="86" type="line"/>
      <point x="171" y="0" type="line"/>
      <point x="664" y="0" type="line"/>
    </contour>
    <contour>
      <point x="455" y="489" type="line"/>
      <point x="359" y="489" type="line"/>
      <point x="359" y="0" type="line"/>
      <point x="455" y="0" type="line"/>
    </contour>
    <contour>
      <point x="741" y="489" type="line"/>
      <point x="637" y="489" type="line"/>
      <point x="637" y="0" type="line"/>
      <point x="741" y="0" type="line"/>
    </contour>
  </outline>
</glyph>
<glyph name="shcha-cy" format="2">
  <advance width="845"/>
  <unicode hex="0449"/>
  <outline>
    <contour>
      <point x="178" y="489" type="line"/>
      <point x="74" y="489" type="line"/>
      <point x="74" y="0" type="line"/>
      <point x="178" y="0" type="line"/>
    </contour>
    <contour>
      <point x="813" y="86" type="line"/>
      <point x="171" y="86" type="line"/>
      <point x="171" y="0" type="line"/>
      <point x="813" y="0" type="line"/>
    </contour>
    <contour>
      <point x="455" y="489" type="line"/>
      <point x="359" y="489" type="line"/>
      <point x="359" y="0" type="line"/>
      <point x="455" y="0" type="line"/>
    </contour>
    <contour>
      <point x="741" y="489" type="line"/>
      <point x="637" y="489" type="line"/>
      <point x="637" y="0" type="line"/>
      <point x="741" y="0" type="line"/>
    </contour>
    <contour>
      <point x="813" y="5" type="line"/>
      <point x="732" y="5" type="line"/>
      <point x="742" y="-144" type="line"/>
      <point x="813" y="-144" type="line"/>
    </contour>
  </outline>
</glyph>
<glyph name="yeru-cy" format="2">
  <advance width="739"/>
  <unicode hex="044B"/>
  <anchor x="369" y="553" name="top"/>
  <outline>
    <contour>
      <point x="277" y="309" type="curve" smooth="yes"/>
      <point x="87" y="309" type="line"/>
      <point x="87" y="231" type="line"/>
      <point x="277" y="231" type="line" smooth="yes"/>
      <point x="352" y="231"/>
      <point x="372" y="212"/>
      <point x="372" y="155" type="curve" smooth="yes"/>
      <point x="372" y="92"/>
      <point x="348" y="78"/>
      <point x="277" y="78" type="curve" smooth="yes"/>
      <point x="185" y="78"/>
      <point x="113" y="79"/>
      <point x="88" y="81" type="curve"/>
      <point x="77" y="0" type="line"/>
      <point x="143" y="-5"/>
      <point x="194" y="-6"/>
      <point x="295" y="-6" type="curve" smooth="yes"/>
      <point x="426" y="-6"/>
      <point x="481" y="28"/>
      <point x="481" y="151" type="curve" smooth="yes"/>
      <point x="481" y="271"/>
      <point x="433" y="309"/>
    </contour>
    <contour>
      <point x="178" y="489" type="line"/>
      <point x="74" y="489" type="line"/>
      <point x="74" y="0" type="line"/>
      <point x="178" y="0" type="line"/>
    </contour>
    <contour>
      <point x="665" y="489" type="line"/>
      <point x="557" y="489" type="line"/>
      <point x="557" y="0" type="line"/>
      <point x="665" y="0" type="line"/>
    </contour>
  </outline>
</glyph>
<glyph name="io-cy" format="2">
  <advance width="545"/>
  <unicode hex="0451"/>
  <outline>
    <contour>
      <point x="281" y="502" type="curve" smooth="yes"/>
      <point x="121" y="502"/>
      <point x="51" y="440"/>
      <point x="51" y="246" type="curve" smooth="yes"/>
      <point x="51" y="57"/>
      <point x="117" y="-12"/>
      <point x="290" y="-12" type="curve" smooth="yes"/>
      <point x="348" y="-12"/>
      <point x="436" y="-4"/>
      <point x="486" y="19" type="curve"/>
      <point x="476" y="90" type="line"/>
      <point x="421" y="83"/>
      <point x="352" y="78"/>
      <point x="304" y="78" type="curve" smooth="yes"/>
      <point x="200" y="78"/>
      <point x="163" y="102"/>
      <point x="163" y="252" type="curve" smooth="yes"/>
      <point x="163" y="380"/>
      <point x="190" y="412"/>
      <point x="286" y="412" type="curve" smooth="yes"/>
      <point x="366" y="412"/>
      <point x="390" y="390"/>
      <point x="390" y="335" type="curve" smooth="yes"/>
      <point x="390" y="310"/>
      <point x="385" y="275"/>
      <point x="347" y="275" type="curve" smooth="yes"/>
      <point x="90" y="275" type="line"/>
      <point x="90" y="193" type="line"/>
      <point x="377" y="193" type="line" smooth="yes"/>
      <point x="459" y="193"/>
      <point x="498" y="246"/>
      <point x="498" y="334" type="curve" smooth="yes"/>
      <point x="498" y="444"/>
      <point x="436" y="502"/>
    </contour>
    <contour>
      <point x="389" y="696" type="curve" smooth="yes"/>
      <point x="354" y="696" type="line" smooth="yes"/>
      <point x="334" y="696"/>
      <point x="325" y="685"/>
      <point x="325" y="667" type="curve" smooth="yes"/>
      <point x="325" y="613" type="line" smooth="yes"/>
      <point x="325" y="593"/>
      <point x="334" y="584"/>
      <point x="354" y="584" type="curve" smooth="yes"/>
      <point x="389" y="584" type="line" smooth="yes"/>
      <point x="407" y="584"/>
      <point x="418" y="593"/>
      <point x="418" y="613" type="curve" smooth="yes"/>
      <point x="418" y="667" type="line" smooth="yes"/>
      <point x="418" y="685"/>
      <point x="407" y="696"/>
    </contour>
    <contour>
      <point x="212" y="696" type="curve" smooth="yes"/>
      <point x="176" y="696" type="line" smooth="yes"/>
      <point x="157" y="696"/>
      <point x="148" y="685"/>
      <point x="148" y="667" type="curve" smooth="yes"/>
      <point x="148" y="613" type="line" smooth="yes"/>
      <point x="148" y="593"/>
      <point x="157" y="584"/>
      <point x="176" y="584" type="curve" smooth="yes"/>
      <point x="212" y="584" type="line" smooth="yes"/>
      <point x="231" y="584"/>
      <point x="240" y="593"/>
      <point x="240" y="613" type="curve" smooth="yes"/>
      <point x="240" y="667" type="line" smooth="yes"/>
      <point x="240" y="685"/>
      <point x="231" y="696"/>
    </contour>
  </outline>
</glyph>
<glyph name="e-cy" format="2">
  <advance width="515"/>
  <unicode hex="0454"/>
  <outline>
    <contour>
      <point x="298" y="497" type="curve" smooth="yes"/>
      <point x="116" y="497"/>
      <point x="51" y="432"/>
      <point x="51" y="242" type="curve" smooth="yes"/>
      <point x="51" y="56"/>
      <point x="116" y="-11"/>
      <point x="298" y="-11" type="curve" smooth="yes"/>
      <point x="378" y="-11"/>
      <point x="425" y="-5"/>
      <point x="476" y="11" type="curve"/>
      <point x="466" y="86" type="line"/>
      <point x="416" y="82"/>
      <point x="372" y="80"/>
      <point x="298" y="80" type="curve" smooth="yes"/>
      <point x="193" y="80"/>
      <point x="160" y="112"/>
      <point x="160" y="242" type="curve" smooth="yes"/>
      <point x="160" y="372"/>
      <point x="193" y="408"/>
      <point x="298" y="407" type="curve" smooth="yes"/>
      <point x="367" y="407"/>
      <point x="407" y="406"/>
      <point x="461" y="403" type="curve"/>
      <point x="471" y="477" type="line"/>
      <point x="419" y="493"/>
      <point x="378" y="497"/>
    </contour>
    <contour>
      <point x="79" y="289" type="line"/>
      <point x="79" y="209" type="line"/>
      <point x="407" y="209" type="line"/>
      <point x="407" y="289" type="line"/>
    </contour>
  </outline>
</glyph>
<glyph name="i-cy" format="2">
  <advance width="263"/>
  <unicode hex="0456"/>
  <outline>
    <contour>
      <point x="185" y="489" type="line"/>
      <point x="78" y="489" type="line"/>
      <point x="78" y="0" type="line"/>
      <point x="185" y="0" type="line"/>
    </contour>
    <contour>
      <point x="157" y="699" type="curve" smooth="yes"/>
      <point x="106" y="699" type="line" smooth="yes"/>
      <point x="85" y="699"/>
      <point x="75" y="687"/>
      <point x="75" y="668" type="curve" smooth="yes"/>
      <point x="75" y="613" type="line" smooth="yes"/>
      <point x="75" y="592"/>
      <point x="85" y="582"/>
      <point x="106" y="582" type="curve" smooth="yes"/>
      <point x="157" y="582" type="line" smooth="yes"/>
      <point x="178" y="582"/>
      <point x="188" y="592"/>
      <point x="188" y="613" type="curve" smooth="yes"/>
      <point x="188" y="668" type="line" smooth="yes"/>
      <point x="188" y="687"/>
      <point x="178" y="699"/>
    </contour>
  </outline>
</glyph>
<glyph name="yi-cy" format="2">
  <advance width="263"/>
  <unicode hex="0457"/>
  <outline>
    <contour>
      <point x="185" y="489" type="line"/>
      <point x="78" y="489" type="line"/>
      <point x="78" y="0" type="line"/>
      <point x="185" y="0" type="line"/>
    </contour>
    <contour>
      <point x="238" y="696" type="curve" smooth="yes"/>
      <point x="203" y="696" type="line" smooth="yes"/>
      <point x="183" y="696"/>
      <point x="174" y="685"/>
      <point x="174" y="667" type="curve" smooth="yes"/>
      <point x="174" y="613" type="line" smooth="yes"/>
      <point x="174" y="593"/>
      <point x="183" y="584"/>
      <point x="203" y="584" type="curve" smooth="yes"/>
      <point x="238" y="584" type="line" smooth="yes"/>
      <point x="256" y="584"/>
      <point x="267" y="593"/>
      <point x="267" y="613" type="curve" smooth="yes"/>
      <point x="267" y="667" type="line" smooth="yes"/>
      <point x="267" y="685"/>
      <point x="256" y="696"/>
    </contour>
    <contour>
      <point x="61" y="696" type="curve" smooth="yes"/>
      <point x="25" y="696" type="line" smooth="yes"/>
      <point x="6" y="696"/>
      <point x="-3" y="685"/>
      <point x="-3" y="667" type="curve" smooth="yes"/>
      <point x="-3" y="613" type="line" smooth="yes"/>
      <point x="-3" y="593"/>
      <point x="6" y="584"/>
      <point x="25" y="584" type="curve" smooth="yes"/>
      <point x="61" y="584" type="line" smooth="yes"/>
      <point x="80" y="584"/>
      <point x="89" y="593"/>
      <point x="89" y="613" type="curve" smooth="yes"/>
      <point x="89" y="667" type="line" smooth="yes"/>
      <point x="89" y="685"/>
      <point x="80" y="696"/>
    </contour>
  </outline>
</glyph>
<glyph name="je-cy" format="2">
  <advance width="264"/>
  <unicode hex="0458"/>
  <outline>
    <contour>
      <point x="186" y="489" type="line"/>
      <point x="78" y="489" type="line"/>
      <point x="78" y="1" type="line" smooth="yes"/>
      <point x="78" y="-61"/>
      <point x="62" y="-106"/>
      <point x="23" y="-154" type="curve"/>
      <point x="82" y="-201" type="line"/>
      <point x="147" y="-158"/>
      <point x="186" y="-82"/>
      <point x="186" y="1" type="curve" smooth="yes"/>
    </contour>
    <contour>
      <point x="158" y="699" type="curve" smooth="yes"/>
      <point x="107" y="699" type="line"/>
      <point x="86" y="699"/>
      <point x="76" y="687"/>
      <point x="76" y="668" type="curve" smooth="yes"/>
      <point x="76" y="613" type="line"/>
      <point x="76" y="592"/>
      <point x="86" y="582"/>
      <point x="107" y="582" type="curve" smooth="yes"/>
      <point x="158" y="582" type="line"/>
      <point x="179" y="582"/>
      <point x="189" y="592"/>
      <point x="189" y="613" type="curve" smooth="yes"/>
      <point x="189" y="668" type="line"/>
      <point x="189" y="687"/>
      <point x="179" y="699"/>
    </contour>
  </outline>
</glyph>
<glyph name="dzhe-cy" format="2">
  <advance width="585"/>
  <unicode hex="045F"/>
  <outline>
    <contour>
      <point x="180" y="489" type="line"/>
      <point x="74" y="489" type="line"/>
      <point x="74" y="0" type="line"/>
      <point x="182" y="0" type="line"/>
    </contour>
    <contour>
      <point x="416" y="86" type="line"/>
      <point x="173" y="86" type="line"/>
      <point x="175" y="0" type="line"/>
      <point x="415" y="0" type="line"/>
    </contour>
    <contour>
      <point x="511" y="489" type="line"/>
      <point x="404" y="489" type="line"/>
      <point x="403" y="0" type="line"/>
      <point x="511" y="0" type="line"/>
    </contour>
    <contour>
      <point x="336" y="5" type="line"/>
      <point x="247" y="5" type="line"/>
      <point x="256" y="-164" type="line"/>
      <point x="328" y="-164" type="line"/>
    </contour>
  </outline>
</glyph>
<glyph name="Yat-cy" format="2">
  <advance width="620"/>
  <unicode hex="0462"/>
  <outline>
    <contour>
      <point x="377" y="-8" type="curve" smooth="yes"/>
      <point x="532" y="-8"/>
      <point x="593" y="38"/>
      <point x="593" y="204" type="curve" smooth="yes"/>
      <point x="593" y="368"/>
      <point x="534" y="422"/>
      <point x="359" y="422" type="curve" smooth="yes"/>
      <point x="135" y="422" type="line"/>
      <point x="135" y="330" type="line"/>
      <point x="359" y="330" type="line" smooth="yes"/>
      <point x="463" y="330"/>
      <point x="481" y="296"/>
      <point x="481" y="206" type="curve" smooth="yes"/>
      <point x="481" y="112"/>
      <point x="461" y="89"/>
      <point x="359" y="89" type="curve" smooth="yes"/>
      <point x="250" y="89"/>
      <point x="166" y="90"/>
      <point x="136" y="92" type="curve"/>
      <point x="123" y="0" type="line"/>
      <point x="201" y="-7"/>
      <point x="259" y="-8"/>
    </contour>
    <contour>
      <point x="120" y="0" type="line"/>
      <point x="231" y="0" type="line"/>
      <point x="231" y="730" type="line"/>
      <point x="120" y="730" type="line"/>
    </contour>
    <contour>
      <point x="5" y="539" type="line"/>
      <point x="465" y="539" type="line"/>
      <point x="465" y="619" type="line"/>
      <point x="5" y="619" type="line"/>
    </contour>
  </outline>
</glyph>
<glyph name="yusbig-cy" format="2">
  <advance width="689"/>
  <unicode hex="046B"/>
  <outline>
    <contour>
      <point x="-3" y="0" type="curve"/>
      <point x="110" y="0" type="line"/>
      <point x="186" y="193"/>
      <point x="194" y="205"/>
      <point x="296" y="205" type="curve"/>
      <point x="295" y="186"/>
      <point x="293" y="168"/>
      <point x="293" y="156" type="curve" smooth="yes"/>
      <point x="293" y="0" type="line"/>
      <point x="396" y="0" type="line"/>
      <point x="396" y="156" type="line" smooth="yes"/>
      <point x="396" y="168"/>
      <point x="395" y="186"/>
      <point x="393" y="205" type="curve"/>
      <point x="495" y="205"/>
      <point x="503" y="194"/>
      <point x="578" y="0" type="curve"/>
      <point x="692" y="0" type="line"/>
      <point x="607" y="212"/>
      <point x="593" y="254"/>
      <point x="438" y="262" type="curve"/>
      <point x="438" y="266" type="line"/>
      <point x="604" y="440" type="line" smooth="yes"/>
      <point x="624" y="461"/>
      <point x="611" y="490"/>
      <point x="582" y="490" type="curve" smooth="yes"/>
      <point x="104" y="490" type="line" smooth="yes"/>
      <point x="75" y="490"/>
      <point x="63" y="460"/>
      <point x="83" y="439" type="curve" smooth="yes"/>
      <point x="251" y="266" type="line"/>
      <point x="251" y="262" type="line"/>
      <point x="95" y="254"/>
      <point x="82" y="212"/>
    </contour>
    <contour>
      <point x="344" y="290" type="line"/>
      <point x="225" y="414" type="line"/>
      <point x="463" y="414" type="line"/>
    </contour>
  </outline>
</glyph>
<glyph name="Fita-cy" format="2">
  <advance width="670"/>
  <unicode hex="0472"/>
  <outline>
    <contour>
      <point x="139" y="307" type="line"/>
      <point x="529" y="307" type="line"/>
      <point x="529" y="391" type="line"/>
      <point x="139" y="391" type="line"/>
    </contour>
    <component base="O-cy"/>
  </outline>
</glyph>
<glyph name="fita-cy" format="2">
  <advance width="575"/>
  <unicode hex="0473"/>
  <outline>
    <contour>
      <point x="288" y="-13" type="curve" smooth="yes"/>
      <point x="460" y="-13"/>
      <point x="524" y="57"/>
      <point x="524" y="244" type="curve" smooth="yes"/>
      <point x="524" y="431"/>
      <point x="460" y="502"/>
      <point x="288" y="502" type="curve" smooth="yes"/>
      <point x="116" y="502"/>
      <point x="51" y="431"/>
      <point x="51" y="244" type="curve" smooth="yes"/>
      <point x="51" y="57"/>
      <point x="116" y="-13"/>
    </contour>
    <contour>
      <point x="288" y="77" type="curve" smooth="yes"/>
      <point x="192" y="77"/>
      <point x="164" y="114"/>
      <point x="164" y="244" type="curve" smooth="yes"/>
      <point x="164" y="375"/>
      <point x="192" y="412"/>
      <point x="288" y="412" type="curve" smooth="yes"/>
      <point x="383" y="412"/>
      <point x="412" y="375"/>
      <point x="412" y="244" type="curve" smooth="yes"/>
      <point x="412" y="114"/>
      <point x="383" y="77"/>
    </contour>
    <contour>
      <point x="116" y="217" type="line"/>
      <point x="462" y="217" type="line"/>
      <point x="462" y="279" type="line"/>
      <point x="116" y="279" type="line"/>
    </contour>
  </outline>
</glyph>
<glyph name="Izhitsa-cy" format="2">
  <advance width="651"/>
  <unicode hex="0474"/>
  <outline>
    <contour>
      <point x="254" y="0" type="curve" smooth="yes"/>
      <point x="361" y="0" type="line" smooth="yes"/>
      <point x="381" y="0"/>
      <point x="397" y="13"/>
      <point x="402" y="31" type="curve" smooth="yes"/>
      <point x="550" y="567" type="line" smooth="yes"/>
      <point x="561" y="608"/>
      <point x="581" y="620"/>
      <point x="624" y="620" type="curve" smooth="yes"/>
      <point x="630" y="620"/>
      <point x="647" y="619"/>
      <point x="655" y="618" type="curve"/>
      <point x="655" y="699" type="line"/>
      <point x="636" y="702"/>
      <point x="618" y="704"/>
      <point x="600" y="704" type="curve" smooth="yes"/>
      <point x="526" y="704"/>
      <point x="463" y="680"/>
      <point x="442" y="592" type="curve" smooth="yes"/>
      <point x="340" y="161" type="line" smooth="yes"/>
      <point x="334" y="136"/>
      <point x="326" y="110"/>
      <point x="321" y="85" type="curve"/>
      <point x="295" y="85" type="line"/>
      <point x="289" y="110"/>
      <point x="283" y="136"/>
      <point x="276" y="161" type="curve" smooth="yes"/>
      <point x="128" y="690" type="line"/>
      <point x="13" y="690" type="line"/>
      <point x="213" y="31" type="line" smooth="yes"/>
      <point x="218" y="13"/>
      <point x="234" y="0"/>
    </contour>
  </outline>
</glyph>
<glyph name="gheupturn-cy" format="2">
  <advance width="474"/>
  <unicode hex="0491"/>
  <outline>
    <contour>
      <point x="186" y="493" type="curve" smooth="yes"/>
      <point x="110" y="493"/>
      <point x="72" y="455"/>
      <point x="72" y="382" type="curve" smooth="yes"/>
      <point x="72" y="0" type="line"/>
      <point x="179" y="0" type="line"/>
      <point x="179" y="353" type="line" smooth="yes"/>
      <point x="179" y="391"/>
      <point x="195" y="408"/>
      <point x="232" y="407" type="curve" smooth="yes"/>
      <point x="449" y="407" type="line"/>
      <point x="454" y="483" type="line"/>
      <point x="372" y="493"/>
      <point x="275" y="493"/>
    </contour>
    <contour>
      <point x="454" y="635" type="line"/>
      <point x="383" y="635" type="line"/>
      <point x="370" y="459" type="line"/>
      <point x="454" y="483" type="line"/>
    </contour>
  </outline>
</glyph>
<glyph name="Ghemiddlehook-cy" format="2">
  <advance width="590"/>
  <unicode hex="0494"/>
  <outline>
    <contour>
      <point x="311" y="-182" type="line"/>
      <point x="435" y="-159"/>
      <point x="557" y="-106"/>
      <point x="557" y="160" type="curve" smooth="yes"/>
      <point x="557" y="405"/>
      <point x="469" y="446"/>
      <point x="373" y="446" type="curve" smooth="yes"/>
      <point x="315" y="446"/>
      <point x="238" y="430"/>
      <point x="167" y="381" type="curve"/>
      <point x="177" y="301" type="line"/>
      <point x="242" y="338"/>
      <point x="291" y="350"/>
      <point x="336" y="350" type="curve" smooth="yes"/>
      <point x="413" y="350"/>
      <point x="446" y="331"/>
      <point x="446" y="160" type="curve" smooth="yes"/>
      <point x="446" y="-43"/>
      <point x="393" y="-79"/>
      <point x="289" y="-105" type="curve"/>
    </contour>
    <contour>
      <point x="214" y="692" type="curve" smooth="yes"/>
      <point x="136" y="692"/>
      <point x="79" y="635"/>
      <point x="79" y="551" type="curve" smooth="yes"/>
      <point x="79" y="0" type="line"/>
      <point x="190" y="0" type="line"/>
      <point x="190" y="530" type="line" smooth="yes"/>
      <point x="190" y="582"/>
      <point x="205" y="597"/>
      <point x="252" y="597" type="curve" smooth="yes"/>
      <point x="492" y="597" type="line"/>
      <point x="497" y="683" type="line"/>
      <point x="410" y="692"/>
      <point x="309" y="692"/>
    </contour>
  </outline>
</glyph>
<glyph name="Zhedescender-cy" format="2">
  <advance width="929"/>
  <unicode hex="0496"/>
  <outline>
    <contour>
      <point x="926" y="90" type="line"/>
      <point x="789" y="90" type="line"/>
      <point x="789" y="0" type="line"/>
      <point x="926" y="0" type="line"/>
    </contour>
    <contour>
      <point x="926" y="7" type="line"/>
      <point x="840" y="7" type="line"/>
      <point x="850" y="-151" type="line"/>
      <point x="926" y="-151" type="line"/>
    </contour>
    <component base="Zhe-cy" xOffset="-10"/>
  </outline>
</glyph>
<glyph name="zhedescender-cy" format="2">
  <advance width="827"/>
  <unicode hex="0497"/>
  <outline>
    <contour>
      <point x="817" y="86" type="line"/>
      <point x="676" y="86" type="line"/>
      <point x="677" y="0" type="line"/>
      <point x="817" y="0" type="line"/>
    </contour>
    <contour>
      <point x="817" y="5" type="line"/>
      <point x="736" y="5" type="line"/>
      <point x="746" y="-144" type="line"/>
      <point x="817" y="-144" type="line"/>
    </contour>
    <component base="zhe-cy"/>
  </outline>
</glyph>
<glyph name="kadescender-cy" format="2">
  <advance width="570"/>
  <unicode hex="049B"/>
  <outline>
    <contour>
      <point x="560" y="86" type="line"/>
      <point x="420" y="86" type="line"/>
      <point x="420" y="0" type="line"/>
      <point x="560" y="0" type="line"/>
    </contour>
    <contour>
      <point x="560" y="5" type="line"/>
      <point x="479" y="5" type="line"/>
      <point x="489" y="-144" type="line"/>
      <point x="560" y="-144" type="line"/>
    </contour>
    <component base="ka-cy"/>
  </outline>
</glyph>
<glyph name="enghe-cy" format="2">
  <advance width="763"/>
  <unicode hex="04A5"/>
  <outline>
    <contour>
      <point x="180" y="489" type="line"/>
      <point x="74" y="489" type="line"/>
      <point x="74" y="0" type="line"/>
      <point x="180" y="0" type="line"/>
    </contour>
    <contour>
      <point x="407" y="300" type="line"/>
      <point x="174" y="300" type="line"/>
      <point x="174" y="218" type="line"/>
      <point x="407" y="218" type="line"/>
    </contour>
    <contour>
      <point x="512" y="493" type="curve" smooth="yes"/>
      <point x="436" y="493"/>
      <point x="398" y="455"/>
      <point x="398" y="382" type="curve" smooth="yes"/>
      <point x="398" y="0" type="line"/>
      <point x="505" y="0" type="line"/>
      <point x="505" y="353" type="line" smooth="yes"/>
      <point x="505" y="391"/>
      <point x="521" y="407"/>
      <point x="558" y="407" type="curve" smooth="yes"/>
      <point x="740" y="407" type="line"/>
      <point x="744" y="483" type="line"/>
      <point x="674" y="493"/>
      <point x="589" y="493"/>
    </contour>
  </outline>
</glyph>
<glyph name="haabkhasian-cy" format="2">
  <advance width="702"/>
  <unicode hex="04A9"/>
  <outline>
    <contour>
      <point x="274" y="423" type="curve"/>
      <point x="274" y="502" type="line"/>
      <point x="124" y="502"/>
      <point x="49" y="438"/>
      <point x="49" y="263" type="curve" smooth="yes"/>
      <point x="49" y="77"/>
      <point x="130" y="-9"/>
      <point x="301" y="-9" type="curve" smooth="yes"/>
      <point x="478" y="-9"/>
      <point x="638" y="123"/>
      <point x="638" y="297" type="curve" smooth="yes"/>
      <point x="638" y="434"/>
      <point x="579" y="502"/>
      <point x="464" y="502" type="curve" smooth="yes"/>
      <point x="350" y="502"/>
      <point x="289" y="435"/>
      <point x="289" y="297" type="curve" smooth="yes"/>
      <point x="289" y="113"/>
      <point x="427" y="-9"/>
      <point x="562" y="-9" type="curve" smooth="yes"/>
      <point x="639" y="-9"/>
      <point x="683" y="8"/>
      <point x="707" y="27" type="curve"/>
      <point x="693" y="81" type="line"/>
      <point x="663" y="72"/>
      <point x="623" y="66"/>
      <point x="563" y="66" type="curve" smooth="yes"/>
      <point x="483" y="66"/>
      <point x="394" y="141"/>
      <point x="394" y="297" type="curve" smooth="yes"/>
      <point x="394" y="385"/>
      <point x="415" y="420"/>
      <point x="465" y="420" type="curve" smooth="yes"/>
      <point x="514" y="420"/>
      <point x="537" y="392"/>
      <point x="537" y="297" type="curve" smooth="yes"/>
      <point x="537" y="129"/>
      <point x="422" y="71"/>
      <point x="325" y="71" type="curve" smooth="yes"/>
      <point x="209" y="71"/>
      <point x="158" y="126"/>
      <point x="158" y="263" type="curve" smooth="yes"/>
      <point x="158" y="371"/>
      <point x="195" y="423"/>
    </contour>
  </outline>
</glyph>
<glyph name="Ustrait-cy" format="2">
  <advance width="579"/>
  <unicode hex="04AE"/>
  <outline>
    <contour>
      <point x="571" y="690" type="line"/>
      <point x="455" y="690" type="line"/>
      <point x="323" y="414" type="line" smooth="yes"/>
      <point x="311" y="389"/>
      <point x="302" y="359"/>
      <point x="294" y="333" type="curve"/>
      <point x="286" y="333" type="line"/>
      <point x="278" y="359"/>
      <point x="269" y="389"/>
      <point x="257" y="414" type="curve" smooth="yes"/>
      <point x="125" y="690" type="line"/>
      <point x="7" y="690" type="line"/>
      <point x="239" y="228" type="line"/>
      <point x="341" y="228" type="line"/>
    </contour>
    <contour>
      <point x="345" y="302" type="line"/>
      <point x="234" y="302" type="line"/>
      <point x="234" y="0" type="line"/>
      <point x="345" y="0" type="line"/>
    </contour>
  </outline>
</glyph>
<glyph name="Ustraitstroke-cy" format="2">
  <advance width="558"/>
  <unicode hex="04B0"/>
  <outline>
    <contour>
      <point x="495" y="280" type="line"/>
      <point x="93" y="280" type="line"/>
      <point x="93" y="215" type="line"/>
      <point x="495" y="215" type="line"/>
    </contour>
    <component base="Ustrait-cy" xOffset="5"/>
  </outline>
</glyph>
<glyph name="hadescender-cy" format="2">
  <advance width="542"/>
  <unicode hex="04B3"/>
  <outline>
    <contour>
      <point x="534" y="86" type="line"/>
      <point x="421" y="86" type="line"/>
      <point x="421" y="0" type="line"/>
      <point x="534" y="0" type="line"/>
    </contour>
    <contour>
      <point x="534" y="5" type="line"/>
      <point x="453" y="5" type="line"/>
      <point x="463" y="-144" type="line"/>
      <point x="534" y="-144" type="line"/>
    </contour>
    <component base="x"/>
  </outline>
</glyph>
<glyph name="tetse-cy" format="2">
  <advance width="727"/>
  <unicode hex="04B5"/>
  <outline>
    <contour>
      <point x="535" y="0" type="line"/>
      <point x="643" y="0" type="line"/>
      <point x="643" y="489" type="line"/>
      <point x="535" y="489" type="line"/>
    </contour>
    <contour>
      <point x="179" y="0" type="line"/>
      <point x="286" y="0" type="line"/>
      <point x="286" y="489" type="line"/>
      <point x="179" y="489" type="line"/>
    </contour>
    <contour>
      <point x="280" y="0" type="line"/>
      <point x="712" y="0" type="line"/>
      <point x="712" y="90" type="line"/>
      <point x="280" y="90" type="line"/>
    </contour>
    <contour>
      <point x="636" y="-144" type="line"/>
      <point x="712" y="-144" type="line"/>
      <point x="712" y="7" type="line"/>
      <point x="626" y="7" type="line"/>
    </contour>
    <contour>
      <point x="20" y="406" type="line"/>
      <point x="444" y="406" type="line"/>
      <point x="444" y="489" type="line"/>
      <point x="20" y="489" type="line"/>
    </contour>
  </outline>
</glyph>
<glyph name="Chedescender-cy" format="2">
  <advance width="659"/>
  <unicode hex="04B6"/>
  <outline>
    <contour>
      <point x="220" y="245" type="curve" smooth="yes"/>
      <point x="283" y="245"/>
      <point x="382" y="264"/>
      <point x="467" y="309" type="curve"/>
      <point x="456" y="391" type="line"/>
      <point x="375" y="354"/>
      <point x="325" y="342"/>
      <point x="259" y="342" type="curve" smooth="yes"/>
      <point x="192" y="342"/>
      <point x="166" y="367"/>
      <point x="168" y="428" type="curve" smooth="yes"/>
      <point x="168" y="690" type="line"/>
      <point x="56" y="690" type="line"/>
      <point x="56" y="405" type="line" smooth="yes"/>
      <point x="56" y="296"/>
      <point x="108" y="245"/>
    </contour>
    <contour>
      <point x="559" y="-151" type="line"/>
      <point x="635" y="-151" type="line"/>
      <point x="646" y="7" type="line"/>
      <point x="559" y="7" type="line"/>
    </contour>
    <contour>
      <point x="451" y="0" type="line"/>
      <point x="646" y="0" type="line"/>
      <point x="646" y="76" type="line"/>
      <point x="451" y="76" type="line"/>
    </contour>
    <contour>
      <point x="442" y="0" type="line"/>
      <point x="554" y="0" type="line"/>
      <point x="554" y="690" type="line"/>
      <point x="442" y="690" type="line"/>
    </contour>
  </outline>
</glyph>
<glyph name="chedescender-cy" format="2">
  <advance width="554"/>
  <unicode hex="04B7"/>
  <outline>
    <contour>
      <point x="157" y="489" type="line"/>
      <point x="51" y="489" type="line"/>
      <point x="51" y="273" type="line" smooth="yes"/>
      <point x="51" y="199"/>
      <point x="94" y="164"/>
      <point x="181" y="164" type="curve" smooth="yes"/>
      <point x="227" y="164"/>
      <point x="313" y="177"/>
      <point x="380" y="201" type="curve"/>
      <point x="370" y="282" type="line"/>
      <point x="310" y="258"/>
      <point x="265" y="251"/>
      <point x="217" y="251" type="curve" smooth="yes"/>
      <point x="173" y="251"/>
      <point x="157" y="265"/>
      <point x="157" y="310" type="curve" smooth="yes"/>
    </contour>
    <contour>
      <point x="468" y="489" type="line"/>
      <point x="360" y="489" type="line"/>
      <point x="360" y="0" type="line"/>
      <point x="466" y="0" type="line"/>
    </contour>
    <contour>
      <point x="539" y="86" type="line"/>
      <point x="416" y="86" type="line"/>
      <point x="416" y="0" type="line"/>
      <point x="539" y="0" type="line"/>
    </contour>
    <contour>
      <point x="539" y="5" type="line"/>
      <point x="458" y="5" type="line"/>
      <point x="468" y="-144" type="line"/>
      <point x="539" y="-144" type="line"/>
    </contour>
  </outline>
</glyph>
<glyph name="Cheverticalstroke-cy" format="2">
  <advance width="633"/>
  <unicode hex="04B8"/>
  <outline>
    <contour>
      <point x="216" y="245" type="curve" smooth="yes"/>
      <point x="279" y="245"/>
      <point x="380" y="265"/>
      <point x="464" y="315" type="curve"/>
      <point x="455" y="393" type="line"/>
      <point x="373" y="356"/>
      <point x="322" y="344"/>
      <point x="256" y="344" type="curve" smooth="yes"/>
      <point x="191" y="344"/>
      <point x="167" y="369"/>
      <point x="167" y="428" type="curve" smooth="yes"/>
      <point x="167" y="690" type="line"/>
      <point x="56" y="690" type="line"/>
      <point x="56" y="405" type="line" smooth="yes"/>
      <point x="56" y="296"/>
      <point x="107" y="245"/>
    </contour>
    <contour>
      <point x="270" y="120" type="line"/>
      <point x="340" y="120" type="line"/>
      <point x="340" y="513" type="line"/>
      <point x="270" y="513" type="line"/>
    </contour>
    <contour>
      <point x="441" y="0" type="line"/>
      <point x="552" y="0" type="line"/>
      <point x="552" y="690" type="line"/>
      <point x="441" y="690" type="line"/>
    </contour>
  </outline>
</glyph>
<glyph name="cheverticalstroke-cy" format="2">
  <advance width="540"/>
  <unicode hex="04B9"/>
  <outline>
    <contour>
      <point x="157" y="489" type="line"/>
      <point x="51" y="489" type="line"/>
      <point x="51" y="273" type="line" smooth="yes"/>
      <point x="51" y="199"/>
      <point x="94" y="164"/>
      <point x="181" y="164" type="curve" smooth="yes"/>
      <point x="227" y="164"/>
      <point x="313" y="177"/>
      <point x="380" y="201" type="curve"/>
      <point x="370" y="282" type="line"/>
      <point x="310" y="258"/>
      <point x="265" y="251"/>
      <point x="217" y="251" type="curve" smooth="yes"/>
      <point x="173" y="251"/>
      <point x="157" y="265"/>
      <point x="157" y="310" type="curve" smooth="yes"/>
    </contour>
    <contour>
      <point x="467" y="489" type="line"/>
      <point x="360" y="489" type="line"/>
      <point x="360" y="0" type="line"/>
      <point x="467" y="0" type="line"/>
    </contour>
    <contour>
      <point x="229" y="82" type="line"/>
      <point x="289" y="82" type="line"/>
      <point x="289" y="382" type="line"/>
      <point x="229" y="382" type="line"/>
    </contour>
  </outline>
</glyph>
<glyph name="Cheabkhasian-cy" format="2">
  <advance width="728"/>
  <unicode hex="04BC"/>
  <outline>
    <contour>
      <point x="168" y="301" type="curve" smooth="yes"/>
      <point x="489" y="301" type="line" smooth="yes"/>
      <point x="631" y="301"/>
      <point x="694" y="345"/>
      <point x="694" y="481" type="curve" smooth="yes"/>
      <point x="694" y="636"/>
      <point x="613" y="703"/>
      <point x="457" y="703" type="curve" smooth="yes"/>
      <point x="244" y="703"/>
      <point x="179" y="620"/>
      <point x="179" y="347" type="curve" smooth="yes"/>
      <point x="179" y="94"/>
      <point x="235" y="-12"/>
      <point x="469" y="-12" type="curve" smooth="yes"/>
      <point x="545" y="-12"/>
      <point x="618" y="-2"/>
      <point x="661" y="14" type="curve"/>
      <point x="653" y="97" type="line"/>
      <point x="584" y="88"/>
      <point x="569" y="87"/>
      <point x="490" y="87" type="curve" smooth="yes"/>
      <point x="350" y="87"/>
      <point x="296" y="109"/>
      <point x="296" y="346" type="curve" smooth="yes"/>
      <point x="296" y="554"/>
      <point x="337" y="606"/>
      <point x="449" y="606" type="curve" smooth="yes"/>
      <point x="538" y="606"/>
      <point x="577" y="572"/>
      <point x="577" y="486" type="curve" smooth="yes"/>
      <point x="577" y="410"/>
      <point x="540" y="390"/>
      <point x="461" y="390" type="curve" smooth="yes"/>
      <point x="166" y="390" type="line" smooth="yes"/>
      <point x="108" y="390"/>
      <point x="87" y="424"/>
      <point x="97" y="487" type="curve"/>
      <point x="9" y="487" type="line"/>
      <point x="-6" y="357"/>
      <point x="47" y="301"/>
    </contour>
  </outline>
</glyph>
<glyph name="Chedescenderabkhasian-cy" format="2">
  <advance width="728"/>
  <unicode hex="04BE"/>
  <outline>
    <contour>
      <point x="493" y="7" type="line"/>
      <point x="406" y="7" type="line"/>
      <point x="412" y="-151" type="line"/>
      <point x="488" y="-151" type="line"/>
    </contour>
    <component base="Cheabkhasian-cy"/>
  </outline>
</glyph>
<glyph name="Enhook-cy" format="2">
  <advance width="673"/>
  <unicode hex="04C7"/>
  <outline>
    <contour>
      <point x="192" y="690" type="line"/>
      <point x="81" y="690" type="line"/>
      <point x="81" y="0" type="line"/>
      <point x="192" y="0" type="line"/>
    </contour>
    <contour>
      <point x="490" y="416" type="line"/>
      <point x="184" y="416" type="line"/>
      <point x="184" y="320" type="line"/>
      <point x="490" y="320" type="line"/>
    </contour>
    <contour>
      <point x="479" y="690" type="line"/>
      <point x="479" y="50" type="line" smooth="yes"/>
      <point x="479" y="-51"/>
      <point x="452" y="-91"/>
      <point x="346" y="-91" type="curve"/>
      <point x="346" y="-174" type="line"/>
      <point x="494" y="-198"/>
      <point x="591" y="-116"/>
      <point x="591" y="50" type="curve" smooth="yes"/>
      <point x="591" y="690" type="line"/>
    </contour>
  </outline>
</glyph>
<glyph name="Entail-cy" format="2">
  <advance width="690"/>
  <unicode hex="04C9"/>
  <outline>
    <contour>
      <point x="480" y="90" type="line"/>
      <point x="480" y="0" type="line"/>
      <point x="591" y="0" type="line"/>
      <point x="550" y="-151" type="line"/>
      <point x="626" y="-151" type="line"/>
      <point x="677" y="0" type="line"/>
      <point x="677" y="90" type="line"/>
    </contour>
    <component base="En-cy"/>
  </outline>
</glyph>
<glyph name="emtail-cy" format="2">
  <advance width="768"/>
  <unicode hex="04CE"/>
  <outline>
    <contour>
      <point x="604" y="90" type="line"/>
      <point x="604" y="0" type="line"/>
      <point x="687" y="0" type="line"/>
      <point x="646" y="-144" type="line"/>
      <point x="722" y="-144" type="line"/>
      <point x="773" y="0" type="line"/>
      <point x="773" y="90" type="line"/>
    </contour>
    <component base="em-cy"/>
  </outline>
</glyph>
<glyph name="Dzeabkhasian-cy" format="2">
  <advance width="519"/>
  <unicode hex="04E0"/>
  <outline>
    <contour>
      <point x="234" y="-8" type="curve" smooth="yes"/>
      <point x="428" y="-8"/>
      <point x="484" y="56"/>
      <point x="484" y="200" type="curve" smooth="yes"/>
      <point x="484" y="357"/>
      <point x="401" y="397"/>
      <point x="244" y="397" type="curve" smooth="yes"/>
      <point x="151" y="397" type="line"/>
      <point x="180" y="360" type="line"/>
      <point x="456" y="617" type="line"/>
      <point x="456" y="680" type="line" smooth="yes"/>
      <point x="456" y="686"/>
      <point x="452" y="690"/>
      <point x="446" y="690" type="curve" smooth="yes"/>
      <point x="32" y="690" type="line"/>
      <point x="32" y="602" type="line"/>
      <point x="386" y="602" type="line"/>
      <point x="364" y="638" type="line"/>
      <point x="99" y="391" type="line"/>
      <point x="99" y="321" type="line"/>
      <point x="244" y="321" type="line" smooth="yes"/>
      <point x="344" y="321"/>
      <point x="370" y="291"/>
      <point x="370" y="197" type="curve" smooth="yes"/>
      <point x="370" y="126"/>
      <point x="337" y="83"/>
      <point x="234" y="83" type="curve" smooth="yes"/>
      <point x="162" y="83"/>
      <point x="86" y="90"/>
      <point x="29" y="98" type="curve"/>
      <point x="20" y="17" type="line"/>
      <point x="86" y="-1"/>
      <point x="167" y="-8"/>
    </contour>
  </outline>
</glyph>
<glyph name="gedescender-cy" format="2">
  <advance width="471"/>
  <unicode hex="04F7"/>
  <outline>
    <contour>
      <point x="248" y="86" type="line"/>
      <point x="107" y="86" type="line"/>
      <point x="108" y="0" type="line"/>
      <point x="248" y="0" type="line"/>
    </contour>
    <contour>
      <point x="248" y="5" type="line"/>
      <point x="167" y="5" type="line"/>
      <point x="177" y="-144" type="line"/>
      <point x="248" y="-144" type="line"/>
    </contour>
    <component base="ge-cy"/>
  </outline>
</glyph>
<glyph name="Hahook-cy" format="2">
  <advance width="603"/>
  <unicode hex="04FC"/>
  <outline>
    <contour>
      <point x="327" y="-175" type="line"/>
      <point x="539" y="-175"/>
      <point x="580" y="-53"/>
      <point x="580" y="21" type="curve" smooth="yes"/>
      <point x="580" y="126"/>
      <point x="494" y="234"/>
      <point x="417" y="363" type="curve"/>
      <point x="585" y="690" type="line"/>
      <point x="465" y="690" type="line"/>
      <point x="299" y="356" type="line"/>
      <point x="376" y="243"/>
      <point x="465" y="112"/>
      <point x="465" y="27" type="curve" smooth="yes"/>
      <point x="465" y="-15"/>
      <point x="451" y="-90"/>
      <point x="327" y="-92" type="curve"/>
    </contour>
    <contour>
      <point x="20" y="0" type="line"/>
      <point x="140" y="0" type="line"/>
      <point x="318" y="356" type="line"/>
      <point x="152" y="690" type="line"/>
      <point x="33" y="690" type="line"/>
      <point x="205" y="356" type="line"/>
    </contour>
    <contour>
      <point x="243" y="315" type="line"/>
      <point x="370" y="315" type="line"/>
      <point x="370" y="400" type="line"/>
      <point x="243" y="400" type="line"/>
    </contour>
  </outline>
</glyph>
<glyph name="hahook-cy" format="2">
  <advance width="492"/>
  <unicode hex="04FD"/>
  <outline>
    <contour>
      <point x="273" y="-174" type="line"/>
      <point x="446" y="-181"/>
      <point x="486" y="-91"/>
      <point x="486" y="1" type="curve" smooth="yes"/>
      <point x="486" y="77"/>
      <point x="424" y="147"/>
      <point x="351" y="257" type="curve"/>
      <point x="490" y="489" type="line"/>
      <point x="385" y="489" type="line"/>
      <point x="247" y="252" type="line"/>
      <point x="315" y="156"/>
      <point x="385" y="67"/>
      <point x="385" y="3" type="curve" smooth="yes"/>
      <point x="385" y="-59"/>
      <point x="366" y="-108"/>
      <point x="273" y="-109" type="curve"/>
    </contour>
    <contour>
      <point x="14" y="0" type="line"/>
      <point x="120" y="0" type="line"/>
      <point x="266" y="252" type="line"/>
      <point x="130" y="489" type="line"/>
      <point x="25" y="489" type="line"/>
      <point x="167" y="252" type="line"/>
    </contour>
    <contour>
      <point x="200" y="221" type="line"/>
      <point x="310" y="221" type="line"/>
      <point x="310" y="285" type="line"/>
      <point x="200" y="285" type="line"/>
    </contour>
  </outline>
</glyph>
<glyph name="elhook-cy" format="2">
  <advance width="569"/>
  <unicode hex="0513"/>
  <outline>
    <contour>
      <point x="484" y="489" type="line"/>
      <point x="278" y="489" type="line" smooth="yes"/>
      <point x="190" y="489"/>
      <point x="150" y="448"/>
      <point x="141" y="367" type="curve" smooth="yes"/>
      <point x="134" y="294"/>
      <point x="122" y="193"/>
      <point x="103" y="138" type="curve" smooth="yes"/>
      <point x="89" y="102"/>
      <point x="74" y="87"/>
      <point x="18" y="77" type="curve"/>
      <point x="29" y="-5" type="line"/>
      <point x="119" y="-9"/>
      <point x="174" y="27"/>
      <point x="199" y="108" type="curve" smooth="yes"/>
      <point x="219" y="172"/>
      <point x="231" y="264"/>
      <point x="242" y="348" type="curve" smooth="yes"/>
      <point x="248" y="393"/>
      <point x="261" y="406"/>
      <point x="300" y="406" type="curve" smooth="yes"/>
      <point x="484" y="406" type="line"/>
    </contour>
    <contour>
      <point x="497" y="40" type="curve" smooth="yes"/>
      <point x="497" y="489" type="line"/>
      <point x="391" y="489" type="line"/>
      <point x="391" y="40" type="line" smooth="yes"/>
      <point x="391" y="-61"/>
      <point x="366" y="-101"/>
      <point x="268" y="-101" type="curve"/>
      <point x="268" y="-174" type="line"/>
      <point x="406" y="-197"/>
      <point x="497" y="-119"/>
    </contour>
  </outline>
</glyph>
<glyph name="We-cy" format="2">
  <advance width="954"/>
  <unicode hex="051C"/>
  <outline>
    <contour>
      <point x="924" y="690" type="line"/>
      <point x="807" y="690" type="line"/>
      <point x="717" y="173" type="line" smooth="yes"/>
      <point x="712" y="145"/>
      <point x="709" y="113"/>
      <point x="705" y="84" type="curve"/>
      <point x="682" y="84" type="line"/>
      <point x="679" y="113"/>
      <point x="674" y="144"/>
      <point x="668" y="174" type="curve" smooth="yes"/>
      <point x="577" y="654" type="line" smooth="yes"/>
      <point x="573" y="675"/>
      <point x="557" y="690"/>
      <point x="536" y="690" type="curve" smooth="yes"/>
      <point x="419" y="690" type="line" smooth="yes"/>
      <point x="396" y="690"/>
      <point x="381" y="675"/>
      <point x="377" y="654" type="curve" smooth="yes"/>
      <point x="286" y="175" type="line" smooth="yes"/>
      <point x="280" y="146"/>
      <point x="275" y="117"/>
      <point x="271" y="84" type="curve"/>
      <point x="249" y="84" type="line"/>
      <point x="245" y="117"/>
      <point x="242" y="147"/>
      <point x="237" y="175" type="curve" smooth="yes"/>
      <point x="148" y="690" type="line"/>
      <point x="30" y="690" type="line"/>
      <point x="154" y="32" type="line" smooth="yes"/>
      <point x="158" y="13"/>
      <point x="175" y="0"/>
      <point x="196" y="0" type="curve" smooth="yes"/>
      <point x="318" y="0" type="line" smooth="yes"/>
      <point x="339" y="0"/>
      <point x="357" y="13"/>
      <point x="361" y="33" type="curve" smooth="yes"/>
      <point x="453" y="529" type="line" smooth="yes"/>
      <point x="458" y="554"/>
      <point x="462" y="581"/>
      <point x="467" y="607" type="curve"/>
      <point x="487" y="607" type="line"/>
      <point x="491" y="581"/>
      <point x="496" y="555"/>
      <point x="501" y="529" type="curve" smooth="yes"/>
      <point x="594" y="33" type="line" smooth="yes"/>
      <point x="598" y="13"/>
      <point x="615" y="0"/>
      <point x="636" y="0" type="curve" smooth="yes"/>
      <point x="758" y="0" type="line" smooth="yes"/>
      <point x="779" y="0"/>
      <point x="795" y="13"/>
      <point x="800" y="32" type="curve" smooth="yes"/>
    </contour>
  </outline>
</glyph>
<glyph name="Pedescender-cy" format="2">
  <advance width="690"/>
  <unicode hex="0524"/>
  <outline>
    <contour>
      <point x="677" y="90" type="line"/>
      <point x="480" y="90" type="line"/>
      <point x="480" y="0" type="line"/>
      <point x="677" y="0" type="line"/>
    </contour>
    <contour>
      <point x="677" y="7" type="line"/>
      <point x="591" y="7" type="line"/>
      <point x="601" y="-151" type="line"/>
      <point x="677" y="-151" type="line"/>
    </contour>
    <component base="Pe-cy"/>
  </outline>
</glyph>
<glyph name="pedescender-cy" format="2">
  <advance width="589"/>
  <unicode hex="0525"/>
  <outline>
    <contour>
      <point x="574" y="86" type="line"/>
      <point x="433" y="86" type="line"/>
      <point x="434" y="0" type="line"/>
      <point x="574" y="0" type="line"/>
    </contour>
    <contour>
      <point x="574" y="5" type="line"/>
      <point x="493" y="5" type="line"/>
      <point x="503" y="-144" type="line"/>
      <point x="574" y="-144" type="line"/>
    </contour>
    <component base="pe-cy"/>
  </outline>
</glyph>
<glyph name="Shhadescender-cy" format="2">
  <advance width="668"/>
  <unicode hex="0526"/>
  <outline>
    <contour>
      <point x="664" y="90" type="line"/>
      <point x="467" y="90" type="line"/>
      <point x="467" y="0" type="line"/>
      <point x="664" y="0" type="line"/>
    </contour>
    <contour>
      <point x="664" y="7" type="line"/>
      <point x="578" y="7" type="line"/>
      <point x="588" y="-151" type="line"/>
      <point x="664" y="-151" type="line"/>
    </contour>
    <component base="Shha-cy"/>
  </outline>
</glyph>
<glyph name="Eldescender-cy" format="2">
  <advance width="692"/>
  <unicode hex="052E"/>
  <outline>
    <contour>
      <point x="662" y="90" type="line"/>
      <point x="474" y="90" type="line"/>
      <point x="474" y="0" type="line"/>
      <point x="662" y="0" type="line"/>
    </contour>
    <contour>
      <point x="662" y="7" type="line"/>
      <point x="576" y="7" type="line"/>
      <point x="586" y="-151" type="line"/>
      <point x="662" y="-151" type="line"/>
    </contour>
    <component base="El-cy"/>
  </outline>
</glyph>
<glyph name="Germandbls" format="2">
  <advance width="669"/>
  <unicode hex="1E9E"/>
  <outline>
    <contour>
      <point x="224" y="692" type="curve" smooth="yes"/>
      <point x="135" y="692"/>
      <point x="79" y="645"/>
      <point x="79" y="559" type="curve" smooth="yes"/>
      <point x="79" y="0" type="line"/>
      <point x="191" y="0" type="line"/>
      <point x="191" y="536" type="line" smooth="yes"/>
      <point x="191" y="582"/>
      <point x="206" y="597"/>
      <point x="252" y="597" type="curve" smooth="yes"/>
      <point x="581" y="597" type="line"/>
      <point x="587" y="683" type="line"/>
      <point x="500" y="692"/>
      <point x="320" y="692"/>
    </contour>
    <contour>
      <point x="320" y="384" type="line"/>
      <point x="320" y="306" type="line"/>
      <point x="417" y="306" type="line" smooth="yes"/>
      <point x="518" y="306"/>
      <point x="541" y="269"/>
      <point x="541" y="199" type="curve" smooth="yes"/>
      <point x="541" y="110"/>
      <point x="501" y="86"/>
      <point x="399" y="86" type="curve" smooth="yes"/>
      <point x="337" y="86"/>
      <point x="297" y="89"/>
      <point x="240" y="95" type="curve"/>
      <point x="234" y="5" type="line"/>
      <point x="290" y="-5"/>
      <point x="352" y="-13"/>
      <point x="428" y="-13" type="curve" smooth="yes"/>
      <point x="602" y="-13"/>
      <point x="652" y="57"/>
      <point x="651" y="206" type="curve" smooth="yes"/>
      <point x="650" y="319"/>
      <point x="591" y="391"/>
      <point x="475" y="391" type="curve"/>
      <point x="432" y="388" type="line"/>
      <point x="432" y="391" type="line"/>
      <point x="450" y="404"/>
      <point x="463" y="420"/>
      <point x="476" y="439" type="curve" smooth="yes"/>
      <point x="581" y="597" type="line"/>
      <point x="461" y="597" type="line"/>
    </contour>
  </outline>
</glyph>
<glyph name="daggerdbl" format="2">
  <advance width="526"/>
  <unicode hex="2021"/>
  <outline>
    <contour>
      <point x="296" y="690" type="curve" smooth="yes"/>
      <point x="230" y="690" type="line" smooth="yes"/>
      <point x="223" y="690"/>
      <point x="220" y="687"/>
      <point x="220" y="680" type="curve" smooth="yes"/>
      <point x="220" y="619" type="line" smooth="yes"/>
      <point x="220" y="576"/>
      <point x="224" y="537"/>
      <point x="231" y="501" type="curve"/>
      <point x="295" y="501" type="line"/>
      <point x="302" y="537"/>
      <point x="306" y="576"/>
      <point x="306" y="619" type="curve" smooth="yes"/>
      <point x="306" y="680" type="line" smooth="yes"/>
      <point x="306" y="687"/>
      <point x="303" y="690"/>
    </contour>
    <contour>
      <point x="42" y="482" type="curve" smooth="yes"/>
      <point x="42" y="416" type="line" smooth="yes"/>
      <point x="42" y="409"/>
      <point x="45" y="406"/>
      <point x="52" y="406" type="curve" smooth="yes"/>
      <point x="93" y="406" type="line" smooth="yes"/>
      <point x="136" y="406"/>
      <point x="165" y="410"/>
      <point x="201" y="417" type="curve"/>
      <point x="201" y="481" type="line"/>
      <point x="165" y="488"/>
      <point x="136" y="492"/>
      <point x="93" y="492" type="curve" smooth="yes"/>
      <point x="52" y="492" type="line" smooth="yes"/>
      <point x="45" y="492"/>
      <point x="42" y="489"/>
    </contour>
    <contour>
      <point x="325" y="481" type="curve"/>
      <point x="325" y="417" type="line"/>
      <point x="361" y="410"/>
      <point x="390" y="406"/>
      <point x="433" y="406" type="curve" smooth="yes"/>
      <point x="474" y="406" type="line" smooth="yes"/>
      <point x="481" y="406"/>
      <point x="484" y="409"/>
      <point x="484" y="416" type="curve" smooth="yes"/>
      <point x="484" y="482" type="line" smooth="yes"/>
      <point x="484" y="489"/>
      <point x="481" y="492"/>
      <point x="474" y="492" type="curve" smooth="yes"/>
      <point x="433" y="492" type="line" smooth="yes"/>
      <point x="390" y="492"/>
      <point x="361" y="488"/>
    </contour>
    <contour>
      <point x="230" y="-130" type="curve" smooth="yes"/>
      <point x="296" y="-130" type="line" smooth="yes"/>
      <point x="303" y="-130"/>
      <point x="306" y="-127"/>
      <point x="306" y="-120" type="curve" smooth="yes"/>
      <point x="306" y="-59" type="line" smooth="yes"/>
      <point x="306" y="-16"/>
      <point x="302" y="23"/>
      <point x="295" y="59" type="curve"/>
      <point x="231" y="59" type="line"/>
      <point x="224" y="23"/>
      <point x="220" y="-16"/>
      <point x="220" y="-59" type="curve" smooth="yes"/>
      <point x="220" y="-120" type="line" smooth="yes"/>
      <point x="220" y="-127"/>
      <point x="223" y="-130"/>
    </contour>
    <contour>
      <point x="484" y="78" type="curve" smooth="yes"/>
      <point x="484" y="144" type="line" smooth="yes"/>
      <point x="484" y="151"/>
      <point x="481" y="154"/>
      <point x="474" y="154" type="curve" smooth="yes"/>
      <point x="433" y="154" type="line" smooth="yes"/>
      <point x="390" y="154"/>
      <point x="361" y="150"/>
      <point x="325" y="143" type="curve"/>
      <point x="325" y="79" type="line"/>
      <point x="361" y="72"/>
      <point x="390" y="68"/>
      <point x="433" y="68" type="curve" smooth="yes"/>
      <point x="474" y="68" type="line" smooth="yes"/>
      <point x="481" y="68"/>
      <point x="484" y="71"/>
    </contour>
    <contour>
      <point x="52" y="154" type="line" smooth="yes"/>
      <point x="45" y="154"/>
      <point x="42" y="151"/>
      <point x="42" y="144" type="curve" smooth="yes"/>
      <point x="42" y="78" type="line" smooth="yes"/>
      <point x="42" y="71"/>
      <point x="45" y="68"/>
      <point x="52" y="68" type="curve" smooth="yes"/>
      <point x="93" y="68" type="line" smooth="yes"/>
      <point x="136" y="68"/>
      <point x="165" y="72"/>
      <point x="201" y="79" type="curve"/>
      <point x="201" y="143" type="line"/>
      <point x="165" y="150"/>
      <point x="136" y="154"/>
      <point x="93" y="154" type="curve" smooth="yes"/>
    </contour>
    <contour>
      <point x="231" y="395" type="line"/>
      <point x="225" y="364"/>
      <point x="222" y="343"/>
      <point x="221" y="305" type="curve"/>
      <point x="221" y="255" type="line"/>
      <point x="222" y="221"/>
      <point x="225" y="193"/>
      <point x="231" y="165" type="curve"/>
      <point x="295" y="165" type="line"/>
      <point x="301" y="194"/>
      <point x="304" y="220"/>
      <point x="305" y="255" type="curve"/>
      <point x="305" y="305" type="line"/>
      <point x="304" y="342"/>
      <point x="301" y="364"/>
      <point x="295" y="395" type="curve"/>
    </contour>
  </outline>
</glyph>
<glyph name="bullet" format="2">
  <advance width="367"/>
  <unicode hex="2022"/>
  <outline>
    <contour>
      <point x="192" y="366" type="curve" smooth="yes"/>
      <point x="179" y="366" type="line" smooth="yes"/>
      <point x="108" y="366"/>
      <point x="85" y="343"/>
      <point x="85" y="276" type="curve" smooth="yes"/>
      <point x="85" y="263" type="line" smooth="yes"/>
      <point x="85" y="192"/>
      <point x="108" y="169"/>
      <point x="179" y="169" type="curve" smooth="yes"/>
      <point x="192" y="169" type="line" smooth="yes"/>
      <point x="259" y="169"/>
      <point x="282" y="192"/>
      <point x="282" y="263" type="curve" smooth="yes"/>
      <point x="282" y="276" type="line" smooth="yes"/>
      <point x="282" y="343"/>
      <point x="259" y="366"/>
    </contour>
  </outline>
</glyph>
<glyph name="guilsinglright" format="2">
  <advance width="309"/>
  <unicode hex="203A"/>
  <outline>
    <contour>
      <point x="106" y="461" type="line"/>
      <point x="49" y="424" type="line"/>
      <point x="167" y="251" type="line"/>
      <point x="48" y="74" type="line"/>
      <point x="105" y="37" type="line"/>
      <point x="266" y="239" type="line"/>
      <point x="266" y="263" type="line"/>
    </contour>
  </outline>
</glyph>
<glyph name="fraction" format="2">
  <advance width="160"/>
  <unicode hex="2044"/>
  <outline>
    <contour>
      <point x="335" y="690" type="line"/>
      <point x="260" y="690" type="line"/>
      <point x="-175" y="0" type="line"/>
      <point x="-100" y="0" type="line"/>
    </contour>
  </outline>
</glyph>
<glyph name="sixsuperior" format="2">
  <advance width="407"/>
  <unicode hex="2076"/>
  <outline>
    <contour>
      <point x="223" y="781" type="curve" smooth="yes"/>
      <point x="115" y="781"/>
      <point x="58" y="747"/>
      <point x="58" y="558" type="curve" smooth="yes"/>
      <point x="58" y="392"/>
      <point x="87" y="348"/>
      <point x="209" y="348" type="curve" smooth="yes"/>
      <point x="325" y="348"/>
      <point x="350" y="404"/>
      <point x="350" y="493" type="curve" smooth="yes"/>
      <point x="350" y="594"/>
      <point x="322" y="627"/>
      <point x="232" y="627" type="curve" smooth="yes"/>
      <point x="174" y="627"/>
      <point x="141" y="603"/>
      <point x="102" y="551" type="curve"/>
      <point x="105" y="506" type="line"/>
      <point x="150" y="548"/>
      <point x="176" y="559"/>
      <point x="214" y="559" type="curve" smooth="yes"/>
      <point x="259" y="559"/>
      <point x="270" y="542"/>
      <point x="270" y="493" type="curve" smooth="yes"/>
      <point x="270" y="444"/>
      <point x="265" y="415"/>
      <point x="209" y="415" type="curve" smooth="yes"/>
      <point x="142" y="415"/>
      <point x="140" y="444"/>
      <point x="140" y="556" type="curve" smooth="yes"/>
      <point x="140" y="701"/>
      <point x="157" y="714"/>
      <point x="229" y="714" type="curve" smooth="yes"/>
      <point x="267" y="714"/>
      <point x="284" y="714"/>
      <point x="312" y="713" type="curve"/>
      <point x="317" y="771" type="line"/>
      <point x="282" y="781"/>
      <point x="240" y="781"/>
    </contour>
  </outline>
</glyph>
<glyph name="sevensuperior" format="2">
  <advance width="373"/>
  <unicode hex="2077"/>
  <outline>
    <contour>
      <point x="296" y="772" type="curve" smooth="yes"/>
      <point x="40" y="772" type="line"/>
      <point x="43" y="702" type="line"/>
      <point x="238" y="702" type="line"/>
      <point x="232" y="691"/>
      <point x="227" y="680"/>
      <point x="223" y="668" type="curve" smooth="yes"/>
      <point x="117" y="360" type="line"/>
      <point x="200" y="360" type="line"/>
      <point x="327" y="731" type="line" smooth="yes"/>
      <point x="336" y="756"/>
      <point x="323" y="772"/>
    </contour>
  </outline>
</glyph>
<glyph name="franc" format="2">
  <advance width="542"/>
  <unicode hex="20A3"/>
  <outline>
    <contour>
      <point x="224" y="692" type="curve" smooth="yes"/>
      <point x="135" y="692"/>
      <point x="79" y="645"/>
      <point x="79" y="559" type="curve" smooth="yes"/>
      <point x="79" y="0" type="line"/>
      <point x="191" y="0" type="line"/>
      <point x="191" y="536" type="line" smooth="yes"/>
      <point x="191" y="582"/>
      <point x="206" y="597"/>
      <point x="252" y="597" type="curve" smooth="yes"/>
      <point x="494" y="597" type="line"/>
      <point x="500" y="683" type="line"/>
      <point x="413" y="692"/>
      <point x="320" y="692"/>
    </contour>
    <contour>
      <point x="96" y="395" type="line"/>
      <point x="96" y="305" type="line"/>
      <point x="457" y="305" type="line"/>
      <point x="457" y="395" type="line"/>
    </contour>
    <contour>
      <point x="335" y="201" type="line"/>
      <point x="3" y="201" type="line"/>
      <point x="4" y="133" type="line"/>
      <point x="332" y="133" type="line"/>
    </contour>
  </outline>
</glyph>
<glyph name="peseta" format="2">
  <advance width="608"/>
  <unicode hex="20A7"/>
  <outline>
    <contour>
      <point x="311" y="699" type="curve" smooth="yes"/>
      <point x="197" y="699"/>
      <point x="175" y="698"/>
      <point x="98" y="690" type="curve"/>
      <point x="112" y="600" type="line"/>
      <point x="141" y="603"/>
      <point x="197" y="604"/>
      <point x="309" y="604" type="curve" smooth="yes"/>
      <point x="389" y="604"/>
      <point x="415" y="567"/>
      <point x="415" y="479" type="curve" smooth="yes"/>
      <point x="415" y="390"/>
      <point x="389" y="354"/>
      <point x="309" y="353" type="curve" smooth="yes"/>
      <point x="233" y="352"/>
      <point x="193" y="353"/>
      <point x="121" y="353" type="curve"/>
      <point x="118" y="273" type="line"/>
      <point x="174" y="266"/>
      <point x="251" y="258"/>
      <point x="325" y="258" type="curve" smooth="yes"/>
      <point x="473" y="258"/>
      <point x="527" y="316"/>
      <point x="527" y="479" type="curve" smooth="yes"/>
      <point x="527" y="640"/>
      <point x="473" y="699"/>
    </contour>
    <contour>
      <point x="209" y="690" type="line"/>
      <point x="98" y="690" type="line"/>
      <point x="98" y="0" type="line"/>
      <point x="209" y="0" type="line"/>
    </contour>
    <contour>
      <point x="594" y="511" type="line"/>
      <point x="22" y="511" type="line"/>
      <point x="23" y="448" type="line"/>
      <point x="591" y="448" type="line"/>
    </contour>
  </outline>
</glyph>
